<?xml version="1.0" encoding="UTF-8"?>
<svg id="Layer_2" data-name="Layer 2" xmlns="http://www.w3.org/2000/svg" width="617.19" height="290.8" viewBox="0 0 617.19 290.8">
  <defs>
    <style>
      .cls-1, .cls-2 {
        stroke: #5435b0;
        stroke-miterlimit: 10;
        stroke-width: 8px;
      }

      .cls-1, .cls-3 {
        fill: #5435b0;
      }

      .cls-2, .cls-4 {
        fill: #fff;
      }

      .cls-3, .cls-4 {
        stroke-width: 0px;
      }
    </style>
  </defs>
  <g id="TV">
    <g>
      <g>
        <g>
          <path class="cls-3" d="m4.59,286.8l12.51-90.59,9.72-68.06,15.24-108.55h61.37l-1.36,9.54c11.97-8.63,25-13.14,38.15-13.14,26.42,0,57.28,19.9,57.28,76,0,24.68-4.64,46.64-13.79,65.36,7.29,2.14,13.89,2.64,18.43,2.64,20.23,0,46.39-14.86,58.19-22.29l8.49-60.07h-34.83l15.87-58.04h88.29l-16.83,121.19c-1.16,8.88-.17,15.88,2.71,19.16,1.3,1.48,3.01,2.21,5.21,2.21,10,0,24.16-6.21,31.68-59.92l11.65-82.65h61.35l-16.83,121.19c-1.16,8.88-.17,15.88,2.71,19.16,1.3,1.48,3.01,2.21,5.21,2.21,10,0,24.16-6.21,31.68-59.92l7.89-55.57c.03-.74.14-1.41.23-1.95.06-.37.13-.75.13-.96v-.28l3.41-23.88h61.39l-3.92,26.11c-.64,6.16.28,10.67,2.74,13.4,2.42,2.69,6.7,4.05,12.73,4.05,12.17,0,29.66-6.35,47.97-17.42l5.34-3.23,6.38,56.11-1.98,1.36c-20.28,13.92-44.61,21.58-68.5,21.58-5.14,0-10.26-.4-15.55-1.2-7.07,34.27-19.81,59.84-37.89,76.05-16.28,14.59-37.3,21.99-62.48,21.99-17.09,0-32.71-6.64-43.51-18.36-13.83,12.35-30.97,18.36-52.25,18.36-20.05,0-38.02-9.13-48.86-24.62-24.69,15.68-53.5,24.62-79.66,24.62-18.82,0-36.34-3.84-53.48-11.75-14.11,7.69-30.3,11.75-46.96,11.75-4.71,0-9.56-.23-14.22-.68l-9.66,69.08H4.59Zm79.21-126.68c4.8,1.42,8.55,2.04,12.14,2.04,22.44,0,38.12-25,38.12-60.8,0-17.96-5.09-29.12-13.28-29.12-5.44,0-11.87,4.56-17.19,12.19-7.71,11.05-13.34,28.42-16.28,50.22l-3.5,25.47Z"/>
          <path class="cls-3" d="m140.22,20c27.36,0,53.28,21.96,53.28,72,0,27-5.76,49.68-15.48,67.68,8.64,3.24,17.28,4.32,24.12,4.32,19.23,0,44.02-12.44,61.89-23.9l9.39-66.46h-34.2l13.68-50.04h80.64l-16.2,116.64c-2.16,16.56,2.52,25.92,11.88,25.92,13.32,0,28.08-9.36,35.64-63.36l11.16-79.2h53.28l-16.2,116.64c-2.16,16.56,2.52,25.92,11.88,25.92,13.32,0,28.08-9.36,35.64-63.36l7.92-55.8c0-1.08.36-2.16.36-3.24l2.88-20.16h53.28l-3.24,21.6c-1.8,16.92,7.2,21.96,19.44,21.96,15.12,0,34.56-8.64,50.04-18l5.4,47.52c-18.36,12.6-41.76,20.88-66.24,20.88-6.84,0-12.96-.72-18.72-1.8-14.4,75.6-52.92,98.64-97.2,98.64-16.56,0-32.76-6.84-43.2-20.16-14.76,14.76-32.4,20.16-52.56,20.16-18.8,0-37.35-8.82-47.68-26.16-23.25,15.6-52.5,26.16-80.84,26.16-18.72,0-36.36-3.96-53.64-12.24-14.4,8.28-30.6,12.24-46.8,12.24-5.76,0-11.88-.36-17.64-1.08l-9.72,69.48H9.18l11.88-86.04,9.72-68.04,14.76-105.12h53.28l-2.16,15.12c13.32-12.24,28.44-18.72,43.56-18.72m-44.28,146.16c24.12,0,42.12-25.56,42.12-64.8,0-23.04-7.92-33.12-17.28-33.12-11.52,0-30.6,15.12-37.44,65.88l-3.96,28.8c6.48,2.16,11.52,3.24,16.56,3.24M140.22,12c-11.27,0-22.43,3.09-32.96,9.06l.78-5.46H38.59l-.97,6.89-14.76,105.12-9.72,68.02L1.26,281.71l-1.26,9.09h69.42l.96-6.89,8.66-61.89c3.58.25,7.22.38,10.78.38,16.64,0,32.83-3.89,47.1-11.29,17.1,7.59,34.59,11.29,53.34,11.29,25.79,0,54.05-8.42,78.66-23.29,11.73,14.71,29.83,23.29,49.86,23.29s37.95-5.54,52.01-16.91c11.38,10.83,26.91,16.91,43.75,16.91,54.35,0,89.14-32.82,103.5-97.58,4.19.5,8.3.74,12.42.74,24.7,0,49.83-7.91,70.77-22.28l3.97-2.72-.54-4.78-5.4-47.52-1.41-12.4-10.68,6.46c-17.71,10.71-34.44,16.85-45.9,16.85-3.33,0-7.73-.47-9.76-2.72-2.06-2.29-2.1-6.79-1.75-10.23l3.21-21.42,1.38-9.19h-69.51l-.98,6.87-2.88,20.16-.08.56v.43c-.02.15-.05.29-.07.44-.1.59-.22,1.35-.27,2.24l-7.86,55.37c-7.91,56.48-22.82,56.48-27.72,56.48-1.35,0-1.83-.42-2.2-.85-1.61-1.84-2.92-7.01-1.75-16.01l16.19-116.6,1.26-9.1h-69.42l-.97,6.88-11.16,79.2c-7.91,56.48-22.82,56.48-27.72,56.48-1.35,0-1.83-.42-2.2-.85-1.61-1.84-2.92-7.01-1.75-16.01l16.19-116.6,1.26-9.1h-95.93l-1.61,5.89-13.68,50.04-2.76,10.11h35.47l-7.58,53.67c-21.26,13.18-40.98,20.69-54.49,20.69-4.22,0-8.57-.47-12.76-1.35,8.05-18.26,12.12-39.29,12.12-62.65,0-25.03-6.32-45.75-18.26-59.92-10.91-12.95-26.19-20.08-43.02-20.08h0Zm-51.97,145.17l3.02-21.96c3.61-26.77,10.47-41.14,15.6-48.49,5.39-7.73,10.72-10.48,13.91-10.48,4.47,0,9.28,7.86,9.28,25.12,0,33.44-14.03,56.8-34.12,56.8-2.35,0-4.8-.31-7.69-.99h0Z"/>
        </g>
        <path class="cls-1" d="m558.18,146.72c17.64,0,29.88,12.96,29.88,29.88,0,21.24-17.64,37.8-38.52,37.8-17.64,0-29.88-12.96-29.88-29.88,0-21.24,17.64-37.8,38.52-37.8Z"/>
      </g>
      <g>
        <g>
          <path class="cls-4" d="m16.59,274.8l12.51-90.59,9.72-68.06L54.06,7.6h61.37l-1.36,9.54c11.97-8.63,25-13.14,38.15-13.14,26.42,0,57.28,19.9,57.28,76,0,24.68-4.64,46.64-13.79,65.36,7.29,2.14,13.89,2.64,18.43,2.64,20.23,0,46.39-14.86,58.19-22.29l8.49-60.07h-34.83l15.87-58.04h88.29l-16.83,121.19c-1.16,8.88-.17,15.88,2.71,19.16,1.3,1.48,3.01,2.21,5.21,2.21,10,0,24.16-6.21,31.68-59.91l11.65-82.65h61.35l-16.83,121.19c-1.16,8.88-.17,15.88,2.71,19.16,1.3,1.48,3.01,2.21,5.21,2.21,10,0,24.16-6.21,31.68-59.91l7.89-55.57c.03-.74.14-1.41.23-1.95.06-.37.13-.75.13-.96v-.28l3.41-23.88h61.39l-3.92,26.11c-.64,6.16.28,10.67,2.74,13.4,2.42,2.69,6.7,4.05,12.73,4.05,12.17,0,29.66-6.35,47.97-17.42l5.34-3.23,6.38,56.11-1.98,1.36c-20.28,13.92-44.61,21.58-68.5,21.58-5.14,0-10.26-.4-15.55-1.2-7.07,34.27-19.81,59.84-37.89,76.05-16.28,14.59-37.3,21.99-62.48,21.99-17.09,0-32.71-6.64-43.51-18.36-13.83,12.35-30.97,18.36-52.25,18.36-20.05,0-38.02-9.13-48.86-24.62-24.69,15.68-53.5,24.62-79.66,24.62-18.83,0-36.34-3.84-53.48-11.75-14.11,7.69-30.3,11.75-46.96,11.75-4.71,0-9.56-.23-14.22-.68l-9.66,69.08H16.59Zm79.21-126.68c4.8,1.42,8.55,2.04,12.14,2.04,22.44,0,38.12-25,38.12-60.8,0-17.96-5.09-29.12-13.28-29.12-5.44,0-11.87,4.56-17.19,12.19-7.71,11.05-13.34,28.42-16.28,50.22l-3.5,25.47Z"/>
          <path class="cls-3" d="m152.22,8c27.36,0,53.28,21.96,53.28,72,0,27-5.76,49.68-15.48,67.68,8.64,3.24,17.28,4.32,24.12,4.32,19.23,0,44.02-12.44,61.89-23.9l9.39-66.46h-34.2l13.68-50.04h80.64l-16.2,116.64c-2.16,16.56,2.52,25.92,11.88,25.92,13.32,0,28.08-9.36,35.64-63.36l11.16-79.2h53.28l-16.2,116.64c-2.16,16.56,2.52,25.92,11.88,25.92,13.32,0,28.08-9.36,35.64-63.36l7.92-55.8c0-1.08.36-2.16.36-3.24l2.88-20.16h53.28l-3.24,21.6c-1.8,16.92,7.2,21.96,19.44,21.96,15.12,0,34.56-8.64,50.04-18l5.4,47.52c-18.36,12.6-41.76,20.88-66.24,20.88-6.84,0-12.96-.72-18.72-1.8-14.4,75.6-52.92,98.64-97.2,98.64-16.56,0-32.76-6.84-43.2-20.16-14.76,14.76-32.4,20.16-52.56,20.16-18.8,0-37.35-8.82-47.68-26.16-23.25,15.6-52.5,26.16-80.84,26.16-18.72,0-36.36-3.96-53.64-12.24-14.4,8.28-30.6,12.24-46.8,12.24-5.76,0-11.88-.36-17.64-1.08l-9.72,69.48H21.18l11.88-86.04,9.72-68.04L57.54,11.6h53.28l-2.16,15.12c13.32-12.24,28.44-18.72,43.56-18.72m-44.28,146.16c24.12,0,42.12-25.56,42.12-64.8,0-23.04-7.92-33.12-17.28-33.12-11.52,0-30.6,15.12-37.44,65.88l-3.96,28.8c6.48,2.16,11.52,3.24,16.56,3.24M152.22,0c-11.27,0-22.43,3.09-32.96,9.06l.78-5.46H50.59l-.97,6.89-14.76,105.12-9.72,68.02-11.89,86.08-1.26,9.09h69.42l.96-6.89,8.66-61.89c3.58.25,7.22.38,10.78.38,16.64,0,32.83-3.89,47.1-11.29,17.1,7.59,34.59,11.29,53.34,11.29,25.79,0,54.05-8.42,78.66-23.29,11.73,14.71,29.83,23.29,49.86,23.29s37.95-5.54,52.01-16.91c11.38,10.83,26.91,16.91,43.75,16.91,54.35,0,89.14-32.82,103.5-97.58,4.19.5,8.3.74,12.42.74,24.7,0,49.83-7.91,70.77-22.28l3.97-2.72-.54-4.78-5.4-47.52-1.41-12.4-10.68,6.46c-17.71,10.71-34.44,16.85-45.9,16.85-3.33,0-7.73-.47-9.76-2.72-2.06-2.29-2.1-6.79-1.75-10.23l3.21-21.42,1.38-9.19h-69.51l-.98,6.87-2.88,20.16-.08.56v.43c-.02.15-.05.29-.07.44-.1.59-.22,1.35-.27,2.24l-7.86,55.37c-7.91,56.48-22.82,56.48-27.72,56.48-1.35,0-1.83-.42-2.2-.85-1.61-1.84-2.92-7.01-1.75-16.01l16.19-116.6,1.26-9.1h-69.42l-.97,6.88-11.16,79.2c-7.91,56.48-22.82,56.48-27.72,56.48-1.35,0-1.83-.42-2.2-.85-1.61-1.84-2.92-7.01-1.75-16.01l16.19-116.6,1.26-9.1h-95.93l-1.61,5.89-13.68,50.04-2.76,10.11h35.47l-7.58,53.67c-21.26,13.18-40.98,20.69-54.49,20.69-4.22,0-8.57-.47-12.76-1.35,8.05-18.26,12.12-39.29,12.12-62.65,0-25.03-6.32-45.75-18.26-59.92C184.32,7.13,169.05,0,152.22,0h0Zm-51.97,145.17l3.02-21.96c3.61-26.77,10.47-41.14,15.6-48.49,5.39-7.73,10.72-10.48,13.91-10.48,4.47,0,9.28,7.86,9.28,25.12,0,33.44-14.03,56.8-34.12,56.8-2.35,0-4.8-.31-7.69-.99h0Z"/>
        </g>
        <path class="cls-2" d="m570.18,134.72c17.64,0,29.88,12.96,29.88,29.88,0,21.24-17.64,37.8-38.52,37.8-17.64,0-29.88-12.96-29.88-29.88,0-21.24,17.64-37.8,38.52-37.8Z"/>
      </g>
    </g>
  </g>
</svg>