<?xml version="1.0" encoding="UTF-8"?>
<svg id="Layer_2" data-name="Layer 2" xmlns="http://www.w3.org/2000/svg" width="650" height="796.71" viewBox="0 0 650 796.71">
  <defs>
    <style>
      .cls-1 {
        fill: #5435b0;
      }

      .cls-1, .cls-2, .cls-3 {
        stroke-width: 0px;
      }

      .cls-2 {
        fill: #fff;
      }

      .cls-3 {
        fill: #ffc32c;
      }
    </style>
  </defs>
  <g id="Layer_3" data-name="Layer 3">
    <g>
      <circle class="cls-3" cx="325" cy="398.35" r="325"/>
      <g>
        <path class="cls-1" d="m288.38,788.71c-7.66,0-14.43-4.87-16.85-12.12l-104.41-312.65c-1.74-5.2-1-10.81,2.02-15.38l51.44-77.96c.08-.12.15-.26.2-.4l81.54-241.08c2.42-7.17,9.14-12.01,16.71-12.05l4.47-.02c.69,0,1.12-.36,1.35-.66s.48-.8.32-1.47l-7.51-31.09c-1.29-5.32-.08-10.83,3.3-15.13,3.38-4.3,8.46-6.76,13.93-6.76l50.18.39c.97,0,1.74-.78,1.74-1.73v-14.86c0-9.78,7.95-17.73,17.73-17.73h1.58c9.76.02,17.7,7.97,17.7,17.73v88.24c0,2.6-.59,5.23-1.7,7.58l-19.41,41.05c-.11.23-.17.49-.17.75l.8,214.95c0,1.36-.15,2.71-.45,4.04l-82.31,358.14c-.77,3.35-2.48,6.38-4.94,8.76l-14.93,14.47c-3.33,3.22-7.7,5-12.31,5Z"/>
        <path class="cls-1" d="m404.52,36h1.56c5.37.01,9.71,4.37,9.71,9.73v88.24c0,1.44-.32,2.86-.93,4.16l-19.41,41.05c-.62,1.31-.94,2.74-.93,4.2l.8,214.95c0,.75-.08,1.49-.25,2.22l-82.31,358.14c-.42,1.83-1.36,3.5-2.71,4.81l-14.93,14.47c-1.93,1.87-4.35,2.75-6.74,2.75-3.97,0-7.84-2.41-9.26-6.65l-104.41-312.65c-.95-2.83-.54-5.95,1.11-8.44l51.44-77.96c.46-.7.83-1.45,1.1-2.24l81.54-241.08c1.33-3.94,5.01-6.59,9.17-6.61l4.47-.02c6.28-.03,10.88-5.91,9.41-12.02l-7.52-31.09c-1.48-6.13,3.16-12.02,9.46-12.02.03,0,.05,0,.08,0l50.03.39s.05,0,.08,0c5.37,0,9.73-4.35,9.73-9.73v-14.86c0-5.38,4.36-9.73,9.73-9.73m.05-16h-.05c-6.87,0-13.33,2.68-18.19,7.54-4.86,4.86-7.54,11.32-7.54,18.2v8.54l-43.72-.34h-.2c-7.94,0-15.31,3.58-20.22,9.82-4.91,6.24-6.66,14.24-4.79,21.96l5.71,23.61c-9.55,1.32-17.69,7.93-20.84,17.24l-81.28,240.31-50.99,77.28c-4.38,6.64-5.45,14.78-2.93,22.32l104.41,312.65c3.51,10.52,13.33,17.58,24.44,17.58,6.7,0,13.04-2.58,17.87-7.25l14.93-14.47c3.58-3.47,6.06-7.86,7.17-12.72l82.31-358.14c.44-1.92.66-3.89.65-5.86l-.79-213.53,18.8-39.77c1.62-3.42,2.47-7.22,2.47-11V45.73c0-14.16-11.52-25.7-25.68-25.73h-1.54Z"/>
      </g>
      <g>
        <path class="cls-2" d="m308.38,768.71c-7.66,0-14.43-4.87-16.85-12.12l-104.41-312.65c-1.74-5.2-1-10.81,2.02-15.38l51.44-77.96c.08-.12.15-.26.2-.4l81.54-241.08c2.42-7.17,9.14-12.01,16.71-12.05l4.47-.02c.69,0,1.12-.36,1.35-.66s.48-.8.32-1.47l-7.51-31.09c-1.29-5.32-.08-10.83,3.3-15.13,3.38-4.3,8.46-6.76,13.93-6.76l50.18.39c.97,0,1.74-.78,1.74-1.73v-14.86c0-9.78,7.95-17.73,17.73-17.73h1.58c9.76.02,17.7,7.97,17.7,17.73v88.24c0,2.6-.59,5.23-1.7,7.58l-19.41,41.05c-.11.23-.17.49-.17.75l.8,214.95c0,1.36-.15,2.71-.45,4.04l-82.31,358.14c-.77,3.35-2.48,6.38-4.94,8.76l-14.93,14.47c-3.33,3.22-7.7,5-12.31,5Z"/>
        <path class="cls-1" d="m424.52,16h1.56c5.37.01,9.71,4.37,9.71,9.73v88.24c0,1.44-.32,2.86-.93,4.16l-19.41,41.05c-.62,1.31-.94,2.74-.93,4.2l.8,214.95c0,.75-.08,1.49-.25,2.22l-82.31,358.14c-.42,1.83-1.36,3.5-2.71,4.81l-14.93,14.47c-1.93,1.87-4.35,2.75-6.74,2.75-3.97,0-7.84-2.41-9.26-6.65l-104.41-312.65c-.95-2.83-.54-5.95,1.11-8.44l51.44-77.96c.46-.7.83-1.45,1.1-2.24l81.54-241.08c1.33-3.94,5.01-6.59,9.17-6.61l4.47-.02c6.28-.03,10.88-5.91,9.41-12.02l-7.52-31.09c-1.48-6.13,3.16-12.02,9.46-12.02.03,0,.05,0,.08,0l50.03.39s.05,0,.08,0c5.37,0,9.73-4.35,9.73-9.73v-14.86c0-5.38,4.36-9.73,9.73-9.73M424.57,0h-.05c-6.87,0-13.33,2.68-18.19,7.54-4.86,4.86-7.54,11.32-7.54,18.2v8.54l-43.72-.34h-.2c-7.94,0-15.31,3.58-20.22,9.82-4.91,6.24-6.66,14.24-4.79,21.96l5.71,23.61c-9.55,1.32-17.69,7.93-20.84,17.24l-81.28,240.31-50.99,77.28c-4.38,6.64-5.45,14.78-2.93,22.32l104.41,312.65c3.51,10.52,13.33,17.58,24.44,17.58,6.7,0,13.04-2.58,17.87-7.25l14.93-14.47c3.58-3.47,6.06-7.86,7.17-12.72l82.31-358.14c.44-1.92.66-3.89.65-5.86l-.79-213.53,18.8-39.77c1.62-3.42,2.47-7.22,2.47-11V25.73C451.8,11.57,440.28.03,426.11,0h-1.54Z"/>
      </g>
    </g>
  </g>
</svg>