<?xml version="1.0" encoding="UTF-8"?>
<svg id="Layer_2" data-name="Layer 2" xmlns="http://www.w3.org/2000/svg" viewBox="0 0 1388.84 357.21">
  <defs>
    <style>
      .cls-1 {
        fill: #fff;
      }

      .cls-2 {
        fill: #5435b0;
      }
    </style>
  </defs>
  <g id="Layer_4" data-name="Layer 4">
    <g>
      <g>
        <path class="cls-1" d="M1342.41,284.97c-19.59,0-33.81-14.22-33.81-33.81,0-23,19.04-41.71,42.43-41.71,19.59,0,33.81,14.22,33.81,33.81,0,23-19.03,41.71-42.43,41.71Z"/>
        <path class="cls-2" d="M1351.03,213.44c17.6,0,29.81,12.93,29.81,29.81,0,21.19-17.6,37.71-38.43,37.71-17.6,0-29.81-12.93-29.81-29.81,0-21.19,17.6-37.71,38.43-37.71M1351.03,205.44c-25.6,0-46.43,20.51-46.43,45.71,0,10.36,3.76,19.89,10.6,26.84,6.95,7.07,16.62,10.97,27.21,10.97,25.6,0,46.43-20.51,46.43-45.71,0-10.36-3.76-19.89-10.6-26.84-6.95-7.07-16.62-10.97-27.21-10.97h0Z"/>
      </g>
      <g>
        <path class="cls-1" d="M4.59,353.21l12.48-90.39,9.7-67.9,15.21-108.31h61.25l-1.36,9.51c11.94-8.6,24.93-13.1,38.05-13.1,15.59,0,29.76,6.61,39.88,18.62,11.31,13.42,17.29,33.2,17.29,57.22s-4.63,46.54-13.77,65.21c7.28,2.13,13.85,2.63,18.37,2.63,14.19,0,31.27-7.34,43.84-14-.29-3.48-.43-7.08-.43-10.74,0-77.25,55.36-118.93,107.44-118.93,28.39,0,53.95,9.8,70.39,18.02l2.58,1.29-10.1,70.74-4.66,34.8c-.83,6.61.08,11.49,2.7,14.46,2.55,2.89,7.07,4.35,13.44,4.35,20.34,0,46.38-14.7,58.12-22.05l28.2-200.63h61.24l-28.66,203.89c-.95,6.52-.12,11.33,2.45,14.31,2.57,2.97,7.18,4.48,13.7,4.48,20.41,0,46.6-14.83,58.4-22.23l8.47-59.92h-34.76l15.84-57.92h88.1l-16.79,120.92c-1.16,8.86-.17,15.84,2.7,19.11,1.3,1.48,3,2.2,5.19,2.2,9.97,0,24.1-6.2,31.6-59.77l11.62-82.46h61.23l-16.79,120.92c-1.16,8.86-.17,15.84,2.7,19.11,1.3,1.48,3,2.2,5.19,2.2,9.97,0,24.1-6.2,31.6-59.77l11.62-82.46h61.23l-6.75,48.02c-1,7.43-.11,12.81,2.65,15.96,2.51,2.87,6.81,4.27,13.15,4.27,16.93,0,38.08-10.46,49.85-17.13,17.14-34.78,47.21-54.7,82.69-54.7,21.24,0,38.33,7.58,49.42,21.91,11.61,15,22.35,44.81,7.61,101.62l-.78,3h-89.17c2.89,19.96,16.71,30.07,41.13,30.07,27.55,0,65.89-13.15,102.85-35.23l1.35-9.46,26.7-190.92h61.25l-13.19,92.3c11.89-8.72,24.99-13.28,38.38-13.28,15.59,0,29.75,6.61,39.87,18.62,11.31,13.41,17.28,33.2,17.28,57.22,0,77.9-55.77,126.12-107.44,126.12-26.92,0-51.27-8.82-67.52-16.61-31.67,17.33-69.09,27.24-102.99,27.24-28.99,0-53.5-7.41-70.86-21.43-19.63-15.84-29.89-39.33-30.53-69.86-16.03,5.79-32.42,8.83-47.75,8.83-6.63,0-12.71-.5-18.47-1.53-16.05,48.68-47.52,73.36-93.59,73.36-17.05,0-32.63-6.62-43.41-18.31-13.8,12.32-30.9,18.31-52.12,18.31-20.01,0-37.93-9.11-48.75-24.56-24.69,15.65-53.56,24.56-79.83,24.56s-44.92-8.3-55.98-24.06c-24.53,15.33-53.13,24.06-79.07,24.06-22.44,0-40.08-6.33-51.34-18.35-13.86,12.18-30.28,18.35-48.87,18.35-19.76,0-37.31-7.75-49.81-21.92-23.84,14.15-50.41,21.92-75.18,21.92-18.78,0-36.26-3.83-53.36-11.72-14.08,7.67-30.23,11.72-46.85,11.72-4.7,0-9.53-.23-14.18-.68l-9.64,68.92H4.59ZM1199.57,226.8c4.77,1.39,8.78,2.04,12.46,2.04,22.39,0,38.02-24.94,38.02-60.65,0-17.91-5.07-29.04-13.24-29.04-8.77,0-27.11,13.01-33.75,62.26l-3.49,25.39ZM346.44,139.15c-22.39,0-38.02,24.94-38.02,60.65,0,17.91,6.45,29.04,16.83,29.04,13.38,0,23.19-14.85,26.93-40.75l6.7-46.91c-4.76-1.38-8.77-2.03-12.44-2.03ZM83.64,226.81c4.78,1.41,8.52,2.03,12.1,2.03,22.39,0,38.02-24.94,38.02-60.65,0-17.91-5.07-29.04-13.24-29.04-8.65,0-26.75,13.01-33.39,62.26l-3.49,25.4ZM1032.24,164.19c2.19-15.84.26-22.12-1.84-24.58-.7-.82-1.95-1.9-4.78-1.9-9.62,0-18.01,9.57-23.41,26.48h30.02Z"/>
        <path class="cls-2" d="M1226.4,8l-14.01,98.05c13.29-12.57,28.37-19.04,43.82-19.04,27.3,0,53.16,21.91,53.16,71.83,0,73.63-52.08,122.12-103.44,122.12-23.35,0-47.04-6.96-67.64-17.12-30.18,16.9-68.13,27.74-102.87,27.74-52.37,0-97.43-24.65-97.43-90.36,0-.91.01-1.83.03-2.74-16.57,6.67-34.39,10.64-51.75,10.64-7.9,0-14.73-.72-21.19-2.16-17.24,56.03-51.72,73.99-90.87,73.99-16.52,0-32.68-6.82-43.1-20.11-14.73,14.73-32.32,20.11-52.44,20.11-18.77,0-37.26-8.8-47.57-26.1-23.24,15.56-52.72,26.1-81.01,26.1s-45.23-9.31-54.77-25.59c-23.14,15.28-52.29,25.59-80.27,25.59-23.71,0-40.95-7.18-51-20.11-13.29,12.93-29.81,20.11-49.21,20.11s-36.62-7.57-48.95-23.12c-22.37,13.92-49.6,23.12-76.04,23.12-18.68,0-36.28-3.95-53.52-12.21-14.37,8.26-30.53,12.21-46.69,12.21-5.75,0-11.85-.36-17.6-1.08l-9.7,69.32H9.18l11.85-85.84,9.7-67.88,14.73-104.88h53.16l-2.15,15.08c13.29-12.21,28.37-18.68,43.46-18.68,27.3,0,53.17,21.91,53.17,71.83,0,26.94-5.75,49.57-15.46,67.52,8.64,3.23,17.26,4.31,24.06,4.31,14.64,0,32.5-7.23,48.07-15.73-.43-4.13-.66-8.47-.66-13,0-73.63,52.08-114.93,103.44-114.93,23.71,0,47.77,7.18,68.6,17.6l-9.7,67.88-4.67,34.84c-2.16,17.24,6.47,23.35,20.11,23.35,19.08,0,43.98-12.27,61.82-23.66l27.97-199.02h53.16l-28.01,199.34c-2.51,17.24,6.47,23.35,20.11,23.35,19.19,0,44.25-12.42,62.11-23.84l9.37-66.31h-34.12l13.65-49.92h80.45l-16.16,116.37c-2.15,16.52,2.51,25.86,11.85,25.86,13.29,0,28.01-9.34,35.56-63.21l11.13-79.02h53.16l-16.16,116.37c-2.15,16.52,2.51,25.86,11.85,25.86,13.29,0,28.01-9.34,35.56-63.21l11.13-79.02h53.16l-6.11,43.46c-2.51,18.68,6.11,24.78,19.75,24.78,16.07,0,36.28-8.71,52.9-18.27,15.55-32.37,43.95-53.56,79.63-53.56,49.57,0,72.91,42.38,53.16,118.53h-90.51c1.77,27.26,20.06,38.07,45.56,38.07,30.5,0,71.33-15.47,106.54-36.79l1.62-11.34,26.22-187.49h53.16M996.89,168.19h38.79c3.59-22.27,1.08-34.48-10.06-34.48-13.29,0-23.35,14.01-28.73,34.48M1212.03,232.84c24.06,0,42.02-25.5,42.02-64.65,0-22.99-7.9-33.04-17.24-33.04-11.49,0-30.89,15.08-37.71,65.73l-3.95,28.73c6.47,2.16,11.85,3.23,16.88,3.23M325.25,232.84c11.49,0,25.86-9.34,30.89-44.18l7.18-50.28c-6.46-2.15-11.85-3.23-16.88-3.23-24.06,0-42.02,25.5-42.02,64.65,0,22.99,9.7,33.04,20.83,33.04M95.74,232.84c24.06,0,42.02-25.5,42.02-64.65,0-22.99-7.9-33.04-17.24-33.04-11.49,0-30.53,15.08-37.35,65.73l-3.95,28.73c6.46,2.16,11.49,3.23,16.52,3.23M1235.62,0h-69.34l-.96,6.89-26.22,187.49-1.07,7.54c-35.39,20.84-73.11,33.7-99.16,33.7s-33.92-12.47-36.37-22.07h87.51l1.55-5.99c11.99-46.21,9.11-82.54-8.32-105.07-11.87-15.35-30.06-23.46-52.58-23.46-19.04,0-36.51,5.4-51.92,16.06-13.81,9.55-25.46,23.26-33.8,39.75-18.45,10.34-35.01,16.02-46.81,16.02-5.04,0-8.45-.98-10.14-2.9-1.94-2.21-2.52-6.65-1.69-12.82l6.1-43.41,1.28-9.11h-69.31l-.97,6.88-11.13,79.02c-7.89,56.33-22.75,56.33-27.64,56.33-1.34,0-1.81-.41-2.18-.84-1.61-1.83-2.9-6.98-1.74-15.94l16.16-116.35,1.26-9.1h-69.3l-.97,6.88-11.13,79.02c-7.89,56.33-22.75,56.33-27.64,56.33-1.34,0-1.81-.41-2.18-.84-1.61-1.83-2.91-6.98-1.74-15.96l16.16-116.33,1.26-9.1h-95.75l-1.61,5.89-13.65,49.92-2.76,10.11h35.39l-7.56,53.51c-21.01,12.97-41.28,20.64-54.7,20.64-3.65,0-8.46-.54-10.68-3.1-2.22-2.57-2.05-7.45-1.52-11.09l28.02-199.38,1.28-9.11h-69.31l-.97,6.89-27.45,195.34c-20.88,12.86-41.04,20.46-54.42,20.46-3.56,0-8.26-.52-10.45-3-2.27-2.57-2.2-7.57-1.73-11.32l4.66-34.77,9.69-67.85.82-5.71-5.16-2.58c-16.83-8.41-43.01-18.44-72.18-18.44s-56.27,11.74-76.65,32.21c-10.87,10.92-19.37,23.95-25.28,38.73-6.31,15.79-9.51,33.28-9.51,51.99,0,2.85.08,5.66.25,8.41-15.74,8.08-29.38,12.33-39.66,12.33-4.19,0-8.52-.46-12.7-1.34,8.03-18.21,12.1-39.18,12.1-62.49,0-24.97-6.31-45.65-18.23-59.8-10.9-12.92-26.14-20.04-42.94-20.04-11.24,0-22.36,3.08-32.86,9.02l.78-5.43H38.5l-.97,6.89-14.73,104.88-9.69,67.86L1.26,348.11l-1.26,9.09h69.3l.96-6.89,8.64-61.73c3.57.25,7.19.38,10.74.38,16.6,0,32.75-3.88,46.99-11.26,17.05,7.57,34.51,11.26,53.21,11.26,24.51,0,50.69-7.37,74.42-20.85,13.08,13.5,30.79,20.85,50.57,20.85,18.34,0,34.67-5.69,48.65-16.94,12.04,11.11,29.67,16.94,51.56,16.94,25.57,0,53.62-8.23,78.06-22.76,12.07,14.93,31.58,22.76,56.99,22.76s54.22-8.4,78.82-23.23c11.71,14.68,29.77,23.23,49.76,23.23s37.86-5.53,51.88-16.86c11.36,10.8,26.85,16.86,43.65,16.86,46.97,0,79.34-24.51,96.3-72.88,4.97.7,10.18,1.05,15.76,1.05,14.15,0,29.16-2.51,43.98-7.31.82,13.49,3.59,25.72,8.27,36.45,5.37,12.31,13.29,22.74,23.52,31.01,18.08,14.6,43.46,22.32,73.38,22.32,33.91,0,71.25-9.72,103.11-26.76,16.61,7.75,40.75,16.13,67.4,16.13,27.98,0,56-13.14,76.89-36.06,22.28-24.44,34.55-57.84,34.55-94.06,0-24.97-6.3-45.65-18.23-59.79-10.89-12.92-26.14-20.04-42.93-20.04-11.46,0-22.68,3.11-33.18,9.12l11.29-79.01,1.3-9.13h0ZM1007.91,160.19c1.93-4.8,4.17-8.84,6.63-11.92,3.48-4.35,7.21-6.56,11.08-6.56,1.31,0,1.57.31,1.73.5.54.63,2.84,4.22,1.35,17.98h-20.79ZM1204.02,223.83l3.01-21.87c3.59-26.65,10.53-40.99,15.71-48.33,5.47-7.73,10.85-10.49,14.07-10.49,4.45,0,9.24,7.84,9.24,25.04,0,33.35-13.99,56.65-34.02,56.65-2.42,0-5.04-.33-8.01-1.01h0ZM325.25,224.84c-7.91,0-12.83-9.6-12.83-25.04,0-33.35,13.99-56.65,34.02-56.65,2.41,0,5.02.32,7.98,1l-6.2,43.38c-2.03,14.09-5.91,24.85-11.21,31.12-3.47,4.11-7.43,6.19-11.76,6.19h0ZM88.08,223.86l3.01-21.89c3.6-26.7,10.45-41.04,15.56-48.37,5.38-7.71,10.69-10.45,13.87-10.45,4.45,0,9.24,7.84,9.24,25.04,0,33.35-13.99,56.65-34.02,56.65-2.33,0-4.78-.31-7.66-.98h0Z"/>
      </g>
    </g>
  </g>
</svg>