<?xml version="1.0" encoding="UTF-8"?><svg xmlns="http://www.w3.org/2000/svg" width="36" height="36" xmlns:xlink="http://www.w3.org/1999/xlink" viewBox="0 0 36 36"><defs><style>.cls-1{fill:#fff;}.cls-2{filter:url(#drop-shadow-1);}</style><filter id="drop-shadow-1" filterUnits="userSpaceOnUse"><feOffset dx="1" dy="2"/><feGaussianBlur result="blur" stdDeviation="1"/><feFlood flood-color="#000" flood-opacity=".75"/><feComposite in2="blur" operator="in"/><feComposite in="SourceGraphic"/></filter></defs><g id="Layer_1" class="cls-2"><g><path d="M20.48,26.5c-.37,0-.72-.12-1.02-.35-.44-.34-.68-.83-.68-1.39,0-.32,.1-.62,.28-.89,.21-.3,.51-.5,.86-.59,1.07-.38,1.99-1.06,2.7-2.04,.71-.97,1.05-2.05,1.05-3.28s-.35-2.31-1.06-3.29c-.71-.99-1.62-1.66-2.78-2.05-.28-.07-.59-.29-.8-.61-.17-.27-.26-.57-.26-.87,0-.58,.26-1.08,.73-1.41,.3-.21,.64-.32,.98-.32,.18,0,.36,.03,.54,.09,1.79,.64,3.25,1.74,4.33,3.27,1.09,1.54,1.64,3.28,1.64,5.19s-.55,3.65-1.64,5.19c-1.09,1.54-2.54,2.63-4.32,3.26-.21,.07-.39,.09-.56,.09Z"/><path class="cls-1" d="M20.49,10.4c.07,0,.15,.01,.23,.04,1.59,.56,2.86,1.53,3.83,2.9,.97,1.37,1.46,2.91,1.46,4.61s-.49,3.24-1.46,4.61c-.97,1.37-2.25,2.34-3.83,2.9-.08,.02-.16,.04-.23,.04-.15,0-.29-.05-.41-.15-.19-.15-.29-.35-.29-.6,0-.12,.03-.23,.1-.32s.16-.16,.28-.19c1.35-.47,2.44-1.28,3.27-2.42,.83-1.14,1.24-2.43,1.24-3.87s-.41-2.73-1.24-3.88c-.83-1.15-1.92-1.95-3.27-2.41-.12-.03-.21-.1-.28-.2-.07-.1-.1-.21-.1-.33,0-.25,.1-.45,.3-.59,.13-.09,.27-.14,.41-.14m0-2c-.55,0-1.09,.17-1.56,.5-.73,.51-1.15,1.32-1.15,2.22,0,.5,.14,.99,.42,1.41,.32,.5,.8,.86,1.36,1.03,.93,.33,1.67,.88,2.25,1.67,.58,.81,.87,1.69,.87,2.71s-.28,1.89-.86,2.69c-.58,.8-1.32,1.35-2.26,1.69-.53,.16-.99,.5-1.31,.95-.3,.43-.46,.94-.46,1.46,0,.88,.38,1.65,1.07,2.19,.48,.37,1.04,.56,1.63,.56,.28,0,.55-.04,.83-.13h.04s.04-.02,.04-.02c1.97-.7,3.59-1.92,4.8-3.63,1.21-1.71,1.82-3.65,1.82-5.77s-.61-4.06-1.82-5.77c-1.21-1.71-2.82-2.93-4.8-3.63-.32-.11-.61-.15-.9-.15h0Z"/></g><g><path d="M17.31,25.15c-.43,0-.83-.17-1.15-.5l-3.02-3.02h-2.48c-.46,0-.87-.17-1.18-.48-.32-.32-.48-.72-.48-1.18v-4c0-.46,.17-.87,.48-1.18s.72-.48,1.18-.48h2.48l3.02-3.02c.32-.32,.72-.5,1.15-.5,.22,0,.43,.04,.65,.13,.65,.26,1.04,.84,1.04,1.54v11.02c0,.7-.39,1.27-1.03,1.54-.21,.09-.43,.13-.65,.13Z"/><path class="cls-1" d="M17.31,11.79c.09,0,.18,.02,.27,.06,.27,.11,.41,.31,.41,.61v11.02c0,.3-.14,.5-.41,.61-.1,.04-.19,.06-.27,.06-.16,0-.31-.07-.45-.2l-3.31-3.31h-2.89c-.19,0-.35-.06-.48-.19-.13-.13-.19-.29-.19-.48v-4c0-.19,.06-.35,.19-.48,.13-.13,.29-.19,.48-.19h2.89l3.31-3.31c.14-.14,.28-.2,.45-.2m0-2c-.69,0-1.35,.28-1.86,.79l-2.73,2.73h-2.06c-.72,0-1.39,.28-1.89,.77-.5,.5-.77,1.17-.77,1.89v4c0,.72,.28,1.39,.77,1.89,.5,.5,1.17,.77,1.89,.77h2.06l2.73,2.73c.51,.51,1.17,.79,1.86,.79,.35,0,.69-.07,1.03-.2,1.02-.42,1.66-1.36,1.66-2.46V12.46c0-1.11-.64-2.05-1.66-2.46-.34-.14-.68-.2-1.03-.2h0Z"/></g><g><path d="M19.28,13.53l.65,.2c.9,.28,1.64,.83,2.19,1.61,.55,.78,.82,1.66,.82,2.62s-.28,1.86-.83,2.63c-.55,.77-1.29,1.3-2.19,1.58l-.65,.21V13.53Z"/><path class="cls-1" d="M19.78,14.22c.8,.25,1.44,.73,1.93,1.42,.49,.7,.73,1.47,.73,2.33s-.24,1.65-.73,2.33c-.49,.68-1.13,1.15-1.93,1.4v-7.49m-1-1.36v10.22l1.3-.41c1.01-.32,1.83-.91,2.45-1.77,.61-.85,.92-1.83,.92-2.92s-.31-2.04-.91-2.91c-.62-.88-1.44-1.48-2.45-1.8l-1.3-.41h0Z"/></g></g></svg>