<?xml version="1.0" encoding="UTF-8"?>
<svg id="Tatreez" xmlns="http://www.w3.org/2000/svg" width="60" height="224" viewBox="0 0 60 224">
    <defs>

<!--        #00A653-->
<!--        #F25824-->
<!--        #6E21A6-->

        <style>
<!--            Hash -->
            .cls-1 {
            fill: #fff;
            }
<!--            Spirals -->
            .cls-2 {
            fill: #00A653;
            }
<!--            Shields & Hats-->
            .cls-3 {
            fill: #6E21A6;
            }
        </style>
    </defs>
    <g id="Spirals">
        <g>
            <rect class="cls-2" x="7" width="2" height="1"/>
            <rect class="cls-2" x="7" y="3" width="1" height="1"/>
            <rect class="cls-2" x="5" y="2" width="1" height="3"/>
            <rect class="cls-2" x="8" y="2" width="2" height="1"/>
            <rect class="cls-2" x="6" y="1" width="1" height="1"/>
            <rect class="cls-2" x="10" y="3" width="1" height="3"/>
            <rect class="cls-2" x="6" y="5" width="2" height="1"/>
            <rect class="cls-2" x="8" y="4" width="1" height="1"/>
            <rect class="cls-2" x="9" y="6" width="1" height="1"/>
        </g>
        <g>
            <rect class="cls-2" x="7" y="7" width="2" height="1"/>
            <rect class="cls-2" x="7" y="10" width="1" height="1"/>
            <rect class="cls-2" x="5" y="9" width="1" height="3"/>
            <rect class="cls-2" x="8" y="9" width="2" height="1"/>
            <rect class="cls-2" x="6" y="8" width="1" height="1"/>
            <rect class="cls-2" x="10" y="10" width="1" height="3"/>
            <rect class="cls-2" x="6" y="12" width="2" height="1"/>
            <rect class="cls-2" x="8" y="11" width="1" height="1"/>
            <rect class="cls-2" x="9" y="13" width="1" height="1"/>
        </g>
        <g>
            <rect class="cls-2" x="7" y="14" width="2" height="1"/>
            <rect class="cls-2" x="7" y="17" width="1" height="1"/>
            <rect class="cls-2" x="5" y="16" width="1" height="3"/>
            <rect class="cls-2" x="8" y="16" width="2" height="1"/>
            <rect class="cls-2" x="6" y="15" width="1" height="1"/>
            <rect class="cls-2" x="10" y="17" width="1" height="3"/>
            <rect class="cls-2" x="6" y="19" width="2" height="1"/>
            <rect class="cls-2" x="8" y="18" width="1" height="1"/>
            <rect class="cls-2" x="9" y="20" width="1" height="1"/>
        </g>
        <g>
            <rect class="cls-2" x="7" y="21" width="2" height="1"/>
            <rect class="cls-2" x="7" y="24" width="1" height="1"/>
            <rect class="cls-2" x="5" y="23" width="1" height="3"/>
            <rect class="cls-2" x="8" y="23" width="2" height="1"/>
            <rect class="cls-2" x="6" y="22" width="1" height="1"/>
            <rect class="cls-2" x="10" y="24" width="1" height="3"/>
            <rect class="cls-2" x="6" y="26" width="2" height="1"/>
            <rect class="cls-2" x="8" y="25" width="1" height="1"/>
            <rect class="cls-2" x="9" y="27" width="1" height="1"/>
        </g>
        <g>
            <rect class="cls-2" x="7" y="28" width="2" height="1"/>
            <rect class="cls-2" x="7" y="31" width="1" height="1"/>
            <rect class="cls-2" x="5" y="30" width="1" height="3"/>
            <rect class="cls-2" x="8" y="30" width="2" height="1"/>
            <rect class="cls-2" x="6" y="29" width="1" height="1"/>
            <rect class="cls-2" x="10" y="31" width="1" height="3"/>
            <rect class="cls-2" x="6" y="33" width="2" height="1"/>
            <rect class="cls-2" x="8" y="32" width="1" height="1"/>
            <rect class="cls-2" x="9" y="34" width="1" height="1"/>
        </g>
        <g>
            <rect class="cls-2" x="7" y="35" width="2" height="1"/>
            <rect class="cls-2" x="7" y="38" width="1" height="1"/>
            <rect class="cls-2" x="5" y="37" width="1" height="3"/>
            <rect class="cls-2" x="8" y="37" width="2" height="1"/>
            <rect class="cls-2" x="6" y="36" width="1" height="1"/>
            <rect class="cls-2" x="10" y="38" width="1" height="3"/>
            <rect class="cls-2" x="6" y="40" width="2" height="1"/>
            <rect class="cls-2" x="8" y="39" width="1" height="1"/>
            <rect class="cls-2" x="9" y="41" width="1" height="1"/>
        </g>
        <g>
            <rect class="cls-2" x="7" y="42" width="2" height="1"/>
            <rect class="cls-2" x="7" y="45" width="1" height="1"/>
            <rect class="cls-2" x="5" y="44" width="1" height="3"/>
            <rect class="cls-2" x="8" y="44" width="2" height="1"/>
            <rect class="cls-2" x="6" y="43" width="1" height="1"/>
            <rect class="cls-2" x="10" y="45" width="1" height="3"/>
            <rect class="cls-2" x="6" y="47" width="2" height="1"/>
            <rect class="cls-2" x="8" y="46" width="1" height="1"/>
            <rect class="cls-2" x="9" y="48" width="1" height="1"/>
        </g>
        <g>
            <rect class="cls-2" x="7" y="49" width="2" height="1"/>
            <rect class="cls-2" x="7" y="52" width="1" height="1"/>
            <rect class="cls-2" x="5" y="51" width="1" height="3"/>
            <rect class="cls-2" x="8" y="51" width="2" height="1"/>
            <rect class="cls-2" x="6" y="50" width="1" height="1"/>
            <rect class="cls-2" x="10" y="52" width="1" height="3"/>
            <rect class="cls-2" x="6" y="54" width="2" height="1"/>
            <rect class="cls-2" x="8" y="53" width="1" height="1"/>
            <rect class="cls-2" x="9" y="55" width="1" height="1"/>
        </g>
        <g>
            <rect class="cls-2" x="7" y="56" width="2" height="1"/>
            <rect class="cls-2" x="7" y="59" width="1" height="1"/>
            <rect class="cls-2" x="5" y="58" width="1" height="3"/>
            <rect class="cls-2" x="8" y="58" width="2" height="1"/>
            <rect class="cls-2" x="6" y="57" width="1" height="1"/>
            <rect class="cls-2" x="10" y="59" width="1" height="3"/>
            <rect class="cls-2" x="6" y="61" width="2" height="1"/>
            <rect class="cls-2" x="8" y="60" width="1" height="1"/>
            <rect class="cls-2" x="9" y="62" width="1" height="1"/>
        </g>
        <g>
            <rect class="cls-2" x="7" y="63" width="2" height="1"/>
            <rect class="cls-2" x="7" y="66" width="1" height="1"/>
            <rect class="cls-2" x="5" y="65" width="1" height="3"/>
            <rect class="cls-2" x="8" y="65" width="2" height="1"/>
            <rect class="cls-2" x="6" y="64" width="1" height="1"/>
            <rect class="cls-2" x="10" y="66" width="1" height="3"/>
            <rect class="cls-2" x="6" y="68" width="2" height="1"/>
            <rect class="cls-2" x="8" y="67" width="1" height="1"/>
            <rect class="cls-2" x="9" y="69" width="1" height="1"/>
        </g>
        <g>
            <rect class="cls-2" x="7" y="70" width="2" height="1"/>
            <rect class="cls-2" x="7" y="73" width="1" height="1"/>
            <rect class="cls-2" x="5" y="72" width="1" height="3"/>
            <rect class="cls-2" x="8" y="72" width="2" height="1"/>
            <rect class="cls-2" x="6" y="71" width="1" height="1"/>
            <rect class="cls-2" x="10" y="73" width="1" height="3"/>
            <rect class="cls-2" x="6" y="75" width="2" height="1"/>
            <rect class="cls-2" x="8" y="74" width="1" height="1"/>
            <rect class="cls-2" x="9" y="76" width="1" height="1"/>
        </g>
        <g>
            <rect class="cls-2" x="7" y="77" width="2" height="1"/>
            <rect class="cls-2" x="7" y="80" width="1" height="1"/>
            <rect class="cls-2" x="5" y="79" width="1" height="3"/>
            <rect class="cls-2" x="8" y="79" width="2" height="1"/>
            <rect class="cls-2" x="6" y="78" width="1" height="1"/>
            <rect class="cls-2" x="10" y="80" width="1" height="3"/>
            <rect class="cls-2" x="6" y="82" width="2" height="1"/>
            <rect class="cls-2" x="8" y="81" width="1" height="1"/>
            <rect class="cls-2" x="9" y="83" width="1" height="1"/>
        </g>
        <g>
            <rect class="cls-2" x="7" y="84" width="2" height="1"/>
            <rect class="cls-2" x="7" y="87" width="1" height="1"/>
            <rect class="cls-2" x="5" y="86" width="1" height="3"/>
            <rect class="cls-2" x="8" y="86" width="2" height="1"/>
            <rect class="cls-2" x="6" y="85" width="1" height="1"/>
            <rect class="cls-2" x="10" y="87" width="1" height="3"/>
            <rect class="cls-2" x="6" y="89" width="2" height="1"/>
            <rect class="cls-2" x="8" y="88" width="1" height="1"/>
            <rect class="cls-2" x="9" y="90" width="1" height="1"/>
        </g>
        <g>
            <rect class="cls-2" x="7" y="91" width="2" height="1"/>
            <rect class="cls-2" x="7" y="94" width="1" height="1"/>
            <rect class="cls-2" x="5" y="93" width="1" height="3"/>
            <rect class="cls-2" x="8" y="93" width="2" height="1"/>
            <rect class="cls-2" x="6" y="92" width="1" height="1"/>
            <rect class="cls-2" x="10" y="94" width="1" height="3"/>
            <rect class="cls-2" x="6" y="96" width="2" height="1"/>
            <rect class="cls-2" x="8" y="95" width="1" height="1"/>
            <rect class="cls-2" x="9" y="97" width="1" height="1"/>
        </g>
        <g>
            <rect class="cls-2" x="7" y="98" width="2" height="1"/>
            <rect class="cls-2" x="7" y="101" width="1" height="1"/>
            <rect class="cls-2" x="5" y="100" width="1" height="3"/>
            <rect class="cls-2" x="8" y="100" width="2" height="1"/>
            <rect class="cls-2" x="6" y="99" width="1" height="1"/>
            <rect class="cls-2" x="10" y="101" width="1" height="3"/>
            <rect class="cls-2" x="6" y="103" width="2" height="1"/>
            <rect class="cls-2" x="8" y="102" width="1" height="1"/>
            <rect class="cls-2" x="9" y="104" width="1" height="1"/>
        </g>
        <g>
            <rect class="cls-2" x="7" y="105" width="2" height="1"/>
            <rect class="cls-2" x="7" y="108" width="1" height="1"/>
            <rect class="cls-2" x="5" y="107" width="1" height="3"/>
            <rect class="cls-2" x="8" y="107" width="2" height="1"/>
            <rect class="cls-2" x="6" y="106" width="1" height="1"/>
            <rect class="cls-2" x="10" y="108" width="1" height="3"/>
            <rect class="cls-2" x="6" y="110" width="2" height="1"/>
            <rect class="cls-2" x="8" y="109" width="1" height="1"/>
            <rect class="cls-2" x="9" y="111" width="1" height="1"/>
        </g>
        <g>
            <rect class="cls-2" x="7" y="112" width="2" height="1"/>
            <rect class="cls-2" x="7" y="115" width="1" height="1"/>
            <rect class="cls-2" x="5" y="114" width="1" height="3"/>
            <rect class="cls-2" x="8" y="114" width="2" height="1"/>
            <rect class="cls-2" x="6" y="113" width="1" height="1"/>
            <rect class="cls-2" x="10" y="115" width="1" height="3"/>
            <rect class="cls-2" x="6" y="117" width="2" height="1"/>
            <rect class="cls-2" x="8" y="116" width="1" height="1"/>
            <rect class="cls-2" x="9" y="118" width="1" height="1"/>
        </g>
        <g>
            <rect class="cls-2" x="7" y="119" width="2" height="1"/>
            <rect class="cls-2" x="7" y="122" width="1" height="1"/>
            <rect class="cls-2" x="5" y="121" width="1" height="3"/>
            <rect class="cls-2" x="8" y="121" width="2" height="1"/>
            <rect class="cls-2" x="6" y="120" width="1" height="1"/>
            <rect class="cls-2" x="10" y="122" width="1" height="3"/>
            <rect class="cls-2" x="6" y="124" width="2" height="1"/>
            <rect class="cls-2" x="8" y="123" width="1" height="1"/>
            <rect class="cls-2" x="9" y="125" width="1" height="1"/>
        </g>
        <g>
            <rect class="cls-2" x="7" y="126" width="2" height="1"/>
            <rect class="cls-2" x="7" y="129" width="1" height="1"/>
            <rect class="cls-2" x="5" y="128" width="1" height="3"/>
            <rect class="cls-2" x="8" y="128" width="2" height="1"/>
            <rect class="cls-2" x="6" y="127" width="1" height="1"/>
            <rect class="cls-2" x="10" y="129" width="1" height="3"/>
            <rect class="cls-2" x="6" y="131" width="2" height="1"/>
            <rect class="cls-2" x="8" y="130" width="1" height="1"/>
            <rect class="cls-2" x="9" y="132" width="1" height="1"/>
        </g>
        <g>
            <rect class="cls-2" x="7" y="133" width="2" height="1"/>
            <rect class="cls-2" x="7" y="136" width="1" height="1"/>
            <rect class="cls-2" x="5" y="135" width="1" height="3"/>
            <rect class="cls-2" x="8" y="135" width="2" height="1"/>
            <rect class="cls-2" x="6" y="134" width="1" height="1"/>
            <rect class="cls-2" x="10" y="136" width="1" height="3"/>
            <rect class="cls-2" x="6" y="138" width="2" height="1"/>
            <rect class="cls-2" x="8" y="137" width="1" height="1"/>
            <rect class="cls-2" x="9" y="139" width="1" height="1"/>
        </g>
        <g>
            <rect class="cls-2" x="7" y="140" width="2" height="1"/>
            <rect class="cls-2" x="7" y="143" width="1" height="1"/>
            <rect class="cls-2" x="5" y="142" width="1" height="3"/>
            <rect class="cls-2" x="8" y="142" width="2" height="1"/>
            <rect class="cls-2" x="6" y="141" width="1" height="1"/>
            <rect class="cls-2" x="10" y="143" width="1" height="3"/>
            <rect class="cls-2" x="6" y="145" width="2" height="1"/>
            <rect class="cls-2" x="8" y="144" width="1" height="1"/>
            <rect class="cls-2" x="9" y="146" width="1" height="1"/>
        </g>
        <g>
            <rect class="cls-2" x="7" y="147" width="2" height="1"/>
            <rect class="cls-2" x="7" y="150" width="1" height="1"/>
            <rect class="cls-2" x="5" y="149" width="1" height="3"/>
            <rect class="cls-2" x="8" y="149" width="2" height="1"/>
            <rect class="cls-2" x="6" y="148" width="1" height="1"/>
            <rect class="cls-2" x="10" y="150" width="1" height="3"/>
            <rect class="cls-2" x="6" y="152" width="2" height="1"/>
            <rect class="cls-2" x="8" y="151" width="1" height="1"/>
            <rect class="cls-2" x="9" y="153" width="1" height="1"/>
        </g>
        <g>
            <rect class="cls-2" x="7" y="154" width="2" height="1"/>
            <rect class="cls-2" x="7" y="157" width="1" height="1"/>
            <rect class="cls-2" x="5" y="156" width="1" height="3"/>
            <rect class="cls-2" x="8" y="156" width="2" height="1"/>
            <rect class="cls-2" x="6" y="155" width="1" height="1"/>
            <rect class="cls-2" x="10" y="157" width="1" height="3"/>
            <rect class="cls-2" x="6" y="159" width="2" height="1"/>
            <rect class="cls-2" x="8" y="158" width="1" height="1"/>
            <rect class="cls-2" x="9" y="160" width="1" height="1"/>
        </g>
        <g>
            <rect class="cls-2" x="7" y="161" width="2" height="1"/>
            <rect class="cls-2" x="7" y="164" width="1" height="1"/>
            <rect class="cls-2" x="5" y="163" width="1" height="3"/>
            <rect class="cls-2" x="8" y="163" width="2" height="1"/>
            <rect class="cls-2" x="6" y="162" width="1" height="1"/>
            <rect class="cls-2" x="10" y="164" width="1" height="3"/>
            <rect class="cls-2" x="6" y="166" width="2" height="1"/>
            <rect class="cls-2" x="8" y="165" width="1" height="1"/>
            <rect class="cls-2" x="9" y="167" width="1" height="1"/>
        </g>
        <g>
            <rect class="cls-2" x="7" y="168" width="2" height="1"/>
            <rect class="cls-2" x="7" y="171" width="1" height="1"/>
            <rect class="cls-2" x="5" y="170" width="1" height="3"/>
            <rect class="cls-2" x="8" y="170" width="2" height="1"/>
            <rect class="cls-2" x="6" y="169" width="1" height="1"/>
            <rect class="cls-2" x="10" y="171" width="1" height="3"/>
            <rect class="cls-2" x="6" y="173" width="2" height="1"/>
            <rect class="cls-2" x="8" y="172" width="1" height="1"/>
            <rect class="cls-2" x="9" y="174" width="1" height="1"/>
        </g>
        <g>
            <rect class="cls-2" x="7" y="175" width="2" height="1"/>
            <rect class="cls-2" x="7" y="178" width="1" height="1"/>
            <rect class="cls-2" x="5" y="177" width="1" height="3"/>
            <rect class="cls-2" x="8" y="177" width="2" height="1"/>
            <rect class="cls-2" x="6" y="176" width="1" height="1"/>
            <rect class="cls-2" x="10" y="178" width="1" height="3"/>
            <rect class="cls-2" x="6" y="180" width="2" height="1"/>
            <rect class="cls-2" x="8" y="179" width="1" height="1"/>
            <rect class="cls-2" x="9" y="181" width="1" height="1"/>
        </g>
        <g>
            <rect class="cls-2" x="7" y="182" width="2" height="1"/>
            <rect class="cls-2" x="7" y="185" width="1" height="1"/>
            <rect class="cls-2" x="5" y="184" width="1" height="3"/>
            <rect class="cls-2" x="8" y="184" width="2" height="1"/>
            <rect class="cls-2" x="6" y="183" width="1" height="1"/>
            <rect class="cls-2" x="10" y="185" width="1" height="3"/>
            <rect class="cls-2" x="6" y="187" width="2" height="1"/>
            <rect class="cls-2" x="8" y="186" width="1" height="1"/>
            <rect class="cls-2" x="9" y="188" width="1" height="1"/>
        </g>
        <g>
            <rect class="cls-2" x="7" y="189" width="2" height="1"/>
            <rect class="cls-2" x="7" y="192" width="1" height="1"/>
            <rect class="cls-2" x="5" y="191" width="1" height="3"/>
            <rect class="cls-2" x="8" y="191" width="2" height="1"/>
            <rect class="cls-2" x="6" y="190" width="1" height="1"/>
            <rect class="cls-2" x="10" y="192" width="1" height="3"/>
            <rect class="cls-2" x="6" y="194" width="2" height="1"/>
            <rect class="cls-2" x="8" y="193" width="1" height="1"/>
            <rect class="cls-2" x="9" y="195" width="1" height="1"/>
        </g>
        <g>
            <rect class="cls-2" x="7" y="196" width="2" height="1"/>
            <rect class="cls-2" x="7" y="199" width="1" height="1"/>
            <rect class="cls-2" x="5" y="198" width="1" height="3"/>
            <rect class="cls-2" x="8" y="198" width="2" height="1"/>
            <rect class="cls-2" x="6" y="197" width="1" height="1"/>
            <rect class="cls-2" x="10" y="199" width="1" height="3"/>
            <rect class="cls-2" x="6" y="201" width="2" height="1"/>
            <rect class="cls-2" x="8" y="200" width="1" height="1"/>
            <rect class="cls-2" x="9" y="202" width="1" height="1"/>
        </g>
        <g>
            <rect class="cls-2" x="7" y="203" width="2" height="1"/>
            <rect class="cls-2" x="7" y="206" width="1" height="1"/>
            <rect class="cls-2" x="5" y="205" width="1" height="3"/>
            <rect class="cls-2" x="8" y="205" width="2" height="1"/>
            <rect class="cls-2" x="6" y="204" width="1" height="1"/>
            <rect class="cls-2" x="10" y="206" width="1" height="3"/>
            <rect class="cls-2" x="6" y="208" width="2" height="1"/>
            <rect class="cls-2" x="8" y="207" width="1" height="1"/>
            <rect class="cls-2" x="9" y="209" width="1" height="1"/>
        </g>
        <g>
            <rect class="cls-2" x="7" y="210" width="2" height="1"/>
            <rect class="cls-2" x="7" y="213" width="1" height="1"/>
            <rect class="cls-2" x="5" y="212" width="1" height="3"/>
            <rect class="cls-2" x="8" y="212" width="2" height="1"/>
            <rect class="cls-2" x="6" y="211" width="1" height="1"/>
            <rect class="cls-2" x="10" y="213" width="1" height="3"/>
            <rect class="cls-2" x="6" y="215" width="2" height="1"/>
            <rect class="cls-2" x="8" y="214" width="1" height="1"/>
            <rect class="cls-2" x="9" y="216" width="1" height="1"/>
        </g>
        <g>
            <rect class="cls-2" x="7" y="217" width="2" height="1"/>
            <rect class="cls-2" x="7" y="220" width="1" height="1"/>
            <rect class="cls-2" x="5" y="219" width="1" height="3"/>
            <rect class="cls-2" x="8" y="219" width="2" height="1"/>
            <rect class="cls-2" x="6" y="218" width="1" height="1"/>
            <rect class="cls-2" x="10" y="220" width="1" height="3"/>
            <rect class="cls-2" x="6" y="222" width="2" height="1"/>
            <rect class="cls-2" x="8" y="221" width="1" height="1"/>
            <rect class="cls-2" x="9" y="223" width="1" height="1"/>
        </g>
    </g>
    <g id="Ridges">
        <polygon class="cls-1"
                 points="3 1 3 2 1 2 1 3 3 3 3 4 1 4 1 5 3 5 3 6 1 6 1 7 3 7 3 8 1 8 1 9 3 9 3 10 1 10 1 11 3 11 3 12 1 12 1 13 3 13 3 14 1 14 1 15 3 15 3 16 1 16 1 17 3 17 3 18 1 18 1 19 3 19 3 20 1 20 1 21 3 21 3 22 1 22 1 23 3 23 3 24 1 24 1 25 3 25 3 26 1 26 1 27 3 27 3 28 1 28 1 29 3 29 3 30 1 30 1 31 3 31 3 32 1 32 1 33 3 33 3 34 1 34 1 35 3 35 3 36 1 36 1 37 3 37 3 38 1 38 1 39 3 39 3 40 1 40 1 41 3 41 3 42 1 42 1 43 3 43 3 44 1 44 1 45 3 45 3 46 1 46 1 47 3 47 3 48 1 48 1 49 3 49 3 50 1 50 1 51 3 51 3 52 1 52 1 53 3 53 3 54 1 54 1 55 3 55 3 56 1 56 1 57 3 57 3 58 1 58 1 59 3 59 3 60 1 60 1 61 3 61 3 62 1 62 1 63 3 63 3 64 1 64 1 65 3 65 3 66 1 66 1 67 3 67 3 68 1 68 1 69 3 69 3 70 1 70 1 71 3 71 3 72 1 72 1 73 3 73 3 74 1 74 1 75 3 75 3 76 1 76 1 77 3 77 3 78 1 78 1 79 3 79 3 80 1 80 1 81 3 81 3 82 1 82 1 83 3 83 3 84 1 84 1 85 3 85 3 86 1 86 1 87 3 87 3 88 1 88 1 89 3 89 3 90 1 90 1 91 3 91 3 92 1 92 1 93 3 93 3 94 1 94 1 95 3 95 3 96 1 96 1 97 3 97 3 98 1 98 1 99 3 99 3 100 1 100 1 101 3 101 3 102 1 102 1 103 3 103 3 104 1 104 1 105 3 105 3 106 1 106 1 107 3 107 3 108 1 108 1 109 3 109 3 110 1 110 1 111 3 111 3 112 1 112 1 113 3 113 3 114 1 114 1 115 3 115 3 116 1 116 1 117 3 117 3 118 1 118 1 119 3 119 3 120 1 120 1 121 3 121 3 122 1 122 1 123 3 123 3 124 1 124 1 125 3 125 3 126 1 126 1 127 3 127 3 128 1 128 1 129 3 129 3 130 1 130 1 131 3 131 3 132 1 132 1 133 3 133 3 134 1 134 1 135 3 135 3 136 1 136 1 137 3 137 3 138 1 138 1 139 3 139 3 140 1 140 1 141 3 141 3 142 1 142 1 143 3 143 3 144 1 144 1 145 3 145 3 146 1 146 1 147 3 147 3 148 1 148 1 149 3 149 3 150 1 150 1 151 3 151 3 152 1 152 1 153 3 153 3 154 1 154 1 155 3 155 3 156 1 156 1 157 3 157 3 158 1 158 1 159 3 159 3 160 1 160 1 161 3 161 3 162 1 162 1 163 3 163 3 164 1 164 1 165 3 165 3 166 1 166 1 167 3 167 3 168 1 168 1 169 3 169 3 170 1 170 1 171 3 171 3 172 1 172 1 173 3 173 3 174 1 174 1 175 3 175 3 176 1 176 1 177 3 177 3 178 1 178 1 179 3 179 3 180 1 180 1 181 3 181 3 182 1 182 1 183 3 183 3 184 1 184 1 185 3 185 3 186 1 186 1 187 3 187 3 188 1 188 1 189 3 189 3 190 1 190 1 191 3 191 3 192 1 192 1 193 3 193 3 194 1 194 1 195 3 195 3 196 1 196 1 197 3 197 3 198 1 198 1 199 3 199 3 200 1 200 1 201 3 201 3 202 1 202 1 203 3 203 3 204 1 204 1 205 3 205 3 206 1 206 1 207 3 207 3 208 1 208 1 209 3 209 3 210 1 210 1 211 3 211 3 212 1 212 1 213 3 213 3 214 1 214 1 215 3 215 3 216 1 216 1 217 3 217 3 218 1 218 1 219 3 219 3 220 1 220 1 221 3 221 3 222 1 222 1 223 3 223 3 224 4 224 4 0 1 0 1 1 3 1"/>
        <polygon class="cls-1"
                 points="12 0 12 224 13 224 13 223 15 223 15 222 13 222 13 221 15 221 15 220 13 220 13 219 15 219 15 218 13 218 13 217 15 217 15 216 13 216 13 215 15 215 15 214 13 214 13 213 15 213 15 212 13 212 13 211 15 211 15 210 13 210 13 209 15 209 15 208 13 208 13 207 15 207 15 206 13 206 13 205 15 205 15 204 13 204 13 203 15 203 15 202 13 202 13 201 15 201 15 200 13 200 13 199 15 199 15 198 13 198 13 197 15 197 15 196 13 196 13 195 15 195 15 194 13 194 13 193 15 193 15 192 13 192 13 191 15 191 15 190 13 190 13 189 15 189 15 188 13 188 13 187 15 187 15 186 13 186 13 185 15 185 15 184 13 184 13 183 15 183 15 182 13 182 13 181 15 181 15 180 13 180 13 179 15 179 15 178 13 178 13 177 15 177 15 176 13 176 13 175 15 175 15 174 13 174 13 173 15 173 15 172 13 172 13 171 15 171 15 170 13 170 13 169 15 169 15 168 13 168 13 167 15 167 15 166 13 166 13 165 15 165 15 164 13 164 13 163 15 163 15 162 13 162 13 161 15 161 15 160 13 160 13 159 15 159 15 158 13 158 13 157 15 157 15 156 13 156 13 155 15 155 15 154 13 154 13 153 15 153 15 152 13 152 13 151 15 151 15 150 13 150 13 149 15 149 15 148 13 148 13 147 15 147 15 146 13 146 13 145 15 145 15 144 13 144 13 143 15 143 15 142 13 142 13 141 15 141 15 140 13 140 13 139 15 139 15 138 13 138 13 137 15 137 15 136 13 136 13 135 15 135 15 134 13 134 13 133 15 133 15 132 13 132 13 131 15 131 15 130 13 130 13 129 15 129 15 128 13 128 13 127 15 127 15 126 13 126 13 125 15 125 15 124 13 124 13 123 15 123 15 122 13 122 13 121 15 121 15 120 13 120 13 119 15 119 15 118 13 118 13 117 15 117 15 116 13 116 13 115 15 115 15 114 13 114 13 113 15 113 15 112 13 112 13 111 15 111 15 110 13 110 13 109 15 109 15 108 13 108 13 107 15 107 15 106 13 106 13 105 15 105 15 104 13 104 13 103 15 103 15 102 13 102 13 101 15 101 15 100 13 100 13 99 15 99 15 98 13 98 13 97 15 97 15 96 13 96 13 95 15 95 15 94 13 94 13 93 15 93 15 92 13 92 13 91 15 91 15 90 13 90 13 89 15 89 15 88 13 88 13 87 15 87 15 86 13 86 13 85 15 85 15 84 13 84 13 83 15 83 15 82 13 82 13 81 15 81 15 80 13 80 13 79 15 79 15 78 13 78 13 77 15 77 15 76 13 76 13 75 15 75 15 74 13 74 13 73 15 73 15 72 13 72 13 71 15 71 15 70 13 70 13 69 15 69 15 68 13 68 13 67 15 67 15 66 13 66 13 65 15 65 15 64 13 64 13 63 15 63 15 62 13 62 13 61 15 61 15 60 13 60 13 59 15 59 15 58 13 58 13 57 15 57 15 56 13 56 13 55 15 55 15 54 13 54 13 53 15 53 15 52 13 52 13 51 15 51 15 50 13 50 13 49 15 49 15 48 13 48 13 47 15 47 15 46 13 46 13 45 15 45 15 44 13 44 13 43 15 43 15 42 13 42 13 41 15 41 15 40 13 40 13 39 15 39 15 38 13 38 13 37 15 37 15 36 13 36 13 35 15 35 15 34 13 34 13 33 15 33 15 32 13 32 13 31 15 31 15 30 13 30 13 29 15 29 15 28 13 28 13 27 15 27 15 26 13 26 13 25 15 25 15 24 13 24 13 23 15 23 15 22 13 22 13 21 15 21 15 20 13 20 13 19 15 19 15 18 13 18 13 17 15 17 15 16 13 16 13 15 15 15 15 14 13 14 13 13 15 13 15 12 13 12 13 11 15 11 15 10 13 10 13 9 15 9 15 8 13 8 13 7 15 7 15 6 13 6 13 5 15 5 15 4 13 4 13 3 15 3 15 2 13 2 13 1 15 1 15 0 12 0"/>
    </g>
    <g id="Shields">
        <g>
            <rect class="cls-3" x="31" y="15" width="1" height="1"/>
            <g>
                <rect class="cls-3" x="16" width="2" height="2"/>
                <polygon class="cls-3" points="16 3 16 4 20 4 20 0 19 0 19 2 18 2 18 3 16 3"/>
                <polygon class="cls-3" points="16 5 16 6 22 6 22 0 21 0 21 4 20 4 20 5 16 5"/>
                <polygon class="cls-3" points="16 7 16 8 24 8 24 0 23 0 23 6 22 6 22 7 16 7"/>
                <polygon class="cls-3" points="16 9 16 10 26 10 26 0 25 0 25 8 24 8 24 9 16 9"/>
                <rect class="cls-3" x="28" y="12" width="1" height="1"/>
                <rect class="cls-3" x="29" y="13" width="2" height="2"/>
                <polygon class="cls-3"
                         points="16 11 16 12 17 12 17 13 18 13 18 14 19 14 19 15 27 15 27 12 28 12 28 11 31 11 31 3 30 3 30 2 29 2 29 1 28 1 28 0 27 0 27 11 16 11"/>
            </g>
            <g>
                <rect class="cls-3" x="45" width="2" height="2"/>
                <polygon class="cls-3" points="44 0 43 0 43 4 47 4 47 3 45 3 45 2 44 2 44 0"/>
                <polygon class="cls-3" points="42 0 41 0 41 6 47 6 47 5 43 5 43 4 42 4 42 0"/>
                <polygon class="cls-3" points="40 0 39 0 39 8 47 8 47 7 41 7 41 6 40 6 40 0"/>
                <polygon class="cls-3" points="38 0 37 0 37 10 47 10 47 9 39 9 39 8 38 8 38 0"/>
                <rect class="cls-3" x="34" y="12" width="1" height="1"/>
                <rect class="cls-3" x="32" y="13" width="2" height="2"/>
                <polygon class="cls-3"
                         points="36 0 35 0 35 1 34 1 34 2 33 2 33 3 32 3 32 11 35 11 35 12 36 12 36 15 44 15 44 14 45 14 45 13 46 13 46 12 47 12 47 11 36 11 36 0"/>
            </g>
            <g>
                <rect class="cls-3" x="16" y="29" width="2" height="2"/>
                <polygon class="cls-3" points="19 31 20 31 20 27 16 27 16 28 18 28 18 29 19 29 19 31"/>
                <polygon class="cls-3" points="21 31 22 31 22 25 16 25 16 26 20 26 20 27 21 27 21 31"/>
                <polygon class="cls-3" points="23 31 24 31 24 23 16 23 16 24 22 24 22 25 23 25 23 31"/>
                <polygon class="cls-3" points="25 31 26 31 26 21 16 21 16 22 24 22 24 23 25 23 25 31"/>
                <rect class="cls-3" x="28" y="18" width="1" height="1"/>
                <rect class="cls-3" x="29" y="16" width="2" height="2"/>
                <polygon class="cls-3"
                         points="27 31 28 31 28 30 29 30 29 29 30 29 30 28 31 28 31 20 28 20 28 19 27 19 27 16 19 16 19 17 18 17 18 18 17 18 17 19 16 19 16 20 27 20 27 31"/>
            </g>
            <g>
                <rect class="cls-3" x="45" y="29" width="2" height="2"/>
                <polygon class="cls-3" points="47 28 47 27 43 27 43 31 44 31 44 29 45 29 45 28 47 28"/>
                <polygon class="cls-3" points="47 26 47 25 41 25 41 31 42 31 42 27 43 27 43 26 47 26"/>
                <polygon class="cls-3" points="47 24 47 23 39 23 39 31 40 31 40 25 41 25 41 24 47 24"/>
                <polygon class="cls-3" points="47 22 47 21 37 21 37 31 38 31 38 23 39 23 39 22 47 22"/>
                <rect class="cls-3" x="34" y="18" width="1" height="1"/>
                <rect class="cls-3" x="32" y="16" width="2" height="2"/>
                <polygon class="cls-3"
                         points="47 20 47 19 46 19 46 18 45 18 45 17 44 17 44 16 36 16 36 19 35 19 35 20 32 20 32 28 33 28 33 29 34 29 34 30 35 30 35 31 36 31 36 20 47 20"/>
            </g>
        </g>
        <g>
            <rect class="cls-3" x="31" y="47" width="1" height="1"/>
            <g>
                <rect class="cls-3" x="16" y="32" width="2" height="2"/>
                <polygon class="cls-3" points="16 35 16 36 20 36 20 32 19 32 19 34 18 34 18 35 16 35"/>
                <polygon class="cls-3" points="16 37 16 38 22 38 22 32 21 32 21 36 20 36 20 37 16 37"/>
                <polygon class="cls-3" points="16 39 16 40 24 40 24 32 23 32 23 38 22 38 22 39 16 39"/>
                <polygon class="cls-3" points="16 41 16 42 26 42 26 32 25 32 25 40 24 40 24 41 16 41"/>
                <rect class="cls-3" x="28" y="44" width="1" height="1"/>
                <rect class="cls-3" x="29" y="45" width="2" height="2"/>
                <polygon class="cls-3"
                         points="16 43 16 44 17 44 17 45 18 45 18 46 19 46 19 47 27 47 27 44 28 44 28 43 31 43 31 35 30 35 30 34 29 34 29 33 28 33 28 32 27 32 27 43 16 43"/>
            </g>
            <g>
                <rect class="cls-3" x="45" y="32" width="2" height="2"/>
                <polygon class="cls-3" points="44 32 43 32 43 36 47 36 47 35 45 35 45 34 44 34 44 32"/>
                <polygon class="cls-3" points="42 32 41 32 41 38 47 38 47 37 43 37 43 36 42 36 42 32"/>
                <polygon class="cls-3" points="40 32 39 32 39 40 47 40 47 39 41 39 41 38 40 38 40 32"/>
                <polygon class="cls-3" points="38 32 37 32 37 42 47 42 47 41 39 41 39 40 38 40 38 32"/>
                <rect class="cls-3" x="34" y="44" width="1" height="1"/>
                <rect class="cls-3" x="32" y="45" width="2" height="2"/>
                <polygon class="cls-3"
                         points="36 32 35 32 35 33 34 33 34 34 33 34 33 35 32 35 32 43 35 43 35 44 36 44 36 47 44 47 44 46 45 46 45 45 46 45 46 44 47 44 47 43 36 43 36 32"/>
            </g>
            <g>
                <rect class="cls-3" x="16" y="61" width="2" height="2"/>
                <polygon class="cls-3" points="19 63 20 63 20 59 16 59 16 60 18 60 18 61 19 61 19 63"/>
                <polygon class="cls-3" points="21 63 22 63 22 57 16 57 16 58 20 58 20 59 21 59 21 63"/>
                <polygon class="cls-3" points="23 63 24 63 24 55 16 55 16 56 22 56 22 57 23 57 23 63"/>
                <polygon class="cls-3" points="25 63 26 63 26 53 16 53 16 54 24 54 24 55 25 55 25 63"/>
                <rect class="cls-3" x="28" y="50" width="1" height="1"/>
                <rect class="cls-3" x="29" y="48" width="2" height="2"/>
                <polygon class="cls-3"
                         points="27 63 28 63 28 62 29 62 29 61 30 61 30 60 31 60 31 52 28 52 28 51 27 51 27 48 19 48 19 49 18 49 18 50 17 50 17 51 16 51 16 52 27 52 27 63"/>
            </g>
            <g>
                <rect class="cls-3" x="45" y="61" width="2" height="2"/>
                <polygon class="cls-3" points="47 60 47 59 43 59 43 63 44 63 44 61 45 61 45 60 47 60"/>
                <polygon class="cls-3" points="47 58 47 57 41 57 41 63 42 63 42 59 43 59 43 58 47 58"/>
                <polygon class="cls-3" points="47 56 47 55 39 55 39 63 40 63 40 57 41 57 41 56 47 56"/>
                <polygon class="cls-3" points="47 54 47 53 37 53 37 63 38 63 38 55 39 55 39 54 47 54"/>
                <rect class="cls-3" x="34" y="50" width="1" height="1"/>
                <rect class="cls-3" x="32" y="48" width="2" height="2"/>
                <polygon class="cls-3"
                         points="47 52 47 51 46 51 46 50 45 50 45 49 44 49 44 48 36 48 36 51 35 51 35 52 32 52 32 60 33 60 33 61 34 61 34 62 35 62 35 63 36 63 36 52 47 52"/>
            </g>
        </g>
        <g>
            <rect class="cls-3" x="31" y="79" width="1" height="1"/>
            <g>
                <rect class="cls-3" x="16" y="64" width="2" height="2"/>
                <polygon class="cls-3" points="16 67 16 68 20 68 20 64 19 64 19 66 18 66 18 67 16 67"/>
                <polygon class="cls-3" points="16 69 16 70 22 70 22 64 21 64 21 68 20 68 20 69 16 69"/>
                <polygon class="cls-3" points="16 71 16 72 24 72 24 64 23 64 23 70 22 70 22 71 16 71"/>
                <polygon class="cls-3" points="16 73 16 74 26 74 26 64 25 64 25 72 24 72 24 73 16 73"/>
                <rect class="cls-3" x="28" y="76" width="1" height="1"/>
                <rect class="cls-3" x="29" y="77" width="2" height="2"/>
                <polygon class="cls-3"
                         points="16 75 16 76 17 76 17 77 18 77 18 78 19 78 19 79 27 79 27 76 28 76 28 75 31 75 31 67 30 67 30 66 29 66 29 65 28 65 28 64 27 64 27 75 16 75"/>
            </g>
            <g>
                <rect class="cls-3" x="45" y="64" width="2" height="2"/>
                <polygon class="cls-3" points="44 64 43 64 43 68 47 68 47 67 45 67 45 66 44 66 44 64"/>
                <polygon class="cls-3" points="42 64 41 64 41 70 47 70 47 69 43 69 43 68 42 68 42 64"/>
                <polygon class="cls-3" points="40 64 39 64 39 72 47 72 47 71 41 71 41 70 40 70 40 64"/>
                <polygon class="cls-3" points="38 64 37 64 37 74 47 74 47 73 39 73 39 72 38 72 38 64"/>
                <rect class="cls-3" x="34" y="76" width="1" height="1"/>
                <rect class="cls-3" x="32" y="77" width="2" height="2"/>
                <polygon class="cls-3"
                         points="36 64 35 64 35 65 34 65 34 66 33 66 33 67 32 67 32 75 35 75 35 76 36 76 36 79 44 79 44 78 45 78 45 77 46 77 46 76 47 76 47 75 36 75 36 64"/>
            </g>
            <g>
                <rect class="cls-3" x="16" y="93" width="2" height="2"/>
                <polygon class="cls-3" points="19 95 20 95 20 91 16 91 16 92 18 92 18 93 19 93 19 95"/>
                <polygon class="cls-3" points="21 95 22 95 22 89 16 89 16 90 20 90 20 91 21 91 21 95"/>
                <polygon class="cls-3" points="23 95 24 95 24 87 16 87 16 88 22 88 22 89 23 89 23 95"/>
                <polygon class="cls-3" points="25 95 26 95 26 85 16 85 16 86 24 86 24 87 25 87 25 95"/>
                <rect class="cls-3" x="28" y="82" width="1" height="1"/>
                <rect class="cls-3" x="29" y="80" width="2" height="2"/>
                <polygon class="cls-3"
                         points="27 95 28 95 28 94 29 94 29 93 30 93 30 92 31 92 31 84 28 84 28 83 27 83 27 80 19 80 19 81 18 81 18 82 17 82 17 83 16 83 16 84 27 84 27 95"/>
            </g>
            <g>
                <rect class="cls-3" x="45" y="93" width="2" height="2"/>
                <polygon class="cls-3" points="47 92 47 91 43 91 43 95 44 95 44 93 45 93 45 92 47 92"/>
                <polygon class="cls-3" points="47 90 47 89 41 89 41 95 42 95 42 91 43 91 43 90 47 90"/>
                <polygon class="cls-3" points="47 88 47 87 39 87 39 95 40 95 40 89 41 89 41 88 47 88"/>
                <polygon class="cls-3" points="47 86 47 85 37 85 37 95 38 95 38 87 39 87 39 86 47 86"/>
                <rect class="cls-3" x="34" y="82" width="1" height="1"/>
                <rect class="cls-3" x="32" y="80" width="2" height="2"/>
                <polygon class="cls-3"
                         points="47 84 47 83 46 83 46 82 45 82 45 81 44 81 44 80 36 80 36 83 35 83 35 84 32 84 32 92 33 92 33 93 34 93 34 94 35 94 35 95 36 95 36 84 47 84"/>
            </g>
        </g>
        <g>
            <rect class="cls-3" x="31" y="111" width="1" height="1"/>
            <g>
                <rect class="cls-3" x="16" y="96" width="2" height="2"/>
                <polygon class="cls-3" points="16 99 16 100 20 100 20 96 19 96 19 98 18 98 18 99 16 99"/>
                <polygon class="cls-3" points="16 101 16 102 22 102 22 96 21 96 21 100 20 100 20 101 16 101"/>
                <polygon class="cls-3" points="16 103 16 104 24 104 24 96 23 96 23 102 22 102 22 103 16 103"/>
                <polygon class="cls-3" points="16 105 16 106 26 106 26 96 25 96 25 104 24 104 24 105 16 105"/>
                <rect class="cls-3" x="28" y="108" width="1" height="1"/>
                <rect class="cls-3" x="29" y="109" width="2" height="2"/>
                <polygon class="cls-3"
                         points="16 107 16 108 17 108 17 109 18 109 18 110 19 110 19 111 27 111 27 108 28 108 28 107 31 107 31 99 30 99 30 98 29 98 29 97 28 97 28 96 27 96 27 107 16 107"/>
            </g>
            <g>
                <rect class="cls-3" x="45" y="96" width="2" height="2"/>
                <polygon class="cls-3" points="44 96 43 96 43 100 47 100 47 99 45 99 45 98 44 98 44 96"/>
                <polygon class="cls-3" points="42 96 41 96 41 102 47 102 47 101 43 101 43 100 42 100 42 96"/>
                <polygon class="cls-3" points="40 96 39 96 39 104 47 104 47 103 41 103 41 102 40 102 40 96"/>
                <polygon class="cls-3" points="38 96 37 96 37 106 47 106 47 105 39 105 39 104 38 104 38 96"/>
                <rect class="cls-3" x="34" y="108" width="1" height="1"/>
                <rect class="cls-3" x="32" y="109" width="2" height="2"/>
                <polygon class="cls-3"
                         points="36 96 35 96 35 97 34 97 34 98 33 98 33 99 32 99 32 107 35 107 35 108 36 108 36 111 44 111 44 110 45 110 45 109 46 109 46 108 47 108 47 107 36 107 36 96"/>
            </g>
            <g>
                <rect class="cls-3" x="16" y="125" width="2" height="2"/>
                <polygon class="cls-3" points="19 127 20 127 20 123 16 123 16 124 18 124 18 125 19 125 19 127"/>
                <polygon class="cls-3" points="21 127 22 127 22 121 16 121 16 122 20 122 20 123 21 123 21 127"/>
                <polygon class="cls-3" points="23 127 24 127 24 119 16 119 16 120 22 120 22 121 23 121 23 127"/>
                <polygon class="cls-3" points="25 127 26 127 26 117 16 117 16 118 24 118 24 119 25 119 25 127"/>
                <rect class="cls-3" x="28" y="114" width="1" height="1"/>
                <rect class="cls-3" x="29" y="112" width="2" height="2"/>
                <polygon class="cls-3"
                         points="27 127 28 127 28 126 29 126 29 125 30 125 30 124 31 124 31 116 28 116 28 115 27 115 27 112 19 112 19 113 18 113 18 114 17 114 17 115 16 115 16 116 27 116 27 127"/>
            </g>
            <g>
                <rect class="cls-3" x="45" y="125" width="2" height="2"/>
                <polygon class="cls-3" points="47 124 47 123 43 123 43 127 44 127 44 125 45 125 45 124 47 124"/>
                <polygon class="cls-3" points="47 122 47 121 41 121 41 127 42 127 42 123 43 123 43 122 47 122"/>
                <polygon class="cls-3" points="47 120 47 119 39 119 39 127 40 127 40 121 41 121 41 120 47 120"/>
                <polygon class="cls-3" points="47 118 47 117 37 117 37 127 38 127 38 119 39 119 39 118 47 118"/>
                <rect class="cls-3" x="34" y="114" width="1" height="1"/>
                <rect class="cls-3" x="32" y="112" width="2" height="2"/>
                <polygon class="cls-3"
                         points="47 116 47 115 46 115 46 114 45 114 45 113 44 113 44 112 36 112 36 115 35 115 35 116 32 116 32 124 33 124 33 125 34 125 34 126 35 126 35 127 36 127 36 116 47 116"/>
            </g>
        </g>
        <g>
            <rect class="cls-3" x="31" y="143" width="1" height="1"/>
            <g>
                <rect class="cls-3" x="16" y="128" width="2" height="2"/>
                <polygon class="cls-3" points="16 131 16 132 20 132 20 128 19 128 19 130 18 130 18 131 16 131"/>
                <polygon class="cls-3" points="16 133 16 134 22 134 22 128 21 128 21 132 20 132 20 133 16 133"/>
                <polygon class="cls-3" points="16 135 16 136 24 136 24 128 23 128 23 134 22 134 22 135 16 135"/>
                <polygon class="cls-3" points="16 137 16 138 26 138 26 128 25 128 25 136 24 136 24 137 16 137"/>
                <rect class="cls-3" x="28" y="140" width="1" height="1"/>
                <rect class="cls-3" x="29" y="141" width="2" height="2"/>
                <polygon class="cls-3"
                         points="16 139 16 140 17 140 17 141 18 141 18 142 19 142 19 143 27 143 27 140 28 140 28 139 31 139 31 131 30 131 30 130 29 130 29 129 28 129 28 128 27 128 27 139 16 139"/>
            </g>
            <g>
                <rect class="cls-3" x="45" y="128" width="2" height="2"/>
                <polygon class="cls-3" points="44 128 43 128 43 132 47 132 47 131 45 131 45 130 44 130 44 128"/>
                <polygon class="cls-3" points="42 128 41 128 41 134 47 134 47 133 43 133 43 132 42 132 42 128"/>
                <polygon class="cls-3" points="40 128 39 128 39 136 47 136 47 135 41 135 41 134 40 134 40 128"/>
                <polygon class="cls-3" points="38 128 37 128 37 138 47 138 47 137 39 137 39 136 38 136 38 128"/>
                <rect class="cls-3" x="34" y="140" width="1" height="1"/>
                <rect class="cls-3" x="32" y="141" width="2" height="2"/>
                <polygon class="cls-3"
                         points="36 128 35 128 35 129 34 129 34 130 33 130 33 131 32 131 32 139 35 139 35 140 36 140 36 143 44 143 44 142 45 142 45 141 46 141 46 140 47 140 47 139 36 139 36 128"/>
            </g>
            <g>
                <rect class="cls-3" x="16" y="157" width="2" height="2"/>
                <polygon class="cls-3" points="19 159 20 159 20 155 16 155 16 156 18 156 18 157 19 157 19 159"/>
                <polygon class="cls-3" points="21 159 22 159 22 153 16 153 16 154 20 154 20 155 21 155 21 159"/>
                <polygon class="cls-3" points="23 159 24 159 24 151 16 151 16 152 22 152 22 153 23 153 23 159"/>
                <polygon class="cls-3" points="25 159 26 159 26 149 16 149 16 150 24 150 24 151 25 151 25 159"/>
                <rect class="cls-3" x="28" y="146" width="1" height="1"/>
                <rect class="cls-3" x="29" y="144" width="2" height="2"/>
                <polygon class="cls-3"
                         points="27 159 28 159 28 158 29 158 29 157 30 157 30 156 31 156 31 148 28 148 28 147 27 147 27 144 19 144 19 145 18 145 18 146 17 146 17 147 16 147 16 148 27 148 27 159"/>
            </g>
            <g>
                <rect class="cls-3" x="45" y="157" width="2" height="2"/>
                <polygon class="cls-3" points="47 156 47 155 43 155 43 159 44 159 44 157 45 157 45 156 47 156"/>
                <polygon class="cls-3" points="47 154 47 153 41 153 41 159 42 159 42 155 43 155 43 154 47 154"/>
                <polygon class="cls-3" points="47 152 47 151 39 151 39 159 40 159 40 153 41 153 41 152 47 152"/>
                <polygon class="cls-3" points="47 150 47 149 37 149 37 159 38 159 38 151 39 151 39 150 47 150"/>
                <rect class="cls-3" x="34" y="146" width="1" height="1"/>
                <rect class="cls-3" x="32" y="144" width="2" height="2"/>
                <polygon class="cls-3"
                         points="47 148 47 147 46 147 46 146 45 146 45 145 44 145 44 144 36 144 36 147 35 147 35 148 32 148 32 156 33 156 33 157 34 157 34 158 35 158 35 159 36 159 36 148 47 148"/>
            </g>
        </g>
        <g>
            <rect class="cls-3" x="31" y="175" width="1" height="1"/>
            <g>
                <rect class="cls-3" x="16" y="160" width="2" height="2"/>
                <polygon class="cls-3" points="16 163 16 164 20 164 20 160 19 160 19 162 18 162 18 163 16 163"/>
                <polygon class="cls-3" points="16 165 16 166 22 166 22 160 21 160 21 164 20 164 20 165 16 165"/>
                <polygon class="cls-3" points="16 167 16 168 24 168 24 160 23 160 23 166 22 166 22 167 16 167"/>
                <polygon class="cls-3" points="16 169 16 170 26 170 26 160 25 160 25 168 24 168 24 169 16 169"/>
                <rect class="cls-3" x="28" y="172" width="1" height="1"/>
                <rect class="cls-3" x="29" y="173" width="2" height="2"/>
                <polygon class="cls-3"
                         points="16 171 16 172 17 172 17 173 18 173 18 174 19 174 19 175 27 175 27 172 28 172 28 171 31 171 31 163 30 163 30 162 29 162 29 161 28 161 28 160 27 160 27 171 16 171"/>
            </g>
            <g>
                <rect class="cls-3" x="45" y="160" width="2" height="2"/>
                <polygon class="cls-3" points="44 160 43 160 43 164 47 164 47 163 45 163 45 162 44 162 44 160"/>
                <polygon class="cls-3" points="42 160 41 160 41 166 47 166 47 165 43 165 43 164 42 164 42 160"/>
                <polygon class="cls-3" points="40 160 39 160 39 168 47 168 47 167 41 167 41 166 40 166 40 160"/>
                <polygon class="cls-3" points="38 160 37 160 37 170 47 170 47 169 39 169 39 168 38 168 38 160"/>
                <rect class="cls-3" x="34" y="172" width="1" height="1"/>
                <rect class="cls-3" x="32" y="173" width="2" height="2"/>
                <polygon class="cls-3"
                         points="36 160 35 160 35 161 34 161 34 162 33 162 33 163 32 163 32 171 35 171 35 172 36 172 36 175 44 175 44 174 45 174 45 173 46 173 46 172 47 172 47 171 36 171 36 160"/>
            </g>
            <g>
                <rect class="cls-3" x="16" y="189" width="2" height="2"/>
                <polygon class="cls-3" points="19 191 20 191 20 187 16 187 16 188 18 188 18 189 19 189 19 191"/>
                <polygon class="cls-3" points="21 191 22 191 22 185 16 185 16 186 20 186 20 187 21 187 21 191"/>
                <polygon class="cls-3" points="23 191 24 191 24 183 16 183 16 184 22 184 22 185 23 185 23 191"/>
                <polygon class="cls-3" points="25 191 26 191 26 181 16 181 16 182 24 182 24 183 25 183 25 191"/>
                <rect class="cls-3" x="28" y="178" width="1" height="1"/>
                <rect class="cls-3" x="29" y="176" width="2" height="2"/>
                <polygon class="cls-3"
                         points="27 191 28 191 28 190 29 190 29 189 30 189 30 188 31 188 31 180 28 180 28 179 27 179 27 176 19 176 19 177 18 177 18 178 17 178 17 179 16 179 16 180 27 180 27 191"/>
            </g>
            <g>
                <rect class="cls-3" x="45" y="189" width="2" height="2"/>
                <polygon class="cls-3" points="47 188 47 187 43 187 43 191 44 191 44 189 45 189 45 188 47 188"/>
                <polygon class="cls-3" points="47 186 47 185 41 185 41 191 42 191 42 187 43 187 43 186 47 186"/>
                <polygon class="cls-3" points="47 184 47 183 39 183 39 191 40 191 40 185 41 185 41 184 47 184"/>
                <polygon class="cls-3" points="47 182 47 181 37 181 37 191 38 191 38 183 39 183 39 182 47 182"/>
                <rect class="cls-3" x="34" y="178" width="1" height="1"/>
                <rect class="cls-3" x="32" y="176" width="2" height="2"/>
                <polygon class="cls-3"
                         points="47 180 47 179 46 179 46 178 45 178 45 177 44 177 44 176 36 176 36 179 35 179 35 180 32 180 32 188 33 188 33 189 34 189 34 190 35 190 35 191 36 191 36 180 47 180"/>
            </g>
        </g>
        <g>
            <rect class="cls-3" x="31" y="207" width="1" height="1"/>
            <g>
                <rect class="cls-3" x="16" y="192" width="2" height="2"/>
                <polygon class="cls-3" points="16 195 16 196 20 196 20 192 19 192 19 194 18 194 18 195 16 195"/>
                <polygon class="cls-3" points="16 197 16 198 22 198 22 192 21 192 21 196 20 196 20 197 16 197"/>
                <polygon class="cls-3" points="16 199 16 200 24 200 24 192 23 192 23 198 22 198 22 199 16 199"/>
                <polygon class="cls-3" points="16 201 16 202 26 202 26 192 25 192 25 200 24 200 24 201 16 201"/>
                <rect class="cls-3" x="28" y="204" width="1" height="1"/>
                <rect class="cls-3" x="29" y="205" width="2" height="2"/>
                <polygon class="cls-3"
                         points="16 203 16 204 17 204 17 205 18 205 18 206 19 206 19 207 27 207 27 204 28 204 28 203 31 203 31 195 30 195 30 194 29 194 29 193 28 193 28 192 27 192 27 203 16 203"/>
            </g>
            <g>
                <rect class="cls-3" x="45" y="192" width="2" height="2"/>
                <polygon class="cls-3" points="44 192 43 192 43 196 47 196 47 195 45 195 45 194 44 194 44 192"/>
                <polygon class="cls-3" points="42 192 41 192 41 198 47 198 47 197 43 197 43 196 42 196 42 192"/>
                <polygon class="cls-3" points="40 192 39 192 39 200 47 200 47 199 41 199 41 198 40 198 40 192"/>
                <polygon class="cls-3" points="38 192 37 192 37 202 47 202 47 201 39 201 39 200 38 200 38 192"/>
                <rect class="cls-3" x="34" y="204" width="1" height="1"/>
                <rect class="cls-3" x="32" y="205" width="2" height="2"/>
                <polygon class="cls-3"
                         points="36 192 35 192 35 193 34 193 34 194 33 194 33 195 32 195 32 203 35 203 35 204 36 204 36 207 44 207 44 206 45 206 45 205 46 205 46 204 47 204 47 203 36 203 36 192"/>
            </g>
            <g>
                <rect class="cls-3" x="16" y="221" width="2" height="2"/>
                <polygon class="cls-3" points="19 223 20 223 20 219 16 219 16 220 18 220 18 221 19 221 19 223"/>
                <polygon class="cls-3" points="21 223 22 223 22 217 16 217 16 218 20 218 20 219 21 219 21 223"/>
                <polygon class="cls-3" points="23 223 24 223 24 215 16 215 16 216 22 216 22 217 23 217 23 223"/>
                <polygon class="cls-3" points="25 223 26 223 26 213 16 213 16 214 24 214 24 215 25 215 25 223"/>
                <rect class="cls-3" x="28" y="210" width="1" height="1"/>
                <rect class="cls-3" x="29" y="208" width="2" height="2"/>
                <polygon class="cls-3"
                         points="27 223 28 223 28 222 29 222 29 221 30 221 30 220 31 220 31 212 28 212 28 211 27 211 27 208 19 208 19 209 18 209 18 210 17 210 17 211 16 211 16 212 27 212 27 223"/>
            </g>
            <g>
                <rect class="cls-3" x="45" y="221" width="2" height="2"/>
                <polygon class="cls-3" points="47 220 47 219 43 219 43 223 44 223 44 221 45 221 45 220 47 220"/>
                <polygon class="cls-3" points="47 218 47 217 41 217 41 223 42 223 42 219 43 219 43 218 47 218"/>
                <polygon class="cls-3" points="47 216 47 215 39 215 39 223 40 223 40 217 41 217 41 216 47 216"/>
                <polygon class="cls-3" points="47 214 47 213 37 213 37 223 38 223 38 215 39 215 39 214 47 214"/>
                <rect class="cls-3" x="34" y="210" width="1" height="1"/>
                <rect class="cls-3" x="32" y="208" width="2" height="2"/>
                <polygon class="cls-3"
                         points="47 212 47 211 46 211 46 210 45 210 45 209 44 209 44 208 36 208 36 211 35 211 35 212 32 212 32 220 33 220 33 221 34 221 34 222 35 222 35 223 36 223 36 212 47 212"/>
            </g>
        </g>
    </g>
    <g id="Hats">
        <polygon class="cls-3"
                 points="48 0 48 13 49 13 49 12 50 12 50 11 51 11 51 10 52 10 52 9 53 9 53 8 54 8 54 7 56 7 56 8 57 8 57 9 58 9 58 8 59 8 59 7 60 7 60 6 59 6 59 5 58 5 58 4 57 4 57 5 56 5 56 6 54 6 54 5 53 5 53 4 52 4 52 3 51 3 51 2 50 2 50 1 49 1 49 0 48 0"/>
        <polygon class="cls-3"
                 points="48 14 48 27 49 27 49 26 50 26 50 25 51 25 51 24 52 24 52 23 53 23 53 22 54 22 54 21 56 21 56 22 57 22 57 23 58 23 58 22 59 22 59 21 60 21 60 20 59 20 59 19 58 19 58 18 57 18 57 19 56 19 56 20 54 20 54 19 53 19 53 18 52 18 52 17 51 17 51 16 50 16 50 15 49 15 49 14 48 14"/>
        <polygon class="cls-3"
                 points="48 28 48 41 49 41 49 40 50 40 50 39 51 39 51 38 52 38 52 37 53 37 53 36 54 36 54 35 56 35 56 36 57 36 57 37 58 37 58 36 59 36 59 35 60 35 60 34 59 34 59 33 58 33 58 32 57 32 57 33 56 33 56 34 54 34 54 33 53 33 53 32 52 32 52 31 51 31 51 30 50 30 50 29 49 29 49 28 48 28"/>
        <polygon class="cls-3"
                 points="48 42 48 55 49 55 49 54 50 54 50 53 51 53 51 52 52 52 52 51 53 51 53 50 54 50 54 49 56 49 56 50 57 50 57 51 58 51 58 50 59 50 59 49 60 49 60 48 59 48 59 47 58 47 58 46 57 46 57 47 56 47 56 48 54 48 54 47 53 47 53 46 52 46 52 45 51 45 51 44 50 44 50 43 49 43 49 42 48 42"/>
        <polygon class="cls-3"
                 points="48 56 48 69 49 69 49 68 50 68 50 67 51 67 51 66 52 66 52 65 53 65 53 64 54 64 54 63 56 63 56 64 57 64 57 65 58 65 58 64 59 64 59 63 60 63 60 62 59 62 59 61 58 61 58 60 57 60 57 61 56 61 56 62 54 62 54 61 53 61 53 60 52 60 52 59 51 59 51 58 50 58 50 57 49 57 49 56 48 56"/>
        <polygon class="cls-3"
                 points="48 70 48 83 49 83 49 82 50 82 50 81 51 81 51 80 52 80 52 79 53 79 53 78 54 78 54 77 56 77 56 78 57 78 57 79 58 79 58 78 59 78 59 77 60 77 60 76 59 76 59 75 58 75 58 74 57 74 57 75 56 75 56 76 54 76 54 75 53 75 53 74 52 74 52 73 51 73 51 72 50 72 50 71 49 71 49 70 48 70"/>
        <polygon class="cls-3"
                 points="48 84 48 97 49 97 49 96 50 96 50 95 51 95 51 94 52 94 52 93 53 93 53 92 54 92 54 91 56 91 56 92 57 92 57 93 58 93 58 92 59 92 59 91 60 91 60 90 59 90 59 89 58 89 58 88 57 88 57 89 56 89 56 90 54 90 54 89 53 89 53 88 52 88 52 87 51 87 51 86 50 86 50 85 49 85 49 84 48 84"/>
        <polygon class="cls-3"
                 points="48 98 48 111 49 111 49 110 50 110 50 109 51 109 51 108 52 108 52 107 53 107 53 106 54 106 54 105 56 105 56 106 57 106 57 107 58 107 58 106 59 106 59 105 60 105 60 104 59 104 59 103 58 103 58 102 57 102 57 103 56 103 56 104 54 104 54 103 53 103 53 102 52 102 52 101 51 101 51 100 50 100 50 99 49 99 49 98 48 98"/>
        <polygon class="cls-3"
                 points="48 112 48 125 49 125 49 124 50 124 50 123 51 123 51 122 52 122 52 121 53 121 53 120 54 120 54 119 56 119 56 120 57 120 57 121 58 121 58 120 59 120 59 119 60 119 60 118 59 118 59 117 58 117 58 116 57 116 57 117 56 117 56 118 54 118 54 117 53 117 53 116 52 116 52 115 51 115 51 114 50 114 50 113 49 113 49 112 48 112"/>
        <polygon class="cls-3"
                 points="48 126 48 139 49 139 49 138 50 138 50 137 51 137 51 136 52 136 52 135 53 135 53 134 54 134 54 133 56 133 56 134 57 134 57 135 58 135 58 134 59 134 59 133 60 133 60 132 59 132 59 131 58 131 58 130 57 130 57 131 56 131 56 132 54 132 54 131 53 131 53 130 52 130 52 129 51 129 51 128 50 128 50 127 49 127 49 126 48 126"/>
        <polygon class="cls-3"
                 points="48 140 48 153 49 153 49 152 50 152 50 151 51 151 51 150 52 150 52 149 53 149 53 148 54 148 54 147 56 147 56 148 57 148 57 149 58 149 58 148 59 148 59 147 60 147 60 146 59 146 59 145 58 145 58 144 57 144 57 145 56 145 56 146 54 146 54 145 53 145 53 144 52 144 52 143 51 143 51 142 50 142 50 141 49 141 49 140 48 140"/>
        <polygon class="cls-3"
                 points="48 154 48 167 49 167 49 166 50 166 50 165 51 165 51 164 52 164 52 163 53 163 53 162 54 162 54 161 56 161 56 162 57 162 57 163 58 163 58 162 59 162 59 161 60 161 60 160 59 160 59 159 58 159 58 158 57 158 57 159 56 159 56 160 54 160 54 159 53 159 53 158 52 158 52 157 51 157 51 156 50 156 50 155 49 155 49 154 48 154"/>
        <polygon class="cls-3"
                 points="48 168 48 181 49 181 49 180 50 180 50 179 51 179 51 178 52 178 52 177 53 177 53 176 54 176 54 175 56 175 56 176 57 176 57 177 58 177 58 176 59 176 59 175 60 175 60 174 59 174 59 173 58 173 58 172 57 172 57 173 56 173 56 174 54 174 54 173 53 173 53 172 52 172 52 171 51 171 51 170 50 170 50 169 49 169 49 168 48 168"/>
        <polygon class="cls-3"
                 points="48 182 48 195 49 195 49 194 50 194 50 193 51 193 51 192 52 192 52 191 53 191 53 190 54 190 54 189 56 189 56 190 57 190 57 191 58 191 58 190 59 190 59 189 60 189 60 188 59 188 59 187 58 187 58 186 57 186 57 187 56 187 56 188 54 188 54 187 53 187 53 186 52 186 52 185 51 185 51 184 50 184 50 183 49 183 49 182 48 182"/>
        <polygon class="cls-3"
                 points="48 196 48 209 49 209 49 208 50 208 50 207 51 207 51 206 52 206 52 205 53 205 53 204 54 204 54 203 56 203 56 204 57 204 57 205 58 205 58 204 59 204 59 203 60 203 60 202 59 202 59 201 58 201 58 200 57 200 57 201 56 201 56 202 54 202 54 201 53 201 53 200 52 200 52 199 51 199 51 198 50 198 50 197 49 197 49 196 48 196"/>
        <polygon class="cls-3"
                 points="48 210 48 223 49 223 49 222 50 222 50 221 51 221 51 220 52 220 52 219 53 219 53 218 54 218 54 217 56 217 56 218 57 218 57 219 58 219 58 218 59 218 59 217 60 217 60 216 59 216 59 215 58 215 58 214 57 214 57 215 56 215 56 216 54 216 54 215 53 215 53 214 52 214 52 213 51 213 51 212 50 212 50 211 49 211 49 210 48 210"/>
    </g>
</svg>
