<svg xmlns="http://www.w3.org/2000/svg" version="1.1"
     viewBox="0 0 800 800" opacity="1">
    <g stroke-width="2" stroke="#5435B0" fill="none" stroke-linecap="round"
       transform="matrix(1,0,0,1,-5,6.00823974609375)">
        <path
            d="M10,10C26.435185185185183,20,53.93518518518518,66.33333333333333,88.88888888888889,58C123.84259259259258,49.666666666666664,140.74074074074073,-22.083333333333336,177.77777777777777,-30C214.8148148148148,-37.916666666666664,229.6296296296296,25,266.66666666666663,20C303.7037037037037,15,318.5185185185185,-55.25,355.55555555555554,-54C392.5925925925926,-52.75,407.40740740740745,18.083333333333336,444.44444444444446,26C481.48148148148147,33.916666666666664,496.29629629629625,-23.083333333333336,533.3333333333333,-16C570.3703703703703,-8.916666666666666,585.1851851851851,58.541666666666664,622.2222222222222,60C659.2592592592592,61.458333333333336,674.074074074074,-13.583333333333332,711.1111111111111,-9C748.1481481481482,-4.416666666666667,781.4814814814815,63.04166666666667,800,82"></path>
        <path
            d="M10,10C26.435185185185183,20,53.93518518518518,66.33333333333333,88.88888888888889,58C123.84259259259258,49.666666666666664,140.74074074074073,-22.083333333333336,177.77777777777777,-30C214.8148148148148,-37.916666666666664,229.6296296296296,25,266.66666666666663,20C303.7037037037037,15,318.5185185185185,-55.25,355.55555555555554,-54C392.5925925925926,-52.75,407.40740740740745,18.083333333333336,444.44444444444446,26C481.48148148148147,33.916666666666664,496.29629629629625,-23.083333333333336,533.3333333333333,-16C570.3703703703703,-8.916666666666666,585.1851851851851,58.541666666666664,622.2222222222222,60C659.2592592592592,61.458333333333336,674.074074074074,-13.583333333333332,711.1111111111111,-9C748.1481481481482,-4.416666666666667,781.4814814814815,63.04166666666667,800,82"
            transform="matrix(1,0,0,1,0,760)"></path>
        <path
            d="M10,10C26.435185185185183,20,53.93518518518518,66.33333333333333,88.88888888888889,58C123.84259259259258,49.666666666666664,140.74074074074073,-22.083333333333336,177.77777777777777,-30C214.8148148148148,-37.916666666666664,229.6296296296296,25,266.66666666666663,20C303.7037037037037,15,318.5185185185185,-55.25,355.55555555555554,-54C392.5925925925926,-52.75,407.40740740740745,18.083333333333336,444.44444444444446,26C481.48148148148147,33.916666666666664,496.29629629629625,-23.083333333333336,533.3333333333333,-16C570.3703703703703,-8.916666666666666,585.1851851851851,58.541666666666664,622.2222222222222,60C659.2592592592592,61.458333333333336,674.074074074074,-13.583333333333332,711.1111111111111,-9C748.1481481481482,-4.416666666666667,781.4814814814815,63.04166666666667,800,82"
            transform="matrix(1,0,0,1,0,750)"></path>
        <path
            d="M10,10C26.435185185185183,20,53.93518518518518,66.33333333333333,88.88888888888889,58C123.84259259259258,49.666666666666664,140.74074074074073,-22.083333333333336,177.77777777777777,-30C214.8148148148148,-37.916666666666664,229.6296296296296,25,266.66666666666663,20C303.7037037037037,15,318.5185185185185,-55.25,355.55555555555554,-54C392.5925925925926,-52.75,407.40740740740745,18.083333333333336,444.44444444444446,26C481.48148148148147,33.916666666666664,496.29629629629625,-23.083333333333336,533.3333333333333,-16C570.3703703703703,-8.916666666666666,585.1851851851851,58.541666666666664,622.2222222222222,60C659.2592592592592,61.458333333333336,674.074074074074,-13.583333333333332,711.1111111111111,-9C748.1481481481482,-4.416666666666667,781.4814814814815,63.04166666666667,800,82"
            transform="matrix(1,0,0,1,0,740)"></path>
        <path
            d="M10,10C26.435185185185183,20,53.93518518518518,66.33333333333333,88.88888888888889,58C123.84259259259258,49.666666666666664,140.74074074074073,-22.083333333333336,177.77777777777777,-30C214.8148148148148,-37.916666666666664,229.6296296296296,25,266.66666666666663,20C303.7037037037037,15,318.5185185185185,-55.25,355.55555555555554,-54C392.5925925925926,-52.75,407.40740740740745,18.083333333333336,444.44444444444446,26C481.48148148148147,33.916666666666664,496.29629629629625,-23.083333333333336,533.3333333333333,-16C570.3703703703703,-8.916666666666666,585.1851851851851,58.541666666666664,622.2222222222222,60C659.2592592592592,61.458333333333336,674.074074074074,-13.583333333333332,711.1111111111111,-9C748.1481481481482,-4.416666666666667,781.4814814814815,63.04166666666667,800,82"
            transform="matrix(1,0,0,1,0,730)"></path>
        <path
            d="M10,10C26.435185185185183,20,53.93518518518518,66.33333333333333,88.88888888888889,58C123.84259259259258,49.666666666666664,140.74074074074073,-22.083333333333336,177.77777777777777,-30C214.8148148148148,-37.916666666666664,229.6296296296296,25,266.66666666666663,20C303.7037037037037,15,318.5185185185185,-55.25,355.55555555555554,-54C392.5925925925926,-52.75,407.40740740740745,18.083333333333336,444.44444444444446,26C481.48148148148147,33.916666666666664,496.29629629629625,-23.083333333333336,533.3333333333333,-16C570.3703703703703,-8.916666666666666,585.1851851851851,58.541666666666664,622.2222222222222,60C659.2592592592592,61.458333333333336,674.074074074074,-13.583333333333332,711.1111111111111,-9C748.1481481481482,-4.416666666666667,781.4814814814815,63.04166666666667,800,82"
            transform="matrix(1,0,0,1,0,720)"></path>
        <path
            d="M10,10C26.435185185185183,20,53.93518518518518,66.33333333333333,88.88888888888889,58C123.84259259259258,49.666666666666664,140.74074074074073,-22.083333333333336,177.77777777777777,-30C214.8148148148148,-37.916666666666664,229.6296296296296,25,266.66666666666663,20C303.7037037037037,15,318.5185185185185,-55.25,355.55555555555554,-54C392.5925925925926,-52.75,407.40740740740745,18.083333333333336,444.44444444444446,26C481.48148148148147,33.916666666666664,496.29629629629625,-23.083333333333336,533.3333333333333,-16C570.3703703703703,-8.916666666666666,585.1851851851851,58.541666666666664,622.2222222222222,60C659.2592592592592,61.458333333333336,674.074074074074,-13.583333333333332,711.1111111111111,-9C748.1481481481482,-4.416666666666667,781.4814814814815,63.04166666666667,800,82"
            transform="matrix(1,0,0,1,0,710)"></path>
        <path
            d="M10,10C26.435185185185183,20,53.93518518518518,66.33333333333333,88.88888888888889,58C123.84259259259258,49.666666666666664,140.74074074074073,-22.083333333333336,177.77777777777777,-30C214.8148148148148,-37.916666666666664,229.6296296296296,25,266.66666666666663,20C303.7037037037037,15,318.5185185185185,-55.25,355.55555555555554,-54C392.5925925925926,-52.75,407.40740740740745,18.083333333333336,444.44444444444446,26C481.48148148148147,33.916666666666664,496.29629629629625,-23.083333333333336,533.3333333333333,-16C570.3703703703703,-8.916666666666666,585.1851851851851,58.541666666666664,622.2222222222222,60C659.2592592592592,61.458333333333336,674.074074074074,-13.583333333333332,711.1111111111111,-9C748.1481481481482,-4.416666666666667,781.4814814814815,63.04166666666667,800,82"
            transform="matrix(1,0,0,1,0,700)"></path>
        <path
            d="M10,10C26.435185185185183,20,53.93518518518518,66.33333333333333,88.88888888888889,58C123.84259259259258,49.666666666666664,140.74074074074073,-22.083333333333336,177.77777777777777,-30C214.8148148148148,-37.916666666666664,229.6296296296296,25,266.66666666666663,20C303.7037037037037,15,318.5185185185185,-55.25,355.55555555555554,-54C392.5925925925926,-52.75,407.40740740740745,18.083333333333336,444.44444444444446,26C481.48148148148147,33.916666666666664,496.29629629629625,-23.083333333333336,533.3333333333333,-16C570.3703703703703,-8.916666666666666,585.1851851851851,58.541666666666664,622.2222222222222,60C659.2592592592592,61.458333333333336,674.074074074074,-13.583333333333332,711.1111111111111,-9C748.1481481481482,-4.416666666666667,781.4814814814815,63.04166666666667,800,82"
            transform="matrix(1,0,0,1,0,690)"></path>
        <path
            d="M10,10C26.435185185185183,20,53.93518518518518,66.33333333333333,88.88888888888889,58C123.84259259259258,49.666666666666664,140.74074074074073,-22.083333333333336,177.77777777777777,-30C214.8148148148148,-37.916666666666664,229.6296296296296,25,266.66666666666663,20C303.7037037037037,15,318.5185185185185,-55.25,355.55555555555554,-54C392.5925925925926,-52.75,407.40740740740745,18.083333333333336,444.44444444444446,26C481.48148148148147,33.916666666666664,496.29629629629625,-23.083333333333336,533.3333333333333,-16C570.3703703703703,-8.916666666666666,585.1851851851851,58.541666666666664,622.2222222222222,60C659.2592592592592,61.458333333333336,674.074074074074,-13.583333333333332,711.1111111111111,-9C748.1481481481482,-4.416666666666667,781.4814814814815,63.04166666666667,800,82"
            transform="matrix(1,0,0,1,0,680)"></path>
        <path
            d="M10,10C26.435185185185183,20,53.93518518518518,66.33333333333333,88.88888888888889,58C123.84259259259258,49.666666666666664,140.74074074074073,-22.083333333333336,177.77777777777777,-30C214.8148148148148,-37.916666666666664,229.6296296296296,25,266.66666666666663,20C303.7037037037037,15,318.5185185185185,-55.25,355.55555555555554,-54C392.5925925925926,-52.75,407.40740740740745,18.083333333333336,444.44444444444446,26C481.48148148148147,33.916666666666664,496.29629629629625,-23.083333333333336,533.3333333333333,-16C570.3703703703703,-8.916666666666666,585.1851851851851,58.541666666666664,622.2222222222222,60C659.2592592592592,61.458333333333336,674.074074074074,-13.583333333333332,711.1111111111111,-9C748.1481481481482,-4.416666666666667,781.4814814814815,63.04166666666667,800,82"
            transform="matrix(1,0,0,1,0,670)"></path>
        <path
            d="M10,10C26.435185185185183,20,53.93518518518518,66.33333333333333,88.88888888888889,58C123.84259259259258,49.666666666666664,140.74074074074073,-22.083333333333336,177.77777777777777,-30C214.8148148148148,-37.916666666666664,229.6296296296296,25,266.66666666666663,20C303.7037037037037,15,318.5185185185185,-55.25,355.55555555555554,-54C392.5925925925926,-52.75,407.40740740740745,18.083333333333336,444.44444444444446,26C481.48148148148147,33.916666666666664,496.29629629629625,-23.083333333333336,533.3333333333333,-16C570.3703703703703,-8.916666666666666,585.1851851851851,58.541666666666664,622.2222222222222,60C659.2592592592592,61.458333333333336,674.074074074074,-13.583333333333332,711.1111111111111,-9C748.1481481481482,-4.416666666666667,781.4814814814815,63.04166666666667,800,82"
            transform="matrix(1,0,0,1,0,660)"></path>
        <path
            d="M10,10C26.435185185185183,20,53.93518518518518,66.33333333333333,88.88888888888889,58C123.84259259259258,49.666666666666664,140.74074074074073,-22.083333333333336,177.77777777777777,-30C214.8148148148148,-37.916666666666664,229.6296296296296,25,266.66666666666663,20C303.7037037037037,15,318.5185185185185,-55.25,355.55555555555554,-54C392.5925925925926,-52.75,407.40740740740745,18.083333333333336,444.44444444444446,26C481.48148148148147,33.916666666666664,496.29629629629625,-23.083333333333336,533.3333333333333,-16C570.3703703703703,-8.916666666666666,585.1851851851851,58.541666666666664,622.2222222222222,60C659.2592592592592,61.458333333333336,674.074074074074,-13.583333333333332,711.1111111111111,-9C748.1481481481482,-4.416666666666667,781.4814814814815,63.04166666666667,800,82"
            transform="matrix(1,0,0,1,0,650)"></path>
        <path
            d="M10,10C26.435185185185183,20,53.93518518518518,66.33333333333333,88.88888888888889,58C123.84259259259258,49.666666666666664,140.74074074074073,-22.083333333333336,177.77777777777777,-30C214.8148148148148,-37.916666666666664,229.6296296296296,25,266.66666666666663,20C303.7037037037037,15,318.5185185185185,-55.25,355.55555555555554,-54C392.5925925925926,-52.75,407.40740740740745,18.083333333333336,444.44444444444446,26C481.48148148148147,33.916666666666664,496.29629629629625,-23.083333333333336,533.3333333333333,-16C570.3703703703703,-8.916666666666666,585.1851851851851,58.541666666666664,622.2222222222222,60C659.2592592592592,61.458333333333336,674.074074074074,-13.583333333333332,711.1111111111111,-9C748.1481481481482,-4.416666666666667,781.4814814814815,63.04166666666667,800,82"
            transform="matrix(1,0,0,1,0,640)"></path>
        <path
            d="M10,10C26.435185185185183,20,53.93518518518518,66.33333333333333,88.88888888888889,58C123.84259259259258,49.666666666666664,140.74074074074073,-22.083333333333336,177.77777777777777,-30C214.8148148148148,-37.916666666666664,229.6296296296296,25,266.66666666666663,20C303.7037037037037,15,318.5185185185185,-55.25,355.55555555555554,-54C392.5925925925926,-52.75,407.40740740740745,18.083333333333336,444.44444444444446,26C481.48148148148147,33.916666666666664,496.29629629629625,-23.083333333333336,533.3333333333333,-16C570.3703703703703,-8.916666666666666,585.1851851851851,58.541666666666664,622.2222222222222,60C659.2592592592592,61.458333333333336,674.074074074074,-13.583333333333332,711.1111111111111,-9C748.1481481481482,-4.416666666666667,781.4814814814815,63.04166666666667,800,82"
            transform="matrix(1,0,0,1,0,630)"></path>
        <path
            d="M10,10C26.435185185185183,20,53.93518518518518,66.33333333333333,88.88888888888889,58C123.84259259259258,49.666666666666664,140.74074074074073,-22.083333333333336,177.77777777777777,-30C214.8148148148148,-37.916666666666664,229.6296296296296,25,266.66666666666663,20C303.7037037037037,15,318.5185185185185,-55.25,355.55555555555554,-54C392.5925925925926,-52.75,407.40740740740745,18.083333333333336,444.44444444444446,26C481.48148148148147,33.916666666666664,496.29629629629625,-23.083333333333336,533.3333333333333,-16C570.3703703703703,-8.916666666666666,585.1851851851851,58.541666666666664,622.2222222222222,60C659.2592592592592,61.458333333333336,674.074074074074,-13.583333333333332,711.1111111111111,-9C748.1481481481482,-4.416666666666667,781.4814814814815,63.04166666666667,800,82"
            transform="matrix(1,0,0,1,0,620)"></path>
        <path
            d="M10,10C26.435185185185183,20,53.93518518518518,66.33333333333333,88.88888888888889,58C123.84259259259258,49.666666666666664,140.74074074074073,-22.083333333333336,177.77777777777777,-30C214.8148148148148,-37.916666666666664,229.6296296296296,25,266.66666666666663,20C303.7037037037037,15,318.5185185185185,-55.25,355.55555555555554,-54C392.5925925925926,-52.75,407.40740740740745,18.083333333333336,444.44444444444446,26C481.48148148148147,33.916666666666664,496.29629629629625,-23.083333333333336,533.3333333333333,-16C570.3703703703703,-8.916666666666666,585.1851851851851,58.541666666666664,622.2222222222222,60C659.2592592592592,61.458333333333336,674.074074074074,-13.583333333333332,711.1111111111111,-9C748.1481481481482,-4.416666666666667,781.4814814814815,63.04166666666667,800,82"
            transform="matrix(1,0,0,1,0,610)"></path>
        <path
            d="M10,10C26.435185185185183,20,53.93518518518518,66.33333333333333,88.88888888888889,58C123.84259259259258,49.666666666666664,140.74074074074073,-22.083333333333336,177.77777777777777,-30C214.8148148148148,-37.916666666666664,229.6296296296296,25,266.66666666666663,20C303.7037037037037,15,318.5185185185185,-55.25,355.55555555555554,-54C392.5925925925926,-52.75,407.40740740740745,18.083333333333336,444.44444444444446,26C481.48148148148147,33.916666666666664,496.29629629629625,-23.083333333333336,533.3333333333333,-16C570.3703703703703,-8.916666666666666,585.1851851851851,58.541666666666664,622.2222222222222,60C659.2592592592592,61.458333333333336,674.074074074074,-13.583333333333332,711.1111111111111,-9C748.1481481481482,-4.416666666666667,781.4814814814815,63.04166666666667,800,82"
            transform="matrix(1,0,0,1,0,600)"></path>
        <path
            d="M10,10C26.435185185185183,20,53.93518518518518,66.33333333333333,88.88888888888889,58C123.84259259259258,49.666666666666664,140.74074074074073,-22.083333333333336,177.77777777777777,-30C214.8148148148148,-37.916666666666664,229.6296296296296,25,266.66666666666663,20C303.7037037037037,15,318.5185185185185,-55.25,355.55555555555554,-54C392.5925925925926,-52.75,407.40740740740745,18.083333333333336,444.44444444444446,26C481.48148148148147,33.916666666666664,496.29629629629625,-23.083333333333336,533.3333333333333,-16C570.3703703703703,-8.916666666666666,585.1851851851851,58.541666666666664,622.2222222222222,60C659.2592592592592,61.458333333333336,674.074074074074,-13.583333333333332,711.1111111111111,-9C748.1481481481482,-4.416666666666667,781.4814814814815,63.04166666666667,800,82"
            transform="matrix(1,0,0,1,0,590)"></path>
        <path
            d="M10,10C26.435185185185183,20,53.93518518518518,66.33333333333333,88.88888888888889,58C123.84259259259258,49.666666666666664,140.74074074074073,-22.083333333333336,177.77777777777777,-30C214.8148148148148,-37.916666666666664,229.6296296296296,25,266.66666666666663,20C303.7037037037037,15,318.5185185185185,-55.25,355.55555555555554,-54C392.5925925925926,-52.75,407.40740740740745,18.083333333333336,444.44444444444446,26C481.48148148148147,33.916666666666664,496.29629629629625,-23.083333333333336,533.3333333333333,-16C570.3703703703703,-8.916666666666666,585.1851851851851,58.541666666666664,622.2222222222222,60C659.2592592592592,61.458333333333336,674.074074074074,-13.583333333333332,711.1111111111111,-9C748.1481481481482,-4.416666666666667,781.4814814814815,63.04166666666667,800,82"
            transform="matrix(1,0,0,1,0,580)"></path>
        <path
            d="M10,10C26.435185185185183,20,53.93518518518518,66.33333333333333,88.88888888888889,58C123.84259259259258,49.666666666666664,140.74074074074073,-22.083333333333336,177.77777777777777,-30C214.8148148148148,-37.916666666666664,229.6296296296296,25,266.66666666666663,20C303.7037037037037,15,318.5185185185185,-55.25,355.55555555555554,-54C392.5925925925926,-52.75,407.40740740740745,18.083333333333336,444.44444444444446,26C481.48148148148147,33.916666666666664,496.29629629629625,-23.083333333333336,533.3333333333333,-16C570.3703703703703,-8.916666666666666,585.1851851851851,58.541666666666664,622.2222222222222,60C659.2592592592592,61.458333333333336,674.074074074074,-13.583333333333332,711.1111111111111,-9C748.1481481481482,-4.416666666666667,781.4814814814815,63.04166666666667,800,82"
            transform="matrix(1,0,0,1,0,570)"></path>
        <path
            d="M10,10C26.435185185185183,20,53.93518518518518,66.33333333333333,88.88888888888889,58C123.84259259259258,49.666666666666664,140.74074074074073,-22.083333333333336,177.77777777777777,-30C214.8148148148148,-37.916666666666664,229.6296296296296,25,266.66666666666663,20C303.7037037037037,15,318.5185185185185,-55.25,355.55555555555554,-54C392.5925925925926,-52.75,407.40740740740745,18.083333333333336,444.44444444444446,26C481.48148148148147,33.916666666666664,496.29629629629625,-23.083333333333336,533.3333333333333,-16C570.3703703703703,-8.916666666666666,585.1851851851851,58.541666666666664,622.2222222222222,60C659.2592592592592,61.458333333333336,674.074074074074,-13.583333333333332,711.1111111111111,-9C748.1481481481482,-4.416666666666667,781.4814814814815,63.04166666666667,800,82"
            transform="matrix(1,0,0,1,0,560)"></path>
        <path
            d="M10,10C26.435185185185183,20,53.93518518518518,66.33333333333333,88.88888888888889,58C123.84259259259258,49.666666666666664,140.74074074074073,-22.083333333333336,177.77777777777777,-30C214.8148148148148,-37.916666666666664,229.6296296296296,25,266.66666666666663,20C303.7037037037037,15,318.5185185185185,-55.25,355.55555555555554,-54C392.5925925925926,-52.75,407.40740740740745,18.083333333333336,444.44444444444446,26C481.48148148148147,33.916666666666664,496.29629629629625,-23.083333333333336,533.3333333333333,-16C570.3703703703703,-8.916666666666666,585.1851851851851,58.541666666666664,622.2222222222222,60C659.2592592592592,61.458333333333336,674.074074074074,-13.583333333333332,711.1111111111111,-9C748.1481481481482,-4.416666666666667,781.4814814814815,63.04166666666667,800,82"
            transform="matrix(1,0,0,1,0,550)"></path>
        <path
            d="M10,10C26.435185185185183,20,53.93518518518518,66.33333333333333,88.88888888888889,58C123.84259259259258,49.666666666666664,140.74074074074073,-22.083333333333336,177.77777777777777,-30C214.8148148148148,-37.916666666666664,229.6296296296296,25,266.66666666666663,20C303.7037037037037,15,318.5185185185185,-55.25,355.55555555555554,-54C392.5925925925926,-52.75,407.40740740740745,18.083333333333336,444.44444444444446,26C481.48148148148147,33.916666666666664,496.29629629629625,-23.083333333333336,533.3333333333333,-16C570.3703703703703,-8.916666666666666,585.1851851851851,58.541666666666664,622.2222222222222,60C659.2592592592592,61.458333333333336,674.074074074074,-13.583333333333332,711.1111111111111,-9C748.1481481481482,-4.416666666666667,781.4814814814815,63.04166666666667,800,82"
            transform="matrix(1,0,0,1,0,540)"></path>
        <path
            d="M10,10C26.435185185185183,20,53.93518518518518,66.33333333333333,88.88888888888889,58C123.84259259259258,49.666666666666664,140.74074074074073,-22.083333333333336,177.77777777777777,-30C214.8148148148148,-37.916666666666664,229.6296296296296,25,266.66666666666663,20C303.7037037037037,15,318.5185185185185,-55.25,355.55555555555554,-54C392.5925925925926,-52.75,407.40740740740745,18.083333333333336,444.44444444444446,26C481.48148148148147,33.916666666666664,496.29629629629625,-23.083333333333336,533.3333333333333,-16C570.3703703703703,-8.916666666666666,585.1851851851851,58.541666666666664,622.2222222222222,60C659.2592592592592,61.458333333333336,674.074074074074,-13.583333333333332,711.1111111111111,-9C748.1481481481482,-4.416666666666667,781.4814814814815,63.04166666666667,800,82"
            transform="matrix(1,0,0,1,0,530)"></path>
        <path
            d="M10,10C26.435185185185183,20,53.93518518518518,66.33333333333333,88.88888888888889,58C123.84259259259258,49.666666666666664,140.74074074074073,-22.083333333333336,177.77777777777777,-30C214.8148148148148,-37.916666666666664,229.6296296296296,25,266.66666666666663,20C303.7037037037037,15,318.5185185185185,-55.25,355.55555555555554,-54C392.5925925925926,-52.75,407.40740740740745,18.083333333333336,444.44444444444446,26C481.48148148148147,33.916666666666664,496.29629629629625,-23.083333333333336,533.3333333333333,-16C570.3703703703703,-8.916666666666666,585.1851851851851,58.541666666666664,622.2222222222222,60C659.2592592592592,61.458333333333336,674.074074074074,-13.583333333333332,711.1111111111111,-9C748.1481481481482,-4.416666666666667,781.4814814814815,63.04166666666667,800,82"
            transform="matrix(1,0,0,1,0,520)"></path>
        <path
            d="M10,10C26.435185185185183,20,53.93518518518518,66.33333333333333,88.88888888888889,58C123.84259259259258,49.666666666666664,140.74074074074073,-22.083333333333336,177.77777777777777,-30C214.8148148148148,-37.916666666666664,229.6296296296296,25,266.66666666666663,20C303.7037037037037,15,318.5185185185185,-55.25,355.55555555555554,-54C392.5925925925926,-52.75,407.40740740740745,18.083333333333336,444.44444444444446,26C481.48148148148147,33.916666666666664,496.29629629629625,-23.083333333333336,533.3333333333333,-16C570.3703703703703,-8.916666666666666,585.1851851851851,58.541666666666664,622.2222222222222,60C659.2592592592592,61.458333333333336,674.074074074074,-13.583333333333332,711.1111111111111,-9C748.1481481481482,-4.416666666666667,781.4814814814815,63.04166666666667,800,82"
            transform="matrix(1,0,0,1,0,510)"></path>
        <path
            d="M10,10C26.435185185185183,20,53.93518518518518,66.33333333333333,88.88888888888889,58C123.84259259259258,49.666666666666664,140.74074074074073,-22.083333333333336,177.77777777777777,-30C214.8148148148148,-37.916666666666664,229.6296296296296,25,266.66666666666663,20C303.7037037037037,15,318.5185185185185,-55.25,355.55555555555554,-54C392.5925925925926,-52.75,407.40740740740745,18.083333333333336,444.44444444444446,26C481.48148148148147,33.916666666666664,496.29629629629625,-23.083333333333336,533.3333333333333,-16C570.3703703703703,-8.916666666666666,585.1851851851851,58.541666666666664,622.2222222222222,60C659.2592592592592,61.458333333333336,674.074074074074,-13.583333333333332,711.1111111111111,-9C748.1481481481482,-4.416666666666667,781.4814814814815,63.04166666666667,800,82"
            transform="matrix(1,0,0,1,0,500)"></path>
        <path
            d="M10,10C26.435185185185183,20,53.93518518518518,66.33333333333333,88.88888888888889,58C123.84259259259258,49.666666666666664,140.74074074074073,-22.083333333333336,177.77777777777777,-30C214.8148148148148,-37.916666666666664,229.6296296296296,25,266.66666666666663,20C303.7037037037037,15,318.5185185185185,-55.25,355.55555555555554,-54C392.5925925925926,-52.75,407.40740740740745,18.083333333333336,444.44444444444446,26C481.48148148148147,33.916666666666664,496.29629629629625,-23.083333333333336,533.3333333333333,-16C570.3703703703703,-8.916666666666666,585.1851851851851,58.541666666666664,622.2222222222222,60C659.2592592592592,61.458333333333336,674.074074074074,-13.583333333333332,711.1111111111111,-9C748.1481481481482,-4.416666666666667,781.4814814814815,63.04166666666667,800,82"
            transform="matrix(1,0,0,1,0,490)"></path>
        <path
            d="M10,10C26.435185185185183,20,53.93518518518518,66.33333333333333,88.88888888888889,58C123.84259259259258,49.666666666666664,140.74074074074073,-22.083333333333336,177.77777777777777,-30C214.8148148148148,-37.916666666666664,229.6296296296296,25,266.66666666666663,20C303.7037037037037,15,318.5185185185185,-55.25,355.55555555555554,-54C392.5925925925926,-52.75,407.40740740740745,18.083333333333336,444.44444444444446,26C481.48148148148147,33.916666666666664,496.29629629629625,-23.083333333333336,533.3333333333333,-16C570.3703703703703,-8.916666666666666,585.1851851851851,58.541666666666664,622.2222222222222,60C659.2592592592592,61.458333333333336,674.074074074074,-13.583333333333332,711.1111111111111,-9C748.1481481481482,-4.416666666666667,781.4814814814815,63.04166666666667,800,82"
            transform="matrix(1,0,0,1,0,480)"></path>
        <path
            d="M10,10C26.435185185185183,20,53.93518518518518,66.33333333333333,88.88888888888889,58C123.84259259259258,49.666666666666664,140.74074074074073,-22.083333333333336,177.77777777777777,-30C214.8148148148148,-37.916666666666664,229.6296296296296,25,266.66666666666663,20C303.7037037037037,15,318.5185185185185,-55.25,355.55555555555554,-54C392.5925925925926,-52.75,407.40740740740745,18.083333333333336,444.44444444444446,26C481.48148148148147,33.916666666666664,496.29629629629625,-23.083333333333336,533.3333333333333,-16C570.3703703703703,-8.916666666666666,585.1851851851851,58.541666666666664,622.2222222222222,60C659.2592592592592,61.458333333333336,674.074074074074,-13.583333333333332,711.1111111111111,-9C748.1481481481482,-4.416666666666667,781.4814814814815,63.04166666666667,800,82"
            transform="matrix(1,0,0,1,0,470)"></path>
        <path
            d="M10,10C26.435185185185183,20,53.93518518518518,66.33333333333333,88.88888888888889,58C123.84259259259258,49.666666666666664,140.74074074074073,-22.083333333333336,177.77777777777777,-30C214.8148148148148,-37.916666666666664,229.6296296296296,25,266.66666666666663,20C303.7037037037037,15,318.5185185185185,-55.25,355.55555555555554,-54C392.5925925925926,-52.75,407.40740740740745,18.083333333333336,444.44444444444446,26C481.48148148148147,33.916666666666664,496.29629629629625,-23.083333333333336,533.3333333333333,-16C570.3703703703703,-8.916666666666666,585.1851851851851,58.541666666666664,622.2222222222222,60C659.2592592592592,61.458333333333336,674.074074074074,-13.583333333333332,711.1111111111111,-9C748.1481481481482,-4.416666666666667,781.4814814814815,63.04166666666667,800,82"
            transform="matrix(1,0,0,1,0,460)"></path>
        <path
            d="M10,10C26.435185185185183,20,53.93518518518518,66.33333333333333,88.88888888888889,58C123.84259259259258,49.666666666666664,140.74074074074073,-22.083333333333336,177.77777777777777,-30C214.8148148148148,-37.916666666666664,229.6296296296296,25,266.66666666666663,20C303.7037037037037,15,318.5185185185185,-55.25,355.55555555555554,-54C392.5925925925926,-52.75,407.40740740740745,18.083333333333336,444.44444444444446,26C481.48148148148147,33.916666666666664,496.29629629629625,-23.083333333333336,533.3333333333333,-16C570.3703703703703,-8.916666666666666,585.1851851851851,58.541666666666664,622.2222222222222,60C659.2592592592592,61.458333333333336,674.074074074074,-13.583333333333332,711.1111111111111,-9C748.1481481481482,-4.416666666666667,781.4814814814815,63.04166666666667,800,82"
            transform="matrix(1,0,0,1,0,450)"></path>
        <path
            d="M10,10C26.435185185185183,20,53.93518518518518,66.33333333333333,88.88888888888889,58C123.84259259259258,49.666666666666664,140.74074074074073,-22.083333333333336,177.77777777777777,-30C214.8148148148148,-37.916666666666664,229.6296296296296,25,266.66666666666663,20C303.7037037037037,15,318.5185185185185,-55.25,355.55555555555554,-54C392.5925925925926,-52.75,407.40740740740745,18.083333333333336,444.44444444444446,26C481.48148148148147,33.916666666666664,496.29629629629625,-23.083333333333336,533.3333333333333,-16C570.3703703703703,-8.916666666666666,585.1851851851851,58.541666666666664,622.2222222222222,60C659.2592592592592,61.458333333333336,674.074074074074,-13.583333333333332,711.1111111111111,-9C748.1481481481482,-4.416666666666667,781.4814814814815,63.04166666666667,800,82"
            transform="matrix(1,0,0,1,0,440)"></path>
        <path
            d="M10,10C26.435185185185183,20,53.93518518518518,66.33333333333333,88.88888888888889,58C123.84259259259258,49.666666666666664,140.74074074074073,-22.083333333333336,177.77777777777777,-30C214.8148148148148,-37.916666666666664,229.6296296296296,25,266.66666666666663,20C303.7037037037037,15,318.5185185185185,-55.25,355.55555555555554,-54C392.5925925925926,-52.75,407.40740740740745,18.083333333333336,444.44444444444446,26C481.48148148148147,33.916666666666664,496.29629629629625,-23.083333333333336,533.3333333333333,-16C570.3703703703703,-8.916666666666666,585.1851851851851,58.541666666666664,622.2222222222222,60C659.2592592592592,61.458333333333336,674.074074074074,-13.583333333333332,711.1111111111111,-9C748.1481481481482,-4.416666666666667,781.4814814814815,63.04166666666667,800,82"
            transform="matrix(1,0,0,1,0,430)"></path>
        <path
            d="M10,10C26.435185185185183,20,53.93518518518518,66.33333333333333,88.88888888888889,58C123.84259259259258,49.666666666666664,140.74074074074073,-22.083333333333336,177.77777777777777,-30C214.8148148148148,-37.916666666666664,229.6296296296296,25,266.66666666666663,20C303.7037037037037,15,318.5185185185185,-55.25,355.55555555555554,-54C392.5925925925926,-52.75,407.40740740740745,18.083333333333336,444.44444444444446,26C481.48148148148147,33.916666666666664,496.29629629629625,-23.083333333333336,533.3333333333333,-16C570.3703703703703,-8.916666666666666,585.1851851851851,58.541666666666664,622.2222222222222,60C659.2592592592592,61.458333333333336,674.074074074074,-13.583333333333332,711.1111111111111,-9C748.1481481481482,-4.416666666666667,781.4814814814815,63.04166666666667,800,82"
            transform="matrix(1,0,0,1,0,420)"></path>
        <path
            d="M10,10C26.435185185185183,20,53.93518518518518,66.33333333333333,88.88888888888889,58C123.84259259259258,49.666666666666664,140.74074074074073,-22.083333333333336,177.77777777777777,-30C214.8148148148148,-37.916666666666664,229.6296296296296,25,266.66666666666663,20C303.7037037037037,15,318.5185185185185,-55.25,355.55555555555554,-54C392.5925925925926,-52.75,407.40740740740745,18.083333333333336,444.44444444444446,26C481.48148148148147,33.916666666666664,496.29629629629625,-23.083333333333336,533.3333333333333,-16C570.3703703703703,-8.916666666666666,585.1851851851851,58.541666666666664,622.2222222222222,60C659.2592592592592,61.458333333333336,674.074074074074,-13.583333333333332,711.1111111111111,-9C748.1481481481482,-4.416666666666667,781.4814814814815,63.04166666666667,800,82"
            transform="matrix(1,0,0,1,0,410)"></path>
        <path
            d="M10,10C26.435185185185183,20,53.93518518518518,66.33333333333333,88.88888888888889,58C123.84259259259258,49.666666666666664,140.74074074074073,-22.083333333333336,177.77777777777777,-30C214.8148148148148,-37.916666666666664,229.6296296296296,25,266.66666666666663,20C303.7037037037037,15,318.5185185185185,-55.25,355.55555555555554,-54C392.5925925925926,-52.75,407.40740740740745,18.083333333333336,444.44444444444446,26C481.48148148148147,33.916666666666664,496.29629629629625,-23.083333333333336,533.3333333333333,-16C570.3703703703703,-8.916666666666666,585.1851851851851,58.541666666666664,622.2222222222222,60C659.2592592592592,61.458333333333336,674.074074074074,-13.583333333333332,711.1111111111111,-9C748.1481481481482,-4.416666666666667,781.4814814814815,63.04166666666667,800,82"
            transform="matrix(1,0,0,1,0,400)"></path>
        <path
            d="M10,10C26.435185185185183,20,53.93518518518518,66.33333333333333,88.88888888888889,58C123.84259259259258,49.666666666666664,140.74074074074073,-22.083333333333336,177.77777777777777,-30C214.8148148148148,-37.916666666666664,229.6296296296296,25,266.66666666666663,20C303.7037037037037,15,318.5185185185185,-55.25,355.55555555555554,-54C392.5925925925926,-52.75,407.40740740740745,18.083333333333336,444.44444444444446,26C481.48148148148147,33.916666666666664,496.29629629629625,-23.083333333333336,533.3333333333333,-16C570.3703703703703,-8.916666666666666,585.1851851851851,58.541666666666664,622.2222222222222,60C659.2592592592592,61.458333333333336,674.074074074074,-13.583333333333332,711.1111111111111,-9C748.1481481481482,-4.416666666666667,781.4814814814815,63.04166666666667,800,82"
            transform="matrix(1,0,0,1,0,390)"></path>
        <path
            d="M10,10C26.435185185185183,20,53.93518518518518,66.33333333333333,88.88888888888889,58C123.84259259259258,49.666666666666664,140.74074074074073,-22.083333333333336,177.77777777777777,-30C214.8148148148148,-37.916666666666664,229.6296296296296,25,266.66666666666663,20C303.7037037037037,15,318.5185185185185,-55.25,355.55555555555554,-54C392.5925925925926,-52.75,407.40740740740745,18.083333333333336,444.44444444444446,26C481.48148148148147,33.916666666666664,496.29629629629625,-23.083333333333336,533.3333333333333,-16C570.3703703703703,-8.916666666666666,585.1851851851851,58.541666666666664,622.2222222222222,60C659.2592592592592,61.458333333333336,674.074074074074,-13.583333333333332,711.1111111111111,-9C748.1481481481482,-4.416666666666667,781.4814814814815,63.04166666666667,800,82"
            transform="matrix(1,0,0,1,0,380)"></path>
        <path
            d="M10,10C26.435185185185183,20,53.93518518518518,66.33333333333333,88.88888888888889,58C123.84259259259258,49.666666666666664,140.74074074074073,-22.083333333333336,177.77777777777777,-30C214.8148148148148,-37.916666666666664,229.6296296296296,25,266.66666666666663,20C303.7037037037037,15,318.5185185185185,-55.25,355.55555555555554,-54C392.5925925925926,-52.75,407.40740740740745,18.083333333333336,444.44444444444446,26C481.48148148148147,33.916666666666664,496.29629629629625,-23.083333333333336,533.3333333333333,-16C570.3703703703703,-8.916666666666666,585.1851851851851,58.541666666666664,622.2222222222222,60C659.2592592592592,61.458333333333336,674.074074074074,-13.583333333333332,711.1111111111111,-9C748.1481481481482,-4.416666666666667,781.4814814814815,63.04166666666667,800,82"
            transform="matrix(1,0,0,1,0,370)"></path>
        <path
            d="M10,10C26.435185185185183,20,53.93518518518518,66.33333333333333,88.88888888888889,58C123.84259259259258,49.666666666666664,140.74074074074073,-22.083333333333336,177.77777777777777,-30C214.8148148148148,-37.916666666666664,229.6296296296296,25,266.66666666666663,20C303.7037037037037,15,318.5185185185185,-55.25,355.55555555555554,-54C392.5925925925926,-52.75,407.40740740740745,18.083333333333336,444.44444444444446,26C481.48148148148147,33.916666666666664,496.29629629629625,-23.083333333333336,533.3333333333333,-16C570.3703703703703,-8.916666666666666,585.1851851851851,58.541666666666664,622.2222222222222,60C659.2592592592592,61.458333333333336,674.074074074074,-13.583333333333332,711.1111111111111,-9C748.1481481481482,-4.416666666666667,781.4814814814815,63.04166666666667,800,82"
            transform="matrix(1,0,0,1,0,360)"></path>
        <path
            d="M10,10C26.435185185185183,20,53.93518518518518,66.33333333333333,88.88888888888889,58C123.84259259259258,49.666666666666664,140.74074074074073,-22.083333333333336,177.77777777777777,-30C214.8148148148148,-37.916666666666664,229.6296296296296,25,266.66666666666663,20C303.7037037037037,15,318.5185185185185,-55.25,355.55555555555554,-54C392.5925925925926,-52.75,407.40740740740745,18.083333333333336,444.44444444444446,26C481.48148148148147,33.916666666666664,496.29629629629625,-23.083333333333336,533.3333333333333,-16C570.3703703703703,-8.916666666666666,585.1851851851851,58.541666666666664,622.2222222222222,60C659.2592592592592,61.458333333333336,674.074074074074,-13.583333333333332,711.1111111111111,-9C748.1481481481482,-4.416666666666667,781.4814814814815,63.04166666666667,800,82"
            transform="matrix(1,0,0,1,0,350)"></path>
        <path
            d="M10,10C26.435185185185183,20,53.93518518518518,66.33333333333333,88.88888888888889,58C123.84259259259258,49.666666666666664,140.74074074074073,-22.083333333333336,177.77777777777777,-30C214.8148148148148,-37.916666666666664,229.6296296296296,25,266.66666666666663,20C303.7037037037037,15,318.5185185185185,-55.25,355.55555555555554,-54C392.5925925925926,-52.75,407.40740740740745,18.083333333333336,444.44444444444446,26C481.48148148148147,33.916666666666664,496.29629629629625,-23.083333333333336,533.3333333333333,-16C570.3703703703703,-8.916666666666666,585.1851851851851,58.541666666666664,622.2222222222222,60C659.2592592592592,61.458333333333336,674.074074074074,-13.583333333333332,711.1111111111111,-9C748.1481481481482,-4.416666666666667,781.4814814814815,63.04166666666667,800,82"
            transform="matrix(1,0,0,1,0,340)"></path>
        <path
            d="M10,10C26.435185185185183,20,53.93518518518518,66.33333333333333,88.88888888888889,58C123.84259259259258,49.666666666666664,140.74074074074073,-22.083333333333336,177.77777777777777,-30C214.8148148148148,-37.916666666666664,229.6296296296296,25,266.66666666666663,20C303.7037037037037,15,318.5185185185185,-55.25,355.55555555555554,-54C392.5925925925926,-52.75,407.40740740740745,18.083333333333336,444.44444444444446,26C481.48148148148147,33.916666666666664,496.29629629629625,-23.083333333333336,533.3333333333333,-16C570.3703703703703,-8.916666666666666,585.1851851851851,58.541666666666664,622.2222222222222,60C659.2592592592592,61.458333333333336,674.074074074074,-13.583333333333332,711.1111111111111,-9C748.1481481481482,-4.416666666666667,781.4814814814815,63.04166666666667,800,82"
            transform="matrix(1,0,0,1,0,330)"></path>
        <path
            d="M10,10C26.435185185185183,20,53.93518518518518,66.33333333333333,88.88888888888889,58C123.84259259259258,49.666666666666664,140.74074074074073,-22.083333333333336,177.77777777777777,-30C214.8148148148148,-37.916666666666664,229.6296296296296,25,266.66666666666663,20C303.7037037037037,15,318.5185185185185,-55.25,355.55555555555554,-54C392.5925925925926,-52.75,407.40740740740745,18.083333333333336,444.44444444444446,26C481.48148148148147,33.916666666666664,496.29629629629625,-23.083333333333336,533.3333333333333,-16C570.3703703703703,-8.916666666666666,585.1851851851851,58.541666666666664,622.2222222222222,60C659.2592592592592,61.458333333333336,674.074074074074,-13.583333333333332,711.1111111111111,-9C748.1481481481482,-4.416666666666667,781.4814814814815,63.04166666666667,800,82"
            transform="matrix(1,0,0,1,0,320)"></path>
        <path
            d="M10,10C26.435185185185183,20,53.93518518518518,66.33333333333333,88.88888888888889,58C123.84259259259258,49.666666666666664,140.74074074074073,-22.083333333333336,177.77777777777777,-30C214.8148148148148,-37.916666666666664,229.6296296296296,25,266.66666666666663,20C303.7037037037037,15,318.5185185185185,-55.25,355.55555555555554,-54C392.5925925925926,-52.75,407.40740740740745,18.083333333333336,444.44444444444446,26C481.48148148148147,33.916666666666664,496.29629629629625,-23.083333333333336,533.3333333333333,-16C570.3703703703703,-8.916666666666666,585.1851851851851,58.541666666666664,622.2222222222222,60C659.2592592592592,61.458333333333336,674.074074074074,-13.583333333333332,711.1111111111111,-9C748.1481481481482,-4.416666666666667,781.4814814814815,63.04166666666667,800,82"
            transform="matrix(1,0,0,1,0,310)"></path>
        <path
            d="M10,10C26.435185185185183,20,53.93518518518518,66.33333333333333,88.88888888888889,58C123.84259259259258,49.666666666666664,140.74074074074073,-22.083333333333336,177.77777777777777,-30C214.8148148148148,-37.916666666666664,229.6296296296296,25,266.66666666666663,20C303.7037037037037,15,318.5185185185185,-55.25,355.55555555555554,-54C392.5925925925926,-52.75,407.40740740740745,18.083333333333336,444.44444444444446,26C481.48148148148147,33.916666666666664,496.29629629629625,-23.083333333333336,533.3333333333333,-16C570.3703703703703,-8.916666666666666,585.1851851851851,58.541666666666664,622.2222222222222,60C659.2592592592592,61.458333333333336,674.074074074074,-13.583333333333332,711.1111111111111,-9C748.1481481481482,-4.416666666666667,781.4814814814815,63.04166666666667,800,82"
            transform="matrix(1,0,0,1,0,300)"></path>
        <path
            d="M10,10C26.435185185185183,20,53.93518518518518,66.33333333333333,88.88888888888889,58C123.84259259259258,49.666666666666664,140.74074074074073,-22.083333333333336,177.77777777777777,-30C214.8148148148148,-37.916666666666664,229.6296296296296,25,266.66666666666663,20C303.7037037037037,15,318.5185185185185,-55.25,355.55555555555554,-54C392.5925925925926,-52.75,407.40740740740745,18.083333333333336,444.44444444444446,26C481.48148148148147,33.916666666666664,496.29629629629625,-23.083333333333336,533.3333333333333,-16C570.3703703703703,-8.916666666666666,585.1851851851851,58.541666666666664,622.2222222222222,60C659.2592592592592,61.458333333333336,674.074074074074,-13.583333333333332,711.1111111111111,-9C748.1481481481482,-4.416666666666667,781.4814814814815,63.04166666666667,800,82"
            transform="matrix(1,0,0,1,0,290)"></path>
        <path
            d="M10,10C26.435185185185183,20,53.93518518518518,66.33333333333333,88.88888888888889,58C123.84259259259258,49.666666666666664,140.74074074074073,-22.083333333333336,177.77777777777777,-30C214.8148148148148,-37.916666666666664,229.6296296296296,25,266.66666666666663,20C303.7037037037037,15,318.5185185185185,-55.25,355.55555555555554,-54C392.5925925925926,-52.75,407.40740740740745,18.083333333333336,444.44444444444446,26C481.48148148148147,33.916666666666664,496.29629629629625,-23.083333333333336,533.3333333333333,-16C570.3703703703703,-8.916666666666666,585.1851851851851,58.541666666666664,622.2222222222222,60C659.2592592592592,61.458333333333336,674.074074074074,-13.583333333333332,711.1111111111111,-9C748.1481481481482,-4.416666666666667,781.4814814814815,63.04166666666667,800,82"
            transform="matrix(1,0,0,1,0,280)"></path>
        <path
            d="M10,10C26.435185185185183,20,53.93518518518518,66.33333333333333,88.88888888888889,58C123.84259259259258,49.666666666666664,140.74074074074073,-22.083333333333336,177.77777777777777,-30C214.8148148148148,-37.916666666666664,229.6296296296296,25,266.66666666666663,20C303.7037037037037,15,318.5185185185185,-55.25,355.55555555555554,-54C392.5925925925926,-52.75,407.40740740740745,18.083333333333336,444.44444444444446,26C481.48148148148147,33.916666666666664,496.29629629629625,-23.083333333333336,533.3333333333333,-16C570.3703703703703,-8.916666666666666,585.1851851851851,58.541666666666664,622.2222222222222,60C659.2592592592592,61.458333333333336,674.074074074074,-13.583333333333332,711.1111111111111,-9C748.1481481481482,-4.416666666666667,781.4814814814815,63.04166666666667,800,82"
            transform="matrix(1,0,0,1,0,270)"></path>
        <path
            d="M10,10C26.435185185185183,20,53.93518518518518,66.33333333333333,88.88888888888889,58C123.84259259259258,49.666666666666664,140.74074074074073,-22.083333333333336,177.77777777777777,-30C214.8148148148148,-37.916666666666664,229.6296296296296,25,266.66666666666663,20C303.7037037037037,15,318.5185185185185,-55.25,355.55555555555554,-54C392.5925925925926,-52.75,407.40740740740745,18.083333333333336,444.44444444444446,26C481.48148148148147,33.916666666666664,496.29629629629625,-23.083333333333336,533.3333333333333,-16C570.3703703703703,-8.916666666666666,585.1851851851851,58.541666666666664,622.2222222222222,60C659.2592592592592,61.458333333333336,674.074074074074,-13.583333333333332,711.1111111111111,-9C748.1481481481482,-4.416666666666667,781.4814814814815,63.04166666666667,800,82"
            transform="matrix(1,0,0,1,0,260)"></path>
        <path
            d="M10,10C26.435185185185183,20,53.93518518518518,66.33333333333333,88.88888888888889,58C123.84259259259258,49.666666666666664,140.74074074074073,-22.083333333333336,177.77777777777777,-30C214.8148148148148,-37.916666666666664,229.6296296296296,25,266.66666666666663,20C303.7037037037037,15,318.5185185185185,-55.25,355.55555555555554,-54C392.5925925925926,-52.75,407.40740740740745,18.083333333333336,444.44444444444446,26C481.48148148148147,33.916666666666664,496.29629629629625,-23.083333333333336,533.3333333333333,-16C570.3703703703703,-8.916666666666666,585.1851851851851,58.541666666666664,622.2222222222222,60C659.2592592592592,61.458333333333336,674.074074074074,-13.583333333333332,711.1111111111111,-9C748.1481481481482,-4.416666666666667,781.4814814814815,63.04166666666667,800,82"
            transform="matrix(1,0,0,1,0,250)"></path>
        <path
            d="M10,10C26.435185185185183,20,53.93518518518518,66.33333333333333,88.88888888888889,58C123.84259259259258,49.666666666666664,140.74074074074073,-22.083333333333336,177.77777777777777,-30C214.8148148148148,-37.916666666666664,229.6296296296296,25,266.66666666666663,20C303.7037037037037,15,318.5185185185185,-55.25,355.55555555555554,-54C392.5925925925926,-52.75,407.40740740740745,18.083333333333336,444.44444444444446,26C481.48148148148147,33.916666666666664,496.29629629629625,-23.083333333333336,533.3333333333333,-16C570.3703703703703,-8.916666666666666,585.1851851851851,58.541666666666664,622.2222222222222,60C659.2592592592592,61.458333333333336,674.074074074074,-13.583333333333332,711.1111111111111,-9C748.1481481481482,-4.416666666666667,781.4814814814815,63.04166666666667,800,82"
            transform="matrix(1,0,0,1,0,240)"></path>
        <path
            d="M10,10C26.435185185185183,20,53.93518518518518,66.33333333333333,88.88888888888889,58C123.84259259259258,49.666666666666664,140.74074074074073,-22.083333333333336,177.77777777777777,-30C214.8148148148148,-37.916666666666664,229.6296296296296,25,266.66666666666663,20C303.7037037037037,15,318.5185185185185,-55.25,355.55555555555554,-54C392.5925925925926,-52.75,407.40740740740745,18.083333333333336,444.44444444444446,26C481.48148148148147,33.916666666666664,496.29629629629625,-23.083333333333336,533.3333333333333,-16C570.3703703703703,-8.916666666666666,585.1851851851851,58.541666666666664,622.2222222222222,60C659.2592592592592,61.458333333333336,674.074074074074,-13.583333333333332,711.1111111111111,-9C748.1481481481482,-4.416666666666667,781.4814814814815,63.04166666666667,800,82"
            transform="matrix(1,0,0,1,0,230)"></path>
        <path
            d="M10,10C26.435185185185183,20,53.93518518518518,66.33333333333333,88.88888888888889,58C123.84259259259258,49.666666666666664,140.74074074074073,-22.083333333333336,177.77777777777777,-30C214.8148148148148,-37.916666666666664,229.6296296296296,25,266.66666666666663,20C303.7037037037037,15,318.5185185185185,-55.25,355.55555555555554,-54C392.5925925925926,-52.75,407.40740740740745,18.083333333333336,444.44444444444446,26C481.48148148148147,33.916666666666664,496.29629629629625,-23.083333333333336,533.3333333333333,-16C570.3703703703703,-8.916666666666666,585.1851851851851,58.541666666666664,622.2222222222222,60C659.2592592592592,61.458333333333336,674.074074074074,-13.583333333333332,711.1111111111111,-9C748.1481481481482,-4.416666666666667,781.4814814814815,63.04166666666667,800,82"
            transform="matrix(1,0,0,1,0,220)"></path>
        <path
            d="M10,10C26.435185185185183,20,53.93518518518518,66.33333333333333,88.88888888888889,58C123.84259259259258,49.666666666666664,140.74074074074073,-22.083333333333336,177.77777777777777,-30C214.8148148148148,-37.916666666666664,229.6296296296296,25,266.66666666666663,20C303.7037037037037,15,318.5185185185185,-55.25,355.55555555555554,-54C392.5925925925926,-52.75,407.40740740740745,18.083333333333336,444.44444444444446,26C481.48148148148147,33.916666666666664,496.29629629629625,-23.083333333333336,533.3333333333333,-16C570.3703703703703,-8.916666666666666,585.1851851851851,58.541666666666664,622.2222222222222,60C659.2592592592592,61.458333333333336,674.074074074074,-13.583333333333332,711.1111111111111,-9C748.1481481481482,-4.416666666666667,781.4814814814815,63.04166666666667,800,82"
            transform="matrix(1,0,0,1,0,210)"></path>
        <path
            d="M10,10C26.435185185185183,20,53.93518518518518,66.33333333333333,88.88888888888889,58C123.84259259259258,49.666666666666664,140.74074074074073,-22.083333333333336,177.77777777777777,-30C214.8148148148148,-37.916666666666664,229.6296296296296,25,266.66666666666663,20C303.7037037037037,15,318.5185185185185,-55.25,355.55555555555554,-54C392.5925925925926,-52.75,407.40740740740745,18.083333333333336,444.44444444444446,26C481.48148148148147,33.916666666666664,496.29629629629625,-23.083333333333336,533.3333333333333,-16C570.3703703703703,-8.916666666666666,585.1851851851851,58.541666666666664,622.2222222222222,60C659.2592592592592,61.458333333333336,674.074074074074,-13.583333333333332,711.1111111111111,-9C748.1481481481482,-4.416666666666667,781.4814814814815,63.04166666666667,800,82"
            transform="matrix(1,0,0,1,0,200)"></path>
        <path
            d="M10,10C26.435185185185183,20,53.93518518518518,66.33333333333333,88.88888888888889,58C123.84259259259258,49.666666666666664,140.74074074074073,-22.083333333333336,177.77777777777777,-30C214.8148148148148,-37.916666666666664,229.6296296296296,25,266.66666666666663,20C303.7037037037037,15,318.5185185185185,-55.25,355.55555555555554,-54C392.5925925925926,-52.75,407.40740740740745,18.083333333333336,444.44444444444446,26C481.48148148148147,33.916666666666664,496.29629629629625,-23.083333333333336,533.3333333333333,-16C570.3703703703703,-8.916666666666666,585.1851851851851,58.541666666666664,622.2222222222222,60C659.2592592592592,61.458333333333336,674.074074074074,-13.583333333333332,711.1111111111111,-9C748.1481481481482,-4.416666666666667,781.4814814814815,63.04166666666667,800,82"
            transform="matrix(1,0,0,1,0,190)"></path>
        <path
            d="M10,10C26.435185185185183,20,53.93518518518518,66.33333333333333,88.88888888888889,58C123.84259259259258,49.666666666666664,140.74074074074073,-22.083333333333336,177.77777777777777,-30C214.8148148148148,-37.916666666666664,229.6296296296296,25,266.66666666666663,20C303.7037037037037,15,318.5185185185185,-55.25,355.55555555555554,-54C392.5925925925926,-52.75,407.40740740740745,18.083333333333336,444.44444444444446,26C481.48148148148147,33.916666666666664,496.29629629629625,-23.083333333333336,533.3333333333333,-16C570.3703703703703,-8.916666666666666,585.1851851851851,58.541666666666664,622.2222222222222,60C659.2592592592592,61.458333333333336,674.074074074074,-13.583333333333332,711.1111111111111,-9C748.1481481481482,-4.416666666666667,781.4814814814815,63.04166666666667,800,82"
            transform="matrix(1,0,0,1,0,180)"></path>
        <path
            d="M10,10C26.435185185185183,20,53.93518518518518,66.33333333333333,88.88888888888889,58C123.84259259259258,49.666666666666664,140.74074074074073,-22.083333333333336,177.77777777777777,-30C214.8148148148148,-37.916666666666664,229.6296296296296,25,266.66666666666663,20C303.7037037037037,15,318.5185185185185,-55.25,355.55555555555554,-54C392.5925925925926,-52.75,407.40740740740745,18.083333333333336,444.44444444444446,26C481.48148148148147,33.916666666666664,496.29629629629625,-23.083333333333336,533.3333333333333,-16C570.3703703703703,-8.916666666666666,585.1851851851851,58.541666666666664,622.2222222222222,60C659.2592592592592,61.458333333333336,674.074074074074,-13.583333333333332,711.1111111111111,-9C748.1481481481482,-4.416666666666667,781.4814814814815,63.04166666666667,800,82"
            transform="matrix(1,0,0,1,0,170)"></path>
        <path
            d="M10,10C26.435185185185183,20,53.93518518518518,66.33333333333333,88.88888888888889,58C123.84259259259258,49.666666666666664,140.74074074074073,-22.083333333333336,177.77777777777777,-30C214.8148148148148,-37.916666666666664,229.6296296296296,25,266.66666666666663,20C303.7037037037037,15,318.5185185185185,-55.25,355.55555555555554,-54C392.5925925925926,-52.75,407.40740740740745,18.083333333333336,444.44444444444446,26C481.48148148148147,33.916666666666664,496.29629629629625,-23.083333333333336,533.3333333333333,-16C570.3703703703703,-8.916666666666666,585.1851851851851,58.541666666666664,622.2222222222222,60C659.2592592592592,61.458333333333336,674.074074074074,-13.583333333333332,711.1111111111111,-9C748.1481481481482,-4.416666666666667,781.4814814814815,63.04166666666667,800,82"
            transform="matrix(1,0,0,1,0,160)"></path>
        <path
            d="M10,10C26.435185185185183,20,53.93518518518518,66.33333333333333,88.88888888888889,58C123.84259259259258,49.666666666666664,140.74074074074073,-22.083333333333336,177.77777777777777,-30C214.8148148148148,-37.916666666666664,229.6296296296296,25,266.66666666666663,20C303.7037037037037,15,318.5185185185185,-55.25,355.55555555555554,-54C392.5925925925926,-52.75,407.40740740740745,18.083333333333336,444.44444444444446,26C481.48148148148147,33.916666666666664,496.29629629629625,-23.083333333333336,533.3333333333333,-16C570.3703703703703,-8.916666666666666,585.1851851851851,58.541666666666664,622.2222222222222,60C659.2592592592592,61.458333333333336,674.074074074074,-13.583333333333332,711.1111111111111,-9C748.1481481481482,-4.416666666666667,781.4814814814815,63.04166666666667,800,82"
            transform="matrix(1,0,0,1,0,150)"></path>
        <path
            d="M10,10C26.435185185185183,20,53.93518518518518,66.33333333333333,88.88888888888889,58C123.84259259259258,49.666666666666664,140.74074074074073,-22.083333333333336,177.77777777777777,-30C214.8148148148148,-37.916666666666664,229.6296296296296,25,266.66666666666663,20C303.7037037037037,15,318.5185185185185,-55.25,355.55555555555554,-54C392.5925925925926,-52.75,407.40740740740745,18.083333333333336,444.44444444444446,26C481.48148148148147,33.916666666666664,496.29629629629625,-23.083333333333336,533.3333333333333,-16C570.3703703703703,-8.916666666666666,585.1851851851851,58.541666666666664,622.2222222222222,60C659.2592592592592,61.458333333333336,674.074074074074,-13.583333333333332,711.1111111111111,-9C748.1481481481482,-4.416666666666667,781.4814814814815,63.04166666666667,800,82"
            transform="matrix(1,0,0,1,0,140)"></path>
        <path
            d="M10,10C26.435185185185183,20,53.93518518518518,66.33333333333333,88.88888888888889,58C123.84259259259258,49.666666666666664,140.74074074074073,-22.083333333333336,177.77777777777777,-30C214.8148148148148,-37.916666666666664,229.6296296296296,25,266.66666666666663,20C303.7037037037037,15,318.5185185185185,-55.25,355.55555555555554,-54C392.5925925925926,-52.75,407.40740740740745,18.083333333333336,444.44444444444446,26C481.48148148148147,33.916666666666664,496.29629629629625,-23.083333333333336,533.3333333333333,-16C570.3703703703703,-8.916666666666666,585.1851851851851,58.541666666666664,622.2222222222222,60C659.2592592592592,61.458333333333336,674.074074074074,-13.583333333333332,711.1111111111111,-9C748.1481481481482,-4.416666666666667,781.4814814814815,63.04166666666667,800,82"
            transform="matrix(1,0,0,1,0,130)"></path>
        <path
            d="M10,10C26.435185185185183,20,53.93518518518518,66.33333333333333,88.88888888888889,58C123.84259259259258,49.666666666666664,140.74074074074073,-22.083333333333336,177.77777777777777,-30C214.8148148148148,-37.916666666666664,229.6296296296296,25,266.66666666666663,20C303.7037037037037,15,318.5185185185185,-55.25,355.55555555555554,-54C392.5925925925926,-52.75,407.40740740740745,18.083333333333336,444.44444444444446,26C481.48148148148147,33.916666666666664,496.29629629629625,-23.083333333333336,533.3333333333333,-16C570.3703703703703,-8.916666666666666,585.1851851851851,58.541666666666664,622.2222222222222,60C659.2592592592592,61.458333333333336,674.074074074074,-13.583333333333332,711.1111111111111,-9C748.1481481481482,-4.416666666666667,781.4814814814815,63.04166666666667,800,82"
            transform="matrix(1,0,0,1,0,120)"></path>
        <path
            d="M10,10C26.435185185185183,20,53.93518518518518,66.33333333333333,88.88888888888889,58C123.84259259259258,49.666666666666664,140.74074074074073,-22.083333333333336,177.77777777777777,-30C214.8148148148148,-37.916666666666664,229.6296296296296,25,266.66666666666663,20C303.7037037037037,15,318.5185185185185,-55.25,355.55555555555554,-54C392.5925925925926,-52.75,407.40740740740745,18.083333333333336,444.44444444444446,26C481.48148148148147,33.916666666666664,496.29629629629625,-23.083333333333336,533.3333333333333,-16C570.3703703703703,-8.916666666666666,585.1851851851851,58.541666666666664,622.2222222222222,60C659.2592592592592,61.458333333333336,674.074074074074,-13.583333333333332,711.1111111111111,-9C748.1481481481482,-4.416666666666667,781.4814814814815,63.04166666666667,800,82"
            transform="matrix(1,0,0,1,0,110)"></path>
        <path
            d="M10,10C26.435185185185183,20,53.93518518518518,66.33333333333333,88.88888888888889,58C123.84259259259258,49.666666666666664,140.74074074074073,-22.083333333333336,177.77777777777777,-30C214.8148148148148,-37.916666666666664,229.6296296296296,25,266.66666666666663,20C303.7037037037037,15,318.5185185185185,-55.25,355.55555555555554,-54C392.5925925925926,-52.75,407.40740740740745,18.083333333333336,444.44444444444446,26C481.48148148148147,33.916666666666664,496.29629629629625,-23.083333333333336,533.3333333333333,-16C570.3703703703703,-8.916666666666666,585.1851851851851,58.541666666666664,622.2222222222222,60C659.2592592592592,61.458333333333336,674.074074074074,-13.583333333333332,711.1111111111111,-9C748.1481481481482,-4.416666666666667,781.4814814814815,63.04166666666667,800,82"
            transform="matrix(1,0,0,1,0,100)"></path>
        <path
            d="M10,10C26.435185185185183,20,53.93518518518518,66.33333333333333,88.88888888888889,58C123.84259259259258,49.666666666666664,140.74074074074073,-22.083333333333336,177.77777777777777,-30C214.8148148148148,-37.916666666666664,229.6296296296296,25,266.66666666666663,20C303.7037037037037,15,318.5185185185185,-55.25,355.55555555555554,-54C392.5925925925926,-52.75,407.40740740740745,18.083333333333336,444.44444444444446,26C481.48148148148147,33.916666666666664,496.29629629629625,-23.083333333333336,533.3333333333333,-16C570.3703703703703,-8.916666666666666,585.1851851851851,58.541666666666664,622.2222222222222,60C659.2592592592592,61.458333333333336,674.074074074074,-13.583333333333332,711.1111111111111,-9C748.1481481481482,-4.416666666666667,781.4814814814815,63.04166666666667,800,82"
            transform="matrix(1,0,0,1,0,90)"></path>
        <path
            d="M10,10C26.435185185185183,20,53.93518518518518,66.33333333333333,88.88888888888889,58C123.84259259259258,49.666666666666664,140.74074074074073,-22.083333333333336,177.77777777777777,-30C214.8148148148148,-37.916666666666664,229.6296296296296,25,266.66666666666663,20C303.7037037037037,15,318.5185185185185,-55.25,355.55555555555554,-54C392.5925925925926,-52.75,407.40740740740745,18.083333333333336,444.44444444444446,26C481.48148148148147,33.916666666666664,496.29629629629625,-23.083333333333336,533.3333333333333,-16C570.3703703703703,-8.916666666666666,585.1851851851851,58.541666666666664,622.2222222222222,60C659.2592592592592,61.458333333333336,674.074074074074,-13.583333333333332,711.1111111111111,-9C748.1481481481482,-4.416666666666667,781.4814814814815,63.04166666666667,800,82"
            transform="matrix(1,0,0,1,0,80)"></path>
        <path
            d="M10,10C26.435185185185183,20,53.93518518518518,66.33333333333333,88.88888888888889,58C123.84259259259258,49.666666666666664,140.74074074074073,-22.083333333333336,177.77777777777777,-30C214.8148148148148,-37.916666666666664,229.6296296296296,25,266.66666666666663,20C303.7037037037037,15,318.5185185185185,-55.25,355.55555555555554,-54C392.5925925925926,-52.75,407.40740740740745,18.083333333333336,444.44444444444446,26C481.48148148148147,33.916666666666664,496.29629629629625,-23.083333333333336,533.3333333333333,-16C570.3703703703703,-8.916666666666666,585.1851851851851,58.541666666666664,622.2222222222222,60C659.2592592592592,61.458333333333336,674.074074074074,-13.583333333333332,711.1111111111111,-9C748.1481481481482,-4.416666666666667,781.4814814814815,63.04166666666667,800,82"
            transform="matrix(1,0,0,1,0,70)"></path>
        <path
            d="M10,10C26.435185185185183,20,53.93518518518518,66.33333333333333,88.88888888888889,58C123.84259259259258,49.666666666666664,140.74074074074073,-22.083333333333336,177.77777777777777,-30C214.8148148148148,-37.916666666666664,229.6296296296296,25,266.66666666666663,20C303.7037037037037,15,318.5185185185185,-55.25,355.55555555555554,-54C392.5925925925926,-52.75,407.40740740740745,18.083333333333336,444.44444444444446,26C481.48148148148147,33.916666666666664,496.29629629629625,-23.083333333333336,533.3333333333333,-16C570.3703703703703,-8.916666666666666,585.1851851851851,58.541666666666664,622.2222222222222,60C659.2592592592592,61.458333333333336,674.074074074074,-13.583333333333332,711.1111111111111,-9C748.1481481481482,-4.416666666666667,781.4814814814815,63.04166666666667,800,82"
            transform="matrix(1,0,0,1,0,60)"></path>
        <path
            d="M10,10C26.435185185185183,20,53.93518518518518,66.33333333333333,88.88888888888889,58C123.84259259259258,49.666666666666664,140.74074074074073,-22.083333333333336,177.77777777777777,-30C214.8148148148148,-37.916666666666664,229.6296296296296,25,266.66666666666663,20C303.7037037037037,15,318.5185185185185,-55.25,355.55555555555554,-54C392.5925925925926,-52.75,407.40740740740745,18.083333333333336,444.44444444444446,26C481.48148148148147,33.916666666666664,496.29629629629625,-23.083333333333336,533.3333333333333,-16C570.3703703703703,-8.916666666666666,585.1851851851851,58.541666666666664,622.2222222222222,60C659.2592592592592,61.458333333333336,674.074074074074,-13.583333333333332,711.1111111111111,-9C748.1481481481482,-4.416666666666667,781.4814814814815,63.04166666666667,800,82"
            transform="matrix(1,0,0,1,0,50)"></path>
        <path
            d="M10,10C26.435185185185183,20,53.93518518518518,66.33333333333333,88.88888888888889,58C123.84259259259258,49.666666666666664,140.74074074074073,-22.083333333333336,177.77777777777777,-30C214.8148148148148,-37.916666666666664,229.6296296296296,25,266.66666666666663,20C303.7037037037037,15,318.5185185185185,-55.25,355.55555555555554,-54C392.5925925925926,-52.75,407.40740740740745,18.083333333333336,444.44444444444446,26C481.48148148148147,33.916666666666664,496.29629629629625,-23.083333333333336,533.3333333333333,-16C570.3703703703703,-8.916666666666666,585.1851851851851,58.541666666666664,622.2222222222222,60C659.2592592592592,61.458333333333336,674.074074074074,-13.583333333333332,711.1111111111111,-9C748.1481481481482,-4.416666666666667,781.4814814814815,63.04166666666667,800,82"
            transform="matrix(1,0,0,1,0,40)"></path>
        <path
            d="M10,10C26.435185185185183,20,53.93518518518518,66.33333333333333,88.88888888888889,58C123.84259259259258,49.666666666666664,140.74074074074073,-22.083333333333336,177.77777777777777,-30C214.8148148148148,-37.916666666666664,229.6296296296296,25,266.66666666666663,20C303.7037037037037,15,318.5185185185185,-55.25,355.55555555555554,-54C392.5925925925926,-52.75,407.40740740740745,18.083333333333336,444.44444444444446,26C481.48148148148147,33.916666666666664,496.29629629629625,-23.083333333333336,533.3333333333333,-16C570.3703703703703,-8.916666666666666,585.1851851851851,58.541666666666664,622.2222222222222,60C659.2592592592592,61.458333333333336,674.074074074074,-13.583333333333332,711.1111111111111,-9C748.1481481481482,-4.416666666666667,781.4814814814815,63.04166666666667,800,82"
            transform="matrix(1,0,0,1,0,30)"></path>
        <path
            d="M10,10C26.435185185185183,20,53.93518518518518,66.33333333333333,88.88888888888889,58C123.84259259259258,49.666666666666664,140.74074074074073,-22.083333333333336,177.77777777777777,-30C214.8148148148148,-37.916666666666664,229.6296296296296,25,266.66666666666663,20C303.7037037037037,15,318.5185185185185,-55.25,355.55555555555554,-54C392.5925925925926,-52.75,407.40740740740745,18.083333333333336,444.44444444444446,26C481.48148148148147,33.916666666666664,496.29629629629625,-23.083333333333336,533.3333333333333,-16C570.3703703703703,-8.916666666666666,585.1851851851851,58.541666666666664,622.2222222222222,60C659.2592592592592,61.458333333333336,674.074074074074,-13.583333333333332,711.1111111111111,-9C748.1481481481482,-4.416666666666667,781.4814814814815,63.04166666666667,800,82"
            transform="matrix(1,0,0,1,0,20)"></path>
        <path
            d="M10,10C26.435185185185183,20,53.93518518518518,66.33333333333333,88.88888888888889,58C123.84259259259258,49.666666666666664,140.74074074074073,-22.083333333333336,177.77777777777777,-30C214.8148148148148,-37.916666666666664,229.6296296296296,25,266.66666666666663,20C303.7037037037037,15,318.5185185185185,-55.25,355.55555555555554,-54C392.5925925925926,-52.75,407.40740740740745,18.083333333333336,444.44444444444446,26C481.48148148148147,33.916666666666664,496.29629629629625,-23.083333333333336,533.3333333333333,-16C570.3703703703703,-8.916666666666666,585.1851851851851,58.541666666666664,622.2222222222222,60C659.2592592592592,61.458333333333336,674.074074074074,-13.583333333333332,711.1111111111111,-9C748.1481481481482,-4.416666666666667,781.4814814814815,63.04166666666667,800,82"
            transform="matrix(1,0,0,1,0,10)"></path>
    </g>
</svg>
