<svg xmlns="http://www.w3.org/2000/svg" version="1.1"
     viewBox="0 0 800 800">
    <g stroke-width="0.5" stroke="#fff0ca" fill="none" stroke-linecap="round"
       transform="matrix(1,0,0,1,-5,8.499725341796875)">
        <path d="M10,10C35.69444444444444,12.083333333333334,79.86111111111111,25.208333333333336,133.33333333333334,20C186.80555555555557,14.791666666666666,211.11111111111114,-15.208333333333334,266.6666666666667,-15C322.22222222222223,-14.791666666666666,344.44444444444446,21.833333333333332,400,21C455.55555555555554,20.166666666666668,477.7777777777778,-23.583333333333332,533.3333333333334,-19C588.8888888888889,-14.416666666666668,611.1111111111112,43.208333333333336,666.6666666666667,43C722.2222222222223,42.791666666666664,772.2222222222223,-6.875,800,-20"></path>
        <path d="M10,10C35.69444444444444,12.083333333333334,79.86111111111111,25.208333333333336,133.33333333333334,20C186.80555555555557,14.791666666666666,211.11111111111114,-15.208333333333334,266.6666666666667,-15C322.22222222222223,-14.791666666666666,344.44444444444446,21.833333333333332,400,21C455.55555555555554,20.166666666666668,477.7777777777778,-23.583333333333332,533.3333333333334,-19C588.8888888888889,-14.416666666666668,611.1111111111112,43.208333333333336,666.6666666666667,43C722.2222222222223,42.791666666666664,772.2222222222223,-6.875,800,-20"
              transform="matrix(1,0,0,1,0,760)"></path>
        <path d="M10,10C35.69444444444444,12.083333333333334,79.86111111111111,25.208333333333336,133.33333333333334,20C186.80555555555557,14.791666666666666,211.11111111111114,-15.208333333333334,266.6666666666667,-15C322.22222222222223,-14.791666666666666,344.44444444444446,21.833333333333332,400,21C455.55555555555554,20.166666666666668,477.7777777777778,-23.583333333333332,533.3333333333334,-19C588.8888888888889,-14.416666666666668,611.1111111111112,43.208333333333336,666.6666666666667,43C722.2222222222223,42.791666666666664,772.2222222222223,-6.875,800,-20"
              transform="matrix(1,0,0,1,0,750)"></path>
        <path d="M10,10C35.69444444444444,12.083333333333334,79.86111111111111,25.208333333333336,133.33333333333334,20C186.80555555555557,14.791666666666666,211.11111111111114,-15.208333333333334,266.6666666666667,-15C322.22222222222223,-14.791666666666666,344.44444444444446,21.833333333333332,400,21C455.55555555555554,20.166666666666668,477.7777777777778,-23.583333333333332,533.3333333333334,-19C588.8888888888889,-14.416666666666668,611.1111111111112,43.208333333333336,666.6666666666667,43C722.2222222222223,42.791666666666664,772.2222222222223,-6.875,800,-20"
              transform="matrix(1,0,0,1,0,740)"></path>
        <path d="M10,10C35.69444444444444,12.083333333333334,79.86111111111111,25.208333333333336,133.33333333333334,20C186.80555555555557,14.791666666666666,211.11111111111114,-15.208333333333334,266.6666666666667,-15C322.22222222222223,-14.791666666666666,344.44444444444446,21.833333333333332,400,21C455.55555555555554,20.166666666666668,477.7777777777778,-23.583333333333332,533.3333333333334,-19C588.8888888888889,-14.416666666666668,611.1111111111112,43.208333333333336,666.6666666666667,43C722.2222222222223,42.791666666666664,772.2222222222223,-6.875,800,-20"
              transform="matrix(1,0,0,1,0,730)"></path>
        <path d="M10,10C35.69444444444444,12.083333333333334,79.86111111111111,25.208333333333336,133.33333333333334,20C186.80555555555557,14.791666666666666,211.11111111111114,-15.208333333333334,266.6666666666667,-15C322.22222222222223,-14.791666666666666,344.44444444444446,21.833333333333332,400,21C455.55555555555554,20.166666666666668,477.7777777777778,-23.583333333333332,533.3333333333334,-19C588.8888888888889,-14.416666666666668,611.1111111111112,43.208333333333336,666.6666666666667,43C722.2222222222223,42.791666666666664,772.2222222222223,-6.875,800,-20"
              transform="matrix(1,0,0,1,0,720)"></path>
        <path d="M10,10C35.69444444444444,12.083333333333334,79.86111111111111,25.208333333333336,133.33333333333334,20C186.80555555555557,14.791666666666666,211.11111111111114,-15.208333333333334,266.6666666666667,-15C322.22222222222223,-14.791666666666666,344.44444444444446,21.833333333333332,400,21C455.55555555555554,20.166666666666668,477.7777777777778,-23.583333333333332,533.3333333333334,-19C588.8888888888889,-14.416666666666668,611.1111111111112,43.208333333333336,666.6666666666667,43C722.2222222222223,42.791666666666664,772.2222222222223,-6.875,800,-20"
              transform="matrix(1,0,0,1,0,710)"></path>
        <path d="M10,10C35.69444444444444,12.083333333333334,79.86111111111111,25.208333333333336,133.33333333333334,20C186.80555555555557,14.791666666666666,211.11111111111114,-15.208333333333334,266.6666666666667,-15C322.22222222222223,-14.791666666666666,344.44444444444446,21.833333333333332,400,21C455.55555555555554,20.166666666666668,477.7777777777778,-23.583333333333332,533.3333333333334,-19C588.8888888888889,-14.416666666666668,611.1111111111112,43.208333333333336,666.6666666666667,43C722.2222222222223,42.791666666666664,772.2222222222223,-6.875,800,-20"
              transform="matrix(1,0,0,1,0,700)"></path>
        <path d="M10,10C35.69444444444444,12.083333333333334,79.86111111111111,25.208333333333336,133.33333333333334,20C186.80555555555557,14.791666666666666,211.11111111111114,-15.208333333333334,266.6666666666667,-15C322.22222222222223,-14.791666666666666,344.44444444444446,21.833333333333332,400,21C455.55555555555554,20.166666666666668,477.7777777777778,-23.583333333333332,533.3333333333334,-19C588.8888888888889,-14.416666666666668,611.1111111111112,43.208333333333336,666.6666666666667,43C722.2222222222223,42.791666666666664,772.2222222222223,-6.875,800,-20"
              transform="matrix(1,0,0,1,0,690)"></path>
        <path d="M10,10C35.69444444444444,12.083333333333334,79.86111111111111,25.208333333333336,133.33333333333334,20C186.80555555555557,14.791666666666666,211.11111111111114,-15.208333333333334,266.6666666666667,-15C322.22222222222223,-14.791666666666666,344.44444444444446,21.833333333333332,400,21C455.55555555555554,20.166666666666668,477.7777777777778,-23.583333333333332,533.3333333333334,-19C588.8888888888889,-14.416666666666668,611.1111111111112,43.208333333333336,666.6666666666667,43C722.2222222222223,42.791666666666664,772.2222222222223,-6.875,800,-20"
              transform="matrix(1,0,0,1,0,680)"></path>
        <path d="M10,10C35.69444444444444,12.083333333333334,79.86111111111111,25.208333333333336,133.33333333333334,20C186.80555555555557,14.791666666666666,211.11111111111114,-15.208333333333334,266.6666666666667,-15C322.22222222222223,-14.791666666666666,344.44444444444446,21.833333333333332,400,21C455.55555555555554,20.166666666666668,477.7777777777778,-23.583333333333332,533.3333333333334,-19C588.8888888888889,-14.416666666666668,611.1111111111112,43.208333333333336,666.6666666666667,43C722.2222222222223,42.791666666666664,772.2222222222223,-6.875,800,-20"
              transform="matrix(1,0,0,1,0,670)"></path>
        <path d="M10,10C35.69444444444444,12.083333333333334,79.86111111111111,25.208333333333336,133.33333333333334,20C186.80555555555557,14.791666666666666,211.11111111111114,-15.208333333333334,266.6666666666667,-15C322.22222222222223,-14.791666666666666,344.44444444444446,21.833333333333332,400,21C455.55555555555554,20.166666666666668,477.7777777777778,-23.583333333333332,533.3333333333334,-19C588.8888888888889,-14.416666666666668,611.1111111111112,43.208333333333336,666.6666666666667,43C722.2222222222223,42.791666666666664,772.2222222222223,-6.875,800,-20"
              transform="matrix(1,0,0,1,0,660)"></path>
        <path d="M10,10C35.69444444444444,12.083333333333334,79.86111111111111,25.208333333333336,133.33333333333334,20C186.80555555555557,14.791666666666666,211.11111111111114,-15.208333333333334,266.6666666666667,-15C322.22222222222223,-14.791666666666666,344.44444444444446,21.833333333333332,400,21C455.55555555555554,20.166666666666668,477.7777777777778,-23.583333333333332,533.3333333333334,-19C588.8888888888889,-14.416666666666668,611.1111111111112,43.208333333333336,666.6666666666667,43C722.2222222222223,42.791666666666664,772.2222222222223,-6.875,800,-20"
              transform="matrix(1,0,0,1,0,650)"></path>
        <path d="M10,10C35.69444444444444,12.083333333333334,79.86111111111111,25.208333333333336,133.33333333333334,20C186.80555555555557,14.791666666666666,211.11111111111114,-15.208333333333334,266.6666666666667,-15C322.22222222222223,-14.791666666666666,344.44444444444446,21.833333333333332,400,21C455.55555555555554,20.166666666666668,477.7777777777778,-23.583333333333332,533.3333333333334,-19C588.8888888888889,-14.416666666666668,611.1111111111112,43.208333333333336,666.6666666666667,43C722.2222222222223,42.791666666666664,772.2222222222223,-6.875,800,-20"
              transform="matrix(1,0,0,1,0,640)"></path>
        <path d="M10,10C35.69444444444444,12.083333333333334,79.86111111111111,25.208333333333336,133.33333333333334,20C186.80555555555557,14.791666666666666,211.11111111111114,-15.208333333333334,266.6666666666667,-15C322.22222222222223,-14.791666666666666,344.44444444444446,21.833333333333332,400,21C455.55555555555554,20.166666666666668,477.7777777777778,-23.583333333333332,533.3333333333334,-19C588.8888888888889,-14.416666666666668,611.1111111111112,43.208333333333336,666.6666666666667,43C722.2222222222223,42.791666666666664,772.2222222222223,-6.875,800,-20"
              transform="matrix(1,0,0,1,0,630)"></path>
        <path d="M10,10C35.69444444444444,12.083333333333334,79.86111111111111,25.208333333333336,133.33333333333334,20C186.80555555555557,14.791666666666666,211.11111111111114,-15.208333333333334,266.6666666666667,-15C322.22222222222223,-14.791666666666666,344.44444444444446,21.833333333333332,400,21C455.55555555555554,20.166666666666668,477.7777777777778,-23.583333333333332,533.3333333333334,-19C588.8888888888889,-14.416666666666668,611.1111111111112,43.208333333333336,666.6666666666667,43C722.2222222222223,42.791666666666664,772.2222222222223,-6.875,800,-20"
              transform="matrix(1,0,0,1,0,620)"></path>
        <path d="M10,10C35.69444444444444,12.083333333333334,79.86111111111111,25.208333333333336,133.33333333333334,20C186.80555555555557,14.791666666666666,211.11111111111114,-15.208333333333334,266.6666666666667,-15C322.22222222222223,-14.791666666666666,344.44444444444446,21.833333333333332,400,21C455.55555555555554,20.166666666666668,477.7777777777778,-23.583333333333332,533.3333333333334,-19C588.8888888888889,-14.416666666666668,611.1111111111112,43.208333333333336,666.6666666666667,43C722.2222222222223,42.791666666666664,772.2222222222223,-6.875,800,-20"
              transform="matrix(1,0,0,1,0,610)"></path>
        <path d="M10,10C35.69444444444444,12.083333333333334,79.86111111111111,25.208333333333336,133.33333333333334,20C186.80555555555557,14.791666666666666,211.11111111111114,-15.208333333333334,266.6666666666667,-15C322.22222222222223,-14.791666666666666,344.44444444444446,21.833333333333332,400,21C455.55555555555554,20.166666666666668,477.7777777777778,-23.583333333333332,533.3333333333334,-19C588.8888888888889,-14.416666666666668,611.1111111111112,43.208333333333336,666.6666666666667,43C722.2222222222223,42.791666666666664,772.2222222222223,-6.875,800,-20"
              transform="matrix(1,0,0,1,0,600)"></path>
        <path d="M10,10C35.69444444444444,12.083333333333334,79.86111111111111,25.208333333333336,133.33333333333334,20C186.80555555555557,14.791666666666666,211.11111111111114,-15.208333333333334,266.6666666666667,-15C322.22222222222223,-14.791666666666666,344.44444444444446,21.833333333333332,400,21C455.55555555555554,20.166666666666668,477.7777777777778,-23.583333333333332,533.3333333333334,-19C588.8888888888889,-14.416666666666668,611.1111111111112,43.208333333333336,666.6666666666667,43C722.2222222222223,42.791666666666664,772.2222222222223,-6.875,800,-20"
              transform="matrix(1,0,0,1,0,590)"></path>
        <path d="M10,10C35.69444444444444,12.083333333333334,79.86111111111111,25.208333333333336,133.33333333333334,20C186.80555555555557,14.791666666666666,211.11111111111114,-15.208333333333334,266.6666666666667,-15C322.22222222222223,-14.791666666666666,344.44444444444446,21.833333333333332,400,21C455.55555555555554,20.166666666666668,477.7777777777778,-23.583333333333332,533.3333333333334,-19C588.8888888888889,-14.416666666666668,611.1111111111112,43.208333333333336,666.6666666666667,43C722.2222222222223,42.791666666666664,772.2222222222223,-6.875,800,-20"
              transform="matrix(1,0,0,1,0,580)"></path>
        <path d="M10,10C35.69444444444444,12.083333333333334,79.86111111111111,25.208333333333336,133.33333333333334,20C186.80555555555557,14.791666666666666,211.11111111111114,-15.208333333333334,266.6666666666667,-15C322.22222222222223,-14.791666666666666,344.44444444444446,21.833333333333332,400,21C455.55555555555554,20.166666666666668,477.7777777777778,-23.583333333333332,533.3333333333334,-19C588.8888888888889,-14.416666666666668,611.1111111111112,43.208333333333336,666.6666666666667,43C722.2222222222223,42.791666666666664,772.2222222222223,-6.875,800,-20"
              transform="matrix(1,0,0,1,0,570)"></path>
        <path d="M10,10C35.69444444444444,12.083333333333334,79.86111111111111,25.208333333333336,133.33333333333334,20C186.80555555555557,14.791666666666666,211.11111111111114,-15.208333333333334,266.6666666666667,-15C322.22222222222223,-14.791666666666666,344.44444444444446,21.833333333333332,400,21C455.55555555555554,20.166666666666668,477.7777777777778,-23.583333333333332,533.3333333333334,-19C588.8888888888889,-14.416666666666668,611.1111111111112,43.208333333333336,666.6666666666667,43C722.2222222222223,42.791666666666664,772.2222222222223,-6.875,800,-20"
              transform="matrix(1,0,0,1,0,560)"></path>
        <path d="M10,10C35.69444444444444,12.083333333333334,79.86111111111111,25.208333333333336,133.33333333333334,20C186.80555555555557,14.791666666666666,211.11111111111114,-15.208333333333334,266.6666666666667,-15C322.22222222222223,-14.791666666666666,344.44444444444446,21.833333333333332,400,21C455.55555555555554,20.166666666666668,477.7777777777778,-23.583333333333332,533.3333333333334,-19C588.8888888888889,-14.416666666666668,611.1111111111112,43.208333333333336,666.6666666666667,43C722.2222222222223,42.791666666666664,772.2222222222223,-6.875,800,-20"
              transform="matrix(1,0,0,1,0,550)"></path>
        <path d="M10,10C35.69444444444444,12.083333333333334,79.86111111111111,25.208333333333336,133.33333333333334,20C186.80555555555557,14.791666666666666,211.11111111111114,-15.208333333333334,266.6666666666667,-15C322.22222222222223,-14.791666666666666,344.44444444444446,21.833333333333332,400,21C455.55555555555554,20.166666666666668,477.7777777777778,-23.583333333333332,533.3333333333334,-19C588.8888888888889,-14.416666666666668,611.1111111111112,43.208333333333336,666.6666666666667,43C722.2222222222223,42.791666666666664,772.2222222222223,-6.875,800,-20"
              transform="matrix(1,0,0,1,0,540)"></path>
        <path d="M10,10C35.69444444444444,12.083333333333334,79.86111111111111,25.208333333333336,133.33333333333334,20C186.80555555555557,14.791666666666666,211.11111111111114,-15.208333333333334,266.6666666666667,-15C322.22222222222223,-14.791666666666666,344.44444444444446,21.833333333333332,400,21C455.55555555555554,20.166666666666668,477.7777777777778,-23.583333333333332,533.3333333333334,-19C588.8888888888889,-14.416666666666668,611.1111111111112,43.208333333333336,666.6666666666667,43C722.2222222222223,42.791666666666664,772.2222222222223,-6.875,800,-20"
              transform="matrix(1,0,0,1,0,530)"></path>
        <path d="M10,10C35.69444444444444,12.083333333333334,79.86111111111111,25.208333333333336,133.33333333333334,20C186.80555555555557,14.791666666666666,211.11111111111114,-15.208333333333334,266.6666666666667,-15C322.22222222222223,-14.791666666666666,344.44444444444446,21.833333333333332,400,21C455.55555555555554,20.166666666666668,477.7777777777778,-23.583333333333332,533.3333333333334,-19C588.8888888888889,-14.416666666666668,611.1111111111112,43.208333333333336,666.6666666666667,43C722.2222222222223,42.791666666666664,772.2222222222223,-6.875,800,-20"
              transform="matrix(1,0,0,1,0,520)"></path>
        <path d="M10,10C35.69444444444444,12.083333333333334,79.86111111111111,25.208333333333336,133.33333333333334,20C186.80555555555557,14.791666666666666,211.11111111111114,-15.208333333333334,266.6666666666667,-15C322.22222222222223,-14.791666666666666,344.44444444444446,21.833333333333332,400,21C455.55555555555554,20.166666666666668,477.7777777777778,-23.583333333333332,533.3333333333334,-19C588.8888888888889,-14.416666666666668,611.1111111111112,43.208333333333336,666.6666666666667,43C722.2222222222223,42.791666666666664,772.2222222222223,-6.875,800,-20"
              transform="matrix(1,0,0,1,0,510)"></path>
        <path d="M10,10C35.69444444444444,12.083333333333334,79.86111111111111,25.208333333333336,133.33333333333334,20C186.80555555555557,14.791666666666666,211.11111111111114,-15.208333333333334,266.6666666666667,-15C322.22222222222223,-14.791666666666666,344.44444444444446,21.833333333333332,400,21C455.55555555555554,20.166666666666668,477.7777777777778,-23.583333333333332,533.3333333333334,-19C588.8888888888889,-14.416666666666668,611.1111111111112,43.208333333333336,666.6666666666667,43C722.2222222222223,42.791666666666664,772.2222222222223,-6.875,800,-20"
              transform="matrix(1,0,0,1,0,500)"></path>
        <path d="M10,10C35.69444444444444,12.083333333333334,79.86111111111111,25.208333333333336,133.33333333333334,20C186.80555555555557,14.791666666666666,211.11111111111114,-15.208333333333334,266.6666666666667,-15C322.22222222222223,-14.791666666666666,344.44444444444446,21.833333333333332,400,21C455.55555555555554,20.166666666666668,477.7777777777778,-23.583333333333332,533.3333333333334,-19C588.8888888888889,-14.416666666666668,611.1111111111112,43.208333333333336,666.6666666666667,43C722.2222222222223,42.791666666666664,772.2222222222223,-6.875,800,-20"
              transform="matrix(1,0,0,1,0,490)"></path>
        <path d="M10,10C35.69444444444444,12.083333333333334,79.86111111111111,25.208333333333336,133.33333333333334,20C186.80555555555557,14.791666666666666,211.11111111111114,-15.208333333333334,266.6666666666667,-15C322.22222222222223,-14.791666666666666,344.44444444444446,21.833333333333332,400,21C455.55555555555554,20.166666666666668,477.7777777777778,-23.583333333333332,533.3333333333334,-19C588.8888888888889,-14.416666666666668,611.1111111111112,43.208333333333336,666.6666666666667,43C722.2222222222223,42.791666666666664,772.2222222222223,-6.875,800,-20"
              transform="matrix(1,0,0,1,0,480)"></path>
        <path d="M10,10C35.69444444444444,12.083333333333334,79.86111111111111,25.208333333333336,133.33333333333334,20C186.80555555555557,14.791666666666666,211.11111111111114,-15.208333333333334,266.6666666666667,-15C322.22222222222223,-14.791666666666666,344.44444444444446,21.833333333333332,400,21C455.55555555555554,20.166666666666668,477.7777777777778,-23.583333333333332,533.3333333333334,-19C588.8888888888889,-14.416666666666668,611.1111111111112,43.208333333333336,666.6666666666667,43C722.2222222222223,42.791666666666664,772.2222222222223,-6.875,800,-20"
              transform="matrix(1,0,0,1,0,470)"></path>
        <path d="M10,10C35.69444444444444,12.083333333333334,79.86111111111111,25.208333333333336,133.33333333333334,20C186.80555555555557,14.791666666666666,211.11111111111114,-15.208333333333334,266.6666666666667,-15C322.22222222222223,-14.791666666666666,344.44444444444446,21.833333333333332,400,21C455.55555555555554,20.166666666666668,477.7777777777778,-23.583333333333332,533.3333333333334,-19C588.8888888888889,-14.416666666666668,611.1111111111112,43.208333333333336,666.6666666666667,43C722.2222222222223,42.791666666666664,772.2222222222223,-6.875,800,-20"
              transform="matrix(1,0,0,1,0,460)"></path>
        <path d="M10,10C35.69444444444444,12.083333333333334,79.86111111111111,25.208333333333336,133.33333333333334,20C186.80555555555557,14.791666666666666,211.11111111111114,-15.208333333333334,266.6666666666667,-15C322.22222222222223,-14.791666666666666,344.44444444444446,21.833333333333332,400,21C455.55555555555554,20.166666666666668,477.7777777777778,-23.583333333333332,533.3333333333334,-19C588.8888888888889,-14.416666666666668,611.1111111111112,43.208333333333336,666.6666666666667,43C722.2222222222223,42.791666666666664,772.2222222222223,-6.875,800,-20"
              transform="matrix(1,0,0,1,0,450)"></path>
        <path d="M10,10C35.69444444444444,12.083333333333334,79.86111111111111,25.208333333333336,133.33333333333334,20C186.80555555555557,14.791666666666666,211.11111111111114,-15.208333333333334,266.6666666666667,-15C322.22222222222223,-14.791666666666666,344.44444444444446,21.833333333333332,400,21C455.55555555555554,20.166666666666668,477.7777777777778,-23.583333333333332,533.3333333333334,-19C588.8888888888889,-14.416666666666668,611.1111111111112,43.208333333333336,666.6666666666667,43C722.2222222222223,42.791666666666664,772.2222222222223,-6.875,800,-20"
              transform="matrix(1,0,0,1,0,440)"></path>
        <path d="M10,10C35.69444444444444,12.083333333333334,79.86111111111111,25.208333333333336,133.33333333333334,20C186.80555555555557,14.791666666666666,211.11111111111114,-15.208333333333334,266.6666666666667,-15C322.22222222222223,-14.791666666666666,344.44444444444446,21.833333333333332,400,21C455.55555555555554,20.166666666666668,477.7777777777778,-23.583333333333332,533.3333333333334,-19C588.8888888888889,-14.416666666666668,611.1111111111112,43.208333333333336,666.6666666666667,43C722.2222222222223,42.791666666666664,772.2222222222223,-6.875,800,-20"
              transform="matrix(1,0,0,1,0,430)"></path>
        <path d="M10,10C35.69444444444444,12.083333333333334,79.86111111111111,25.208333333333336,133.33333333333334,20C186.80555555555557,14.791666666666666,211.11111111111114,-15.208333333333334,266.6666666666667,-15C322.22222222222223,-14.791666666666666,344.44444444444446,21.833333333333332,400,21C455.55555555555554,20.166666666666668,477.7777777777778,-23.583333333333332,533.3333333333334,-19C588.8888888888889,-14.416666666666668,611.1111111111112,43.208333333333336,666.6666666666667,43C722.2222222222223,42.791666666666664,772.2222222222223,-6.875,800,-20"
              transform="matrix(1,0,0,1,0,420)"></path>
        <path d="M10,10C35.69444444444444,12.083333333333334,79.86111111111111,25.208333333333336,133.33333333333334,20C186.80555555555557,14.791666666666666,211.11111111111114,-15.208333333333334,266.6666666666667,-15C322.22222222222223,-14.791666666666666,344.44444444444446,21.833333333333332,400,21C455.55555555555554,20.166666666666668,477.7777777777778,-23.583333333333332,533.3333333333334,-19C588.8888888888889,-14.416666666666668,611.1111111111112,43.208333333333336,666.6666666666667,43C722.2222222222223,42.791666666666664,772.2222222222223,-6.875,800,-20"
              transform="matrix(1,0,0,1,0,410)"></path>
        <path d="M10,10C35.69444444444444,12.083333333333334,79.86111111111111,25.208333333333336,133.33333333333334,20C186.80555555555557,14.791666666666666,211.11111111111114,-15.208333333333334,266.6666666666667,-15C322.22222222222223,-14.791666666666666,344.44444444444446,21.833333333333332,400,21C455.55555555555554,20.166666666666668,477.7777777777778,-23.583333333333332,533.3333333333334,-19C588.8888888888889,-14.416666666666668,611.1111111111112,43.208333333333336,666.6666666666667,43C722.2222222222223,42.791666666666664,772.2222222222223,-6.875,800,-20"
              transform="matrix(1,0,0,1,0,400)"></path>
        <path d="M10,10C35.69444444444444,12.083333333333334,79.86111111111111,25.208333333333336,133.33333333333334,20C186.80555555555557,14.791666666666666,211.11111111111114,-15.208333333333334,266.6666666666667,-15C322.22222222222223,-14.791666666666666,344.44444444444446,21.833333333333332,400,21C455.55555555555554,20.166666666666668,477.7777777777778,-23.583333333333332,533.3333333333334,-19C588.8888888888889,-14.416666666666668,611.1111111111112,43.208333333333336,666.6666666666667,43C722.2222222222223,42.791666666666664,772.2222222222223,-6.875,800,-20"
              transform="matrix(1,0,0,1,0,390)"></path>
        <path d="M10,10C35.69444444444444,12.083333333333334,79.86111111111111,25.208333333333336,133.33333333333334,20C186.80555555555557,14.791666666666666,211.11111111111114,-15.208333333333334,266.6666666666667,-15C322.22222222222223,-14.791666666666666,344.44444444444446,21.833333333333332,400,21C455.55555555555554,20.166666666666668,477.7777777777778,-23.583333333333332,533.3333333333334,-19C588.8888888888889,-14.416666666666668,611.1111111111112,43.208333333333336,666.6666666666667,43C722.2222222222223,42.791666666666664,772.2222222222223,-6.875,800,-20"
              transform="matrix(1,0,0,1,0,380)"></path>
        <path d="M10,10C35.69444444444444,12.083333333333334,79.86111111111111,25.208333333333336,133.33333333333334,20C186.80555555555557,14.791666666666666,211.11111111111114,-15.208333333333334,266.6666666666667,-15C322.22222222222223,-14.791666666666666,344.44444444444446,21.833333333333332,400,21C455.55555555555554,20.166666666666668,477.7777777777778,-23.583333333333332,533.3333333333334,-19C588.8888888888889,-14.416666666666668,611.1111111111112,43.208333333333336,666.6666666666667,43C722.2222222222223,42.791666666666664,772.2222222222223,-6.875,800,-20"
              transform="matrix(1,0,0,1,0,370)"></path>
        <path d="M10,10C35.69444444444444,12.083333333333334,79.86111111111111,25.208333333333336,133.33333333333334,20C186.80555555555557,14.791666666666666,211.11111111111114,-15.208333333333334,266.6666666666667,-15C322.22222222222223,-14.791666666666666,344.44444444444446,21.833333333333332,400,21C455.55555555555554,20.166666666666668,477.7777777777778,-23.583333333333332,533.3333333333334,-19C588.8888888888889,-14.416666666666668,611.1111111111112,43.208333333333336,666.6666666666667,43C722.2222222222223,42.791666666666664,772.2222222222223,-6.875,800,-20"
              transform="matrix(1,0,0,1,0,360)"></path>
        <path d="M10,10C35.69444444444444,12.083333333333334,79.86111111111111,25.208333333333336,133.33333333333334,20C186.80555555555557,14.791666666666666,211.11111111111114,-15.208333333333334,266.6666666666667,-15C322.22222222222223,-14.791666666666666,344.44444444444446,21.833333333333332,400,21C455.55555555555554,20.166666666666668,477.7777777777778,-23.583333333333332,533.3333333333334,-19C588.8888888888889,-14.416666666666668,611.1111111111112,43.208333333333336,666.6666666666667,43C722.2222222222223,42.791666666666664,772.2222222222223,-6.875,800,-20"
              transform="matrix(1,0,0,1,0,350)"></path>
        <path d="M10,10C35.69444444444444,12.083333333333334,79.86111111111111,25.208333333333336,133.33333333333334,20C186.80555555555557,14.791666666666666,211.11111111111114,-15.208333333333334,266.6666666666667,-15C322.22222222222223,-14.791666666666666,344.44444444444446,21.833333333333332,400,21C455.55555555555554,20.166666666666668,477.7777777777778,-23.583333333333332,533.3333333333334,-19C588.8888888888889,-14.416666666666668,611.1111111111112,43.208333333333336,666.6666666666667,43C722.2222222222223,42.791666666666664,772.2222222222223,-6.875,800,-20"
              transform="matrix(1,0,0,1,0,340)"></path>
        <path d="M10,10C35.69444444444444,12.083333333333334,79.86111111111111,25.208333333333336,133.33333333333334,20C186.80555555555557,14.791666666666666,211.11111111111114,-15.208333333333334,266.6666666666667,-15C322.22222222222223,-14.791666666666666,344.44444444444446,21.833333333333332,400,21C455.55555555555554,20.166666666666668,477.7777777777778,-23.583333333333332,533.3333333333334,-19C588.8888888888889,-14.416666666666668,611.1111111111112,43.208333333333336,666.6666666666667,43C722.2222222222223,42.791666666666664,772.2222222222223,-6.875,800,-20"
              transform="matrix(1,0,0,1,0,330)"></path>
        <path d="M10,10C35.69444444444444,12.083333333333334,79.86111111111111,25.208333333333336,133.33333333333334,20C186.80555555555557,14.791666666666666,211.11111111111114,-15.208333333333334,266.6666666666667,-15C322.22222222222223,-14.791666666666666,344.44444444444446,21.833333333333332,400,21C455.55555555555554,20.166666666666668,477.7777777777778,-23.583333333333332,533.3333333333334,-19C588.8888888888889,-14.416666666666668,611.1111111111112,43.208333333333336,666.6666666666667,43C722.2222222222223,42.791666666666664,772.2222222222223,-6.875,800,-20"
              transform="matrix(1,0,0,1,0,320)"></path>
        <path d="M10,10C35.69444444444444,12.083333333333334,79.86111111111111,25.208333333333336,133.33333333333334,20C186.80555555555557,14.791666666666666,211.11111111111114,-15.208333333333334,266.6666666666667,-15C322.22222222222223,-14.791666666666666,344.44444444444446,21.833333333333332,400,21C455.55555555555554,20.166666666666668,477.7777777777778,-23.583333333333332,533.3333333333334,-19C588.8888888888889,-14.416666666666668,611.1111111111112,43.208333333333336,666.6666666666667,43C722.2222222222223,42.791666666666664,772.2222222222223,-6.875,800,-20"
              transform="matrix(1,0,0,1,0,310)"></path>
        <path d="M10,10C35.69444444444444,12.083333333333334,79.86111111111111,25.208333333333336,133.33333333333334,20C186.80555555555557,14.791666666666666,211.11111111111114,-15.208333333333334,266.6666666666667,-15C322.22222222222223,-14.791666666666666,344.44444444444446,21.833333333333332,400,21C455.55555555555554,20.166666666666668,477.7777777777778,-23.583333333333332,533.3333333333334,-19C588.8888888888889,-14.416666666666668,611.1111111111112,43.208333333333336,666.6666666666667,43C722.2222222222223,42.791666666666664,772.2222222222223,-6.875,800,-20"
              transform="matrix(1,0,0,1,0,300)"></path>
        <path d="M10,10C35.69444444444444,12.083333333333334,79.86111111111111,25.208333333333336,133.33333333333334,20C186.80555555555557,14.791666666666666,211.11111111111114,-15.208333333333334,266.6666666666667,-15C322.22222222222223,-14.791666666666666,344.44444444444446,21.833333333333332,400,21C455.55555555555554,20.166666666666668,477.7777777777778,-23.583333333333332,533.3333333333334,-19C588.8888888888889,-14.416666666666668,611.1111111111112,43.208333333333336,666.6666666666667,43C722.2222222222223,42.791666666666664,772.2222222222223,-6.875,800,-20"
              transform="matrix(1,0,0,1,0,290)"></path>
        <path d="M10,10C35.69444444444444,12.083333333333334,79.86111111111111,25.208333333333336,133.33333333333334,20C186.80555555555557,14.791666666666666,211.11111111111114,-15.208333333333334,266.6666666666667,-15C322.22222222222223,-14.791666666666666,344.44444444444446,21.833333333333332,400,21C455.55555555555554,20.166666666666668,477.7777777777778,-23.583333333333332,533.3333333333334,-19C588.8888888888889,-14.416666666666668,611.1111111111112,43.208333333333336,666.6666666666667,43C722.2222222222223,42.791666666666664,772.2222222222223,-6.875,800,-20"
              transform="matrix(1,0,0,1,0,280)"></path>
        <path d="M10,10C35.69444444444444,12.083333333333334,79.86111111111111,25.208333333333336,133.33333333333334,20C186.80555555555557,14.791666666666666,211.11111111111114,-15.208333333333334,266.6666666666667,-15C322.22222222222223,-14.791666666666666,344.44444444444446,21.833333333333332,400,21C455.55555555555554,20.166666666666668,477.7777777777778,-23.583333333333332,533.3333333333334,-19C588.8888888888889,-14.416666666666668,611.1111111111112,43.208333333333336,666.6666666666667,43C722.2222222222223,42.791666666666664,772.2222222222223,-6.875,800,-20"
              transform="matrix(1,0,0,1,0,270)"></path>
        <path d="M10,10C35.69444444444444,12.083333333333334,79.86111111111111,25.208333333333336,133.33333333333334,20C186.80555555555557,14.791666666666666,211.11111111111114,-15.208333333333334,266.6666666666667,-15C322.22222222222223,-14.791666666666666,344.44444444444446,21.833333333333332,400,21C455.55555555555554,20.166666666666668,477.7777777777778,-23.583333333333332,533.3333333333334,-19C588.8888888888889,-14.416666666666668,611.1111111111112,43.208333333333336,666.6666666666667,43C722.2222222222223,42.791666666666664,772.2222222222223,-6.875,800,-20"
              transform="matrix(1,0,0,1,0,260)"></path>
        <path d="M10,10C35.69444444444444,12.083333333333334,79.86111111111111,25.208333333333336,133.33333333333334,20C186.80555555555557,14.791666666666666,211.11111111111114,-15.208333333333334,266.6666666666667,-15C322.22222222222223,-14.791666666666666,344.44444444444446,21.833333333333332,400,21C455.55555555555554,20.166666666666668,477.7777777777778,-23.583333333333332,533.3333333333334,-19C588.8888888888889,-14.416666666666668,611.1111111111112,43.208333333333336,666.6666666666667,43C722.2222222222223,42.791666666666664,772.2222222222223,-6.875,800,-20"
              transform="matrix(1,0,0,1,0,250)"></path>
        <path d="M10,10C35.69444444444444,12.083333333333334,79.86111111111111,25.208333333333336,133.33333333333334,20C186.80555555555557,14.791666666666666,211.11111111111114,-15.208333333333334,266.6666666666667,-15C322.22222222222223,-14.791666666666666,344.44444444444446,21.833333333333332,400,21C455.55555555555554,20.166666666666668,477.7777777777778,-23.583333333333332,533.3333333333334,-19C588.8888888888889,-14.416666666666668,611.1111111111112,43.208333333333336,666.6666666666667,43C722.2222222222223,42.791666666666664,772.2222222222223,-6.875,800,-20"
              transform="matrix(1,0,0,1,0,240)"></path>
        <path d="M10,10C35.69444444444444,12.083333333333334,79.86111111111111,25.208333333333336,133.33333333333334,20C186.80555555555557,14.791666666666666,211.11111111111114,-15.208333333333334,266.6666666666667,-15C322.22222222222223,-14.791666666666666,344.44444444444446,21.833333333333332,400,21C455.55555555555554,20.166666666666668,477.7777777777778,-23.583333333333332,533.3333333333334,-19C588.8888888888889,-14.416666666666668,611.1111111111112,43.208333333333336,666.6666666666667,43C722.2222222222223,42.791666666666664,772.2222222222223,-6.875,800,-20"
              transform="matrix(1,0,0,1,0,230)"></path>
        <path d="M10,10C35.69444444444444,12.083333333333334,79.86111111111111,25.208333333333336,133.33333333333334,20C186.80555555555557,14.791666666666666,211.11111111111114,-15.208333333333334,266.6666666666667,-15C322.22222222222223,-14.791666666666666,344.44444444444446,21.833333333333332,400,21C455.55555555555554,20.166666666666668,477.7777777777778,-23.583333333333332,533.3333333333334,-19C588.8888888888889,-14.416666666666668,611.1111111111112,43.208333333333336,666.6666666666667,43C722.2222222222223,42.791666666666664,772.2222222222223,-6.875,800,-20"
              transform="matrix(1,0,0,1,0,220)"></path>
        <path d="M10,10C35.69444444444444,12.083333333333334,79.86111111111111,25.208333333333336,133.33333333333334,20C186.80555555555557,14.791666666666666,211.11111111111114,-15.208333333333334,266.6666666666667,-15C322.22222222222223,-14.791666666666666,344.44444444444446,21.833333333333332,400,21C455.55555555555554,20.166666666666668,477.7777777777778,-23.583333333333332,533.3333333333334,-19C588.8888888888889,-14.416666666666668,611.1111111111112,43.208333333333336,666.6666666666667,43C722.2222222222223,42.791666666666664,772.2222222222223,-6.875,800,-20"
              transform="matrix(1,0,0,1,0,210)"></path>
        <path d="M10,10C35.69444444444444,12.083333333333334,79.86111111111111,25.208333333333336,133.33333333333334,20C186.80555555555557,14.791666666666666,211.11111111111114,-15.208333333333334,266.6666666666667,-15C322.22222222222223,-14.791666666666666,344.44444444444446,21.833333333333332,400,21C455.55555555555554,20.166666666666668,477.7777777777778,-23.583333333333332,533.3333333333334,-19C588.8888888888889,-14.416666666666668,611.1111111111112,43.208333333333336,666.6666666666667,43C722.2222222222223,42.791666666666664,772.2222222222223,-6.875,800,-20"
              transform="matrix(1,0,0,1,0,200)"></path>
        <path d="M10,10C35.69444444444444,12.083333333333334,79.86111111111111,25.208333333333336,133.33333333333334,20C186.80555555555557,14.791666666666666,211.11111111111114,-15.208333333333334,266.6666666666667,-15C322.22222222222223,-14.791666666666666,344.44444444444446,21.833333333333332,400,21C455.55555555555554,20.166666666666668,477.7777777777778,-23.583333333333332,533.3333333333334,-19C588.8888888888889,-14.416666666666668,611.1111111111112,43.208333333333336,666.6666666666667,43C722.2222222222223,42.791666666666664,772.2222222222223,-6.875,800,-20"
              transform="matrix(1,0,0,1,0,190)"></path>
        <path d="M10,10C35.69444444444444,12.083333333333334,79.86111111111111,25.208333333333336,133.33333333333334,20C186.80555555555557,14.791666666666666,211.11111111111114,-15.208333333333334,266.6666666666667,-15C322.22222222222223,-14.791666666666666,344.44444444444446,21.833333333333332,400,21C455.55555555555554,20.166666666666668,477.7777777777778,-23.583333333333332,533.3333333333334,-19C588.8888888888889,-14.416666666666668,611.1111111111112,43.208333333333336,666.6666666666667,43C722.2222222222223,42.791666666666664,772.2222222222223,-6.875,800,-20"
              transform="matrix(1,0,0,1,0,180)"></path>
        <path d="M10,10C35.69444444444444,12.083333333333334,79.86111111111111,25.208333333333336,133.33333333333334,20C186.80555555555557,14.791666666666666,211.11111111111114,-15.208333333333334,266.6666666666667,-15C322.22222222222223,-14.791666666666666,344.44444444444446,21.833333333333332,400,21C455.55555555555554,20.166666666666668,477.7777777777778,-23.583333333333332,533.3333333333334,-19C588.8888888888889,-14.416666666666668,611.1111111111112,43.208333333333336,666.6666666666667,43C722.2222222222223,42.791666666666664,772.2222222222223,-6.875,800,-20"
              transform="matrix(1,0,0,1,0,170)"></path>
        <path d="M10,10C35.69444444444444,12.083333333333334,79.86111111111111,25.208333333333336,133.33333333333334,20C186.80555555555557,14.791666666666666,211.11111111111114,-15.208333333333334,266.6666666666667,-15C322.22222222222223,-14.791666666666666,344.44444444444446,21.833333333333332,400,21C455.55555555555554,20.166666666666668,477.7777777777778,-23.583333333333332,533.3333333333334,-19C588.8888888888889,-14.416666666666668,611.1111111111112,43.208333333333336,666.6666666666667,43C722.2222222222223,42.791666666666664,772.2222222222223,-6.875,800,-20"
              transform="matrix(1,0,0,1,0,160)"></path>
        <path d="M10,10C35.69444444444444,12.083333333333334,79.86111111111111,25.208333333333336,133.33333333333334,20C186.80555555555557,14.791666666666666,211.11111111111114,-15.208333333333334,266.6666666666667,-15C322.22222222222223,-14.791666666666666,344.44444444444446,21.833333333333332,400,21C455.55555555555554,20.166666666666668,477.7777777777778,-23.583333333333332,533.3333333333334,-19C588.8888888888889,-14.416666666666668,611.1111111111112,43.208333333333336,666.6666666666667,43C722.2222222222223,42.791666666666664,772.2222222222223,-6.875,800,-20"
              transform="matrix(1,0,0,1,0,150)"></path>
        <path d="M10,10C35.69444444444444,12.083333333333334,79.86111111111111,25.208333333333336,133.33333333333334,20C186.80555555555557,14.791666666666666,211.11111111111114,-15.208333333333334,266.6666666666667,-15C322.22222222222223,-14.791666666666666,344.44444444444446,21.833333333333332,400,21C455.55555555555554,20.166666666666668,477.7777777777778,-23.583333333333332,533.3333333333334,-19C588.8888888888889,-14.416666666666668,611.1111111111112,43.208333333333336,666.6666666666667,43C722.2222222222223,42.791666666666664,772.2222222222223,-6.875,800,-20"
              transform="matrix(1,0,0,1,0,140)"></path>
        <path d="M10,10C35.69444444444444,12.083333333333334,79.86111111111111,25.208333333333336,133.33333333333334,20C186.80555555555557,14.791666666666666,211.11111111111114,-15.208333333333334,266.6666666666667,-15C322.22222222222223,-14.791666666666666,344.44444444444446,21.833333333333332,400,21C455.55555555555554,20.166666666666668,477.7777777777778,-23.583333333333332,533.3333333333334,-19C588.8888888888889,-14.416666666666668,611.1111111111112,43.208333333333336,666.6666666666667,43C722.2222222222223,42.791666666666664,772.2222222222223,-6.875,800,-20"
              transform="matrix(1,0,0,1,0,130)"></path>
        <path d="M10,10C35.69444444444444,12.083333333333334,79.86111111111111,25.208333333333336,133.33333333333334,20C186.80555555555557,14.791666666666666,211.11111111111114,-15.208333333333334,266.6666666666667,-15C322.22222222222223,-14.791666666666666,344.44444444444446,21.833333333333332,400,21C455.55555555555554,20.166666666666668,477.7777777777778,-23.583333333333332,533.3333333333334,-19C588.8888888888889,-14.416666666666668,611.1111111111112,43.208333333333336,666.6666666666667,43C722.2222222222223,42.791666666666664,772.2222222222223,-6.875,800,-20"
              transform="matrix(1,0,0,1,0,120)"></path>
        <path d="M10,10C35.69444444444444,12.083333333333334,79.86111111111111,25.208333333333336,133.33333333333334,20C186.80555555555557,14.791666666666666,211.11111111111114,-15.208333333333334,266.6666666666667,-15C322.22222222222223,-14.791666666666666,344.44444444444446,21.833333333333332,400,21C455.55555555555554,20.166666666666668,477.7777777777778,-23.583333333333332,533.3333333333334,-19C588.8888888888889,-14.416666666666668,611.1111111111112,43.208333333333336,666.6666666666667,43C722.2222222222223,42.791666666666664,772.2222222222223,-6.875,800,-20"
              transform="matrix(1,0,0,1,0,110)"></path>
        <path d="M10,10C35.69444444444444,12.083333333333334,79.86111111111111,25.208333333333336,133.33333333333334,20C186.80555555555557,14.791666666666666,211.11111111111114,-15.208333333333334,266.6666666666667,-15C322.22222222222223,-14.791666666666666,344.44444444444446,21.833333333333332,400,21C455.55555555555554,20.166666666666668,477.7777777777778,-23.583333333333332,533.3333333333334,-19C588.8888888888889,-14.416666666666668,611.1111111111112,43.208333333333336,666.6666666666667,43C722.2222222222223,42.791666666666664,772.2222222222223,-6.875,800,-20"
              transform="matrix(1,0,0,1,0,100)"></path>
        <path d="M10,10C35.69444444444444,12.083333333333334,79.86111111111111,25.208333333333336,133.33333333333334,20C186.80555555555557,14.791666666666666,211.11111111111114,-15.208333333333334,266.6666666666667,-15C322.22222222222223,-14.791666666666666,344.44444444444446,21.833333333333332,400,21C455.55555555555554,20.166666666666668,477.7777777777778,-23.583333333333332,533.3333333333334,-19C588.8888888888889,-14.416666666666668,611.1111111111112,43.208333333333336,666.6666666666667,43C722.2222222222223,42.791666666666664,772.2222222222223,-6.875,800,-20"
              transform="matrix(1,0,0,1,0,90)"></path>
        <path d="M10,10C35.69444444444444,12.083333333333334,79.86111111111111,25.208333333333336,133.33333333333334,20C186.80555555555557,14.791666666666666,211.11111111111114,-15.208333333333334,266.6666666666667,-15C322.22222222222223,-14.791666666666666,344.44444444444446,21.833333333333332,400,21C455.55555555555554,20.166666666666668,477.7777777777778,-23.583333333333332,533.3333333333334,-19C588.8888888888889,-14.416666666666668,611.1111111111112,43.208333333333336,666.6666666666667,43C722.2222222222223,42.791666666666664,772.2222222222223,-6.875,800,-20"
              transform="matrix(1,0,0,1,0,80)"></path>
        <path d="M10,10C35.69444444444444,12.083333333333334,79.86111111111111,25.208333333333336,133.33333333333334,20C186.80555555555557,14.791666666666666,211.11111111111114,-15.208333333333334,266.6666666666667,-15C322.22222222222223,-14.791666666666666,344.44444444444446,21.833333333333332,400,21C455.55555555555554,20.166666666666668,477.7777777777778,-23.583333333333332,533.3333333333334,-19C588.8888888888889,-14.416666666666668,611.1111111111112,43.208333333333336,666.6666666666667,43C722.2222222222223,42.791666666666664,772.2222222222223,-6.875,800,-20"
              transform="matrix(1,0,0,1,0,70)"></path>
        <path d="M10,10C35.69444444444444,12.083333333333334,79.86111111111111,25.208333333333336,133.33333333333334,20C186.80555555555557,14.791666666666666,211.11111111111114,-15.208333333333334,266.6666666666667,-15C322.22222222222223,-14.791666666666666,344.44444444444446,21.833333333333332,400,21C455.55555555555554,20.166666666666668,477.7777777777778,-23.583333333333332,533.3333333333334,-19C588.8888888888889,-14.416666666666668,611.1111111111112,43.208333333333336,666.6666666666667,43C722.2222222222223,42.791666666666664,772.2222222222223,-6.875,800,-20"
              transform="matrix(1,0,0,1,0,60)"></path>
        <path d="M10,10C35.69444444444444,12.083333333333334,79.86111111111111,25.208333333333336,133.33333333333334,20C186.80555555555557,14.791666666666666,211.11111111111114,-15.208333333333334,266.6666666666667,-15C322.22222222222223,-14.791666666666666,344.44444444444446,21.833333333333332,400,21C455.55555555555554,20.166666666666668,477.7777777777778,-23.583333333333332,533.3333333333334,-19C588.8888888888889,-14.416666666666668,611.1111111111112,43.208333333333336,666.6666666666667,43C722.2222222222223,42.791666666666664,772.2222222222223,-6.875,800,-20"
              transform="matrix(1,0,0,1,0,50)"></path>
        <path d="M10,10C35.69444444444444,12.083333333333334,79.86111111111111,25.208333333333336,133.33333333333334,20C186.80555555555557,14.791666666666666,211.11111111111114,-15.208333333333334,266.6666666666667,-15C322.22222222222223,-14.791666666666666,344.44444444444446,21.833333333333332,400,21C455.55555555555554,20.166666666666668,477.7777777777778,-23.583333333333332,533.3333333333334,-19C588.8888888888889,-14.416666666666668,611.1111111111112,43.208333333333336,666.6666666666667,43C722.2222222222223,42.791666666666664,772.2222222222223,-6.875,800,-20"
              transform="matrix(1,0,0,1,0,40)"></path>
        <path d="M10,10C35.69444444444444,12.083333333333334,79.86111111111111,25.208333333333336,133.33333333333334,20C186.80555555555557,14.791666666666666,211.11111111111114,-15.208333333333334,266.6666666666667,-15C322.22222222222223,-14.791666666666666,344.44444444444446,21.833333333333332,400,21C455.55555555555554,20.166666666666668,477.7777777777778,-23.583333333333332,533.3333333333334,-19C588.8888888888889,-14.416666666666668,611.1111111111112,43.208333333333336,666.6666666666667,43C722.2222222222223,42.791666666666664,772.2222222222223,-6.875,800,-20"
              transform="matrix(1,0,0,1,0,30)"></path>
        <path d="M10,10C35.69444444444444,12.083333333333334,79.86111111111111,25.208333333333336,133.33333333333334,20C186.80555555555557,14.791666666666666,211.11111111111114,-15.208333333333334,266.6666666666667,-15C322.22222222222223,-14.791666666666666,344.44444444444446,21.833333333333332,400,21C455.55555555555554,20.166666666666668,477.7777777777778,-23.583333333333332,533.3333333333334,-19C588.8888888888889,-14.416666666666668,611.1111111111112,43.208333333333336,666.6666666666667,43C722.2222222222223,42.791666666666664,772.2222222222223,-6.875,800,-20"
              transform="matrix(1,0,0,1,0,20)"></path>
        <path d="M10,10C35.69444444444444,12.083333333333334,79.86111111111111,25.208333333333336,133.33333333333334,20C186.80555555555557,14.791666666666666,211.11111111111114,-15.208333333333334,266.6666666666667,-15C322.22222222222223,-14.791666666666666,344.44444444444446,21.833333333333332,400,21C455.55555555555554,20.166666666666668,477.7777777777778,-23.583333333333332,533.3333333333334,-19C588.8888888888889,-14.416666666666668,611.1111111111112,43.208333333333336,666.6666666666667,43C722.2222222222223,42.791666666666664,772.2222222222223,-6.875,800,-20"
              transform="matrix(1,0,0,1,0,10)"></path>
    </g>
</svg>
